<?xml version="1.0" standalone="no"?>
<!DOCTYPE svg PUBLIC "-//W3C//DTD SVG 1.1//EN" "http://www.w3.org/Graphics/SVG/1.1/DTD/svg11.dtd" >
<svg xmlns="http://www.w3.org/2000/svg" xmlns:xlink="http://www.w3.org/1999/xlink" version="1.1">
<metadata>
Created by FontForge 20190801 at Fri Jul 17 14:49:55 2015
 By Jimmy Wärting
Copyright (c) 2015 by Kostas Bartsokas. All rights reserved.
</metadata>
<defs>
<font id="Averta-Bold" horiz-adv-x="1200" >
  <font-face 
    font-family="Averta-Bold"
    font-weight="400"
    font-stretch="normal"
    units-per-em="2048"
    panose-1="0 0 8 0 0 0 0 0 0 0"
    ascent="1604"
    descent="-444"
    x-height="1000"
    cap-height="1455"
    bbox="-494 -526.003 2928 2025"
    underline-thickness="108"
    underline-position="-186"
    unicode-range="U+0020-2E18"
  />
<missing-glyph horiz-adv-x="920" 
 />
    <glyph glyph-name=".notdef" horiz-adv-x="920" 
 />
    <glyph glyph-name="space" unicode=" " horiz-adv-x="539" 
 />
    <glyph glyph-name="exclam" unicode="!" horiz-adv-x="576" 
d="M192 478l-47 1030h293l-48 -1030h-198zM288 -17c-46.667 0 -86.167 15.833 -118.5 47.5s-48.5 70.167 -48.5 115.5s16.167 84 48.5 116s71.833 48 118.5 48c45.333 0 84.166 -16.167 116.499 -48.5s48.5 -70.833 48.5 -115.5s-16.167 -83 -48.5 -115
s-71.166 -48 -116.499 -48z" />
    <glyph glyph-name="quotedbl" unicode="&#x22;" horiz-adv-x="850" 
d="M67 921l63 534h274l-130 -534h-207zM452 921l62 534h276l-131 -534h-207z" />
    <glyph glyph-name="numbersign" unicode="#" horiz-adv-x="1320" 
d="M226 -90l61 385h-217v199h248l43 284h-241v198h272l57 367h182l-57 -367h281l57 367h182l-56 -367h224l-1 -198h-254l-44 -284h247l-1 -199h-277l-58 -385h-183l59 385h-280l-60 -385h-184zM500 494h282l43 284h-280z" />
    <glyph glyph-name="dollar" unicode="$" horiz-adv-x="1171" 
d="M1092 399c0 -109.333 -33.835 -199.334 -101.502 -270.001s-160.5 -114.667 -278.5 -132v-228h-214v229c-158.667 23.333 -295.667 92.666 -411 207.999l166 202c54.667 -52.667 114.5 -92.334 179.5 -119.001s126.833 -40 185.5 -40c51.333 0 92.5 11.667 123.5 35
s46.5 54.666 46.5 93.999c0 14.667 -1.83301 28.167 -5.5 40.5s-9.66699 23.833 -18 34.5s-18.333 20.334 -30 29.001s-26.5 17.334 -44.5 26.001s-37.5 17 -58.5 25s-46.167 16.333 -75.5 25c-26 8 -48.833 15.167 -68.5 21.5s-41.5 13.833 -65.5 22.5
s-45 17.334 -63 26.001s-37 18.334 -57 29.001s-37.333 22 -52 34s-29.334 25.167 -44.001 39.5s-27 29.833 -37 46.5s-19 34.667 -27 54s-13.833 40.333 -17.5 63s-5.5 46.667 -5.5 72c0 106.667 33.5 195.834 100.5 267.501s159.833 114.5 278.5 128.5v242h214v-253
c63.333 -13.333 125.833 -34.333 187.5 -63s115.5 -61.667 161.5 -99l-161 -202c-108 76 -213.333 114 -316 114c-52 0 -92.333 -10.167 -121 -30.5s-43 -48.833 -43 -85.5c0 -36 16.667 -65.667 50 -89s88.666 -47.333 165.999 -72c34.667 -10.667 64.167 -20 88.5 -28
s50.833 -17.333 79.5 -28s52.834 -21 72.501 -31s40.334 -21.833 62.001 -35.5s39.667 -27.5 54 -41.5s28.333 -30.333 42 -49s24.334 -38.334 32.001 -59.001s13.834 -44 18.501 -70s7 -53.667 7 -83z" />
    <glyph glyph-name="percent" unicode="%" horiz-adv-x="2087" 
d="M824 -48l-202 87l645 1446l201 -87zM492 655c-75.333 0 -144.332 16.8301 -206.999 50.4971s-112.667 82 -150 145s-56 134.5 -56 214.5c0 74 17 141.833 51 203.5s82.667 110.834 146 147.501s135.333 55 216 55c76 0 145.333 -16.667 208 -50
s112.667 -81.166 150 -143.499s56 -133.166 56 -212.499c0 -74.667 -17 -143.167 -51 -205.5s-82.833 -112 -146.5 -149s-135.834 -55.5 -216.501 -55.5zM494.001 845.997c59.333 0 107.833 20.833 145.5 62.5s56.5 93.167 56.5 154.5c0 42 -9 79.5 -27 112.5
s-42.333 58.167 -73 75.5s-64.667 26 -102 26c-39.333 0 -74.333 -9.5 -105 -28.5s-54.334 -44.833 -71.001 -77.5s-25 -68.667 -25 -108c0 -42 9 -79.667 27 -113s42.333 -59 73 -77s64.334 -27 101.001 -27zM1592 -17.0029c-75.333 0 -144.169 16.832 -206.502 50.499
s-112.166 81.834 -149.499 144.501s-56 133.667 -56 213c0 56 10 108.833 30 158.5s47.667 92.834 83 129.501s78.833 65.667 130.5 87s107.834 32 168.501 32c56.667 0 110.334 -9.83301 161.001 -29.5s94.667 -47 132 -82s66.833 -78 88.5 -129s32.5 -106.5 32.5 -166.5
c0 -74.667 -17 -142.834 -51 -204.501s-82.833 -111 -146.5 -148s-135.834 -55.5 -216.501 -55.5zM1594 173.996c59.333 0 107.832 20.832 145.499 62.499s56.5 92.834 56.5 153.501c0 42 -9 79.5 -27 112.5s-42.333 58.333 -73 76s-64.667 26.5 -102 26.5
c-59.333 0 -107.833 -20.833 -145.5 -62.5s-56.5 -92.5 -56.5 -152.5c0 -42 9.16699 -79.5 27.5 -112.5s42.833 -58.5 73.5 -76.5s64.334 -27 101.001 -27z" />
    <glyph glyph-name="ampersand" unicode="&#x26;" horiz-adv-x="1365" 
d="M1015 0l-79.998 102.002h-5c-94 -79.333 -217 -119 -369 -119c-88.667 0 -169.167 18.333 -241.5 55s-129.833 89.167 -172.5 157.5s-64 145.833 -64 232.5c0 94 24 176.833 72 248.5s112 131.167 192 178.5l-159 203c12 121.333 60 220.666 144 297.999
s187.333 116 310 116c37.333 0 72.833 -3.16699 106.5 -9.5s63.834 -14.833 90.501 -25.5s52.167 -23.834 76.5 -39.501s45.5 -32 63.5 -49s35.167 -35.833 51.5 -56.5s30.166 -40.5 41.499 -59.5s22 -39.167 32 -60.5l-222 -82c-47.333 99.333 -119 149.333 -215 150
c-24 0 -46.167 -3 -66.5 -9s-37.5 -14.167 -51.5 -24.5s-26.333 -22.5 -37 -36.5s-18.834 -28.333 -24.501 -43s-9.83398 -29.667 -12.501 -45l468 -601h4c31.333 72 47 144 47 216l252 6c0 -76 -10.333 -152.667 -31 -230s-53 -148.333 -97 -213v-3l200 -257h-303z
M352.002 445.002c0 -65.333 22.001 -117.833 66.001 -157.5s101 -59.5 171 -59.5c73.333 0 139.666 19.333 198.999 58v4l-294 377c-46.667 -25.333 -82 -57.5 -106 -96.5s-36 -80.833 -36 -125.5z" />
    <glyph glyph-name="quotesingle" unicode="'" horiz-adv-x="465" 
d="M67 921l63 534h274l-130 -534h-207z" />
    <glyph glyph-name="parenleft" unicode="(" horiz-adv-x="636" 
d="M354 -322c-80 126.667 -141.167 268.333 -183.5 425s-63.5 323.667 -63.5 501s21.667 345.833 65 505.5s105.333 300.167 186 421.5l197 -89c-66 -120 -116.667 -251.833 -152 -395.5s-53 -291.167 -53 -442.5c0 -300 67.667 -579 203 -837z" />
    <glyph glyph-name="parenright" unicode=")" horiz-adv-x="636" 
d="M282 -322l-199 88.999c135.333 258 203 537 203 837c0 100.667 -8 200.334 -24 299.001s-39.167 193.334 -69.5 284.001s-67.5 175.667 -111.5 255l197 89c80.667 -121.333 142.667 -261.833 186 -421.5s65 -328.167 65 -505.5s-21.167 -344.333 -63.5 -501
s-103.5 -298.334 -183.5 -425.001z" />
    <glyph glyph-name="asterisk" unicode="*" horiz-adv-x="826" 
d="M332 785l9 210l-176 -111l-82 140l184 94l-185 98l83 142l176 -113l-9 210h162l-11 -210l178 110l82 -139l-186 -96l186 -96l-82 -141l-174 112l7 -210h-162z" />
    <glyph glyph-name="plus" unicode="+" horiz-adv-x="1187" 
d="M475 83v367h-367v234h367v369h237v-369h368v-234h-368v-367h-237z" />
    <glyph glyph-name="comma" unicode="," horiz-adv-x="499" 
d="M52 -272l63 533h274l-142 -533h-195z" />
    <glyph glyph-name="hyphen" unicode="-" horiz-adv-x="820" 
d="M100 507v251h620v-251h-620z" />
    <glyph glyph-name="period" unicode="." horiz-adv-x="553" 
d="M277 -17c-46.667 0 -86.167 15.833 -118.5 47.5s-48.5 70.167 -48.5 115.5s16.167 84 48.5 116s71.833 48 118.5 48c45.333 0 84.166 -16.167 116.499 -48.5s48.5 -70.833 48.5 -115.5s-16.167 -83 -48.5 -115s-71.166 -48 -116.499 -48z" />
    <glyph glyph-name="slash" unicode="/" horiz-adv-x="897" 
d="M135 -229l-200 92l782 1748l198 -92z" />
    <glyph glyph-name="zero" unicode="0" horiz-adv-x="1293" 
d="M646 -17c-81.333 0 -155.668 16.333 -223.001 49s-125 79.334 -173 140.001s-85.333 136.334 -112 227.001s-40 192 -40 304c0 106.667 12.667 204.5 38 293.5s61.333 165 108 228s104.334 111.833 173.001 146.5s145 52 229 52c81.333 0 155.833 -16.333 223.5 -49
s125.5 -79.334 173.5 -140.001s85.333 -136.334 112 -227.001s40 -192 40 -304c0 -143.333 -21.833 -269 -65.5 -377s-107.167 -192.167 -190.5 -252.5s-181 -90.5 -293 -90.5zM646.998 242c82.667 0 147.167 39.999 193.5 119.999s69.5 193.667 69.5 341
c0 143.333 -23.167 256 -69.5 338s-110.833 123 -193.5 123c-82 0 -146.5 -40 -193.5 -120s-70.5 -193.667 -70.5 -341c0 -94 10.333 -175.667 31 -245s51 -122.666 91 -159.999s87.333 -56 142 -56z" />
    <glyph glyph-name="one" unicode="1" horiz-adv-x="842" 
d="M398 0v1072l-236 -177l-134 207l426 304h224v-1406h-280z" />
    <glyph glyph-name="two" unicode="2" horiz-adv-x="1088" 
d="M485 253l513.002 -0.000976562v-253h-919l-3 183l438 462c64 68 111.333 126.833 142 176.5s46 100.834 46 153.501c0 36 -8 68.5 -24 97.5s-38.167 51.833 -66.5 68.5s-60.5 25 -96.5 25c-102 0 -183.667 -50.667 -245 -152l-200 143
c44.667 80.667 105.667 145.167 183 193.5s171.666 72.5 282.999 72.5c59.333 0 115.833 -9.66699 169.5 -29s101.167 -46.5 142.5 -81.5s74.166 -79.167 98.499 -132.5s36.5 -111.666 36.5 -174.999c0 -82.667 -16.833 -159.334 -50.5 -230.001s-94.5 -151.667 -182.5 -243
l-265 -274v-5z" />
    <glyph glyph-name="three" unicode="3" horiz-adv-x="1113" 
d="M799 726c69.333 -32 123.666 -77.3311 162.999 -135.998s59 -128 59 -208c0 -79.333 -20.5 -149.333 -61.5 -210s-97.5 -107.334 -169.5 -140.001s-153.333 -49 -244 -49c-121.333 0 -226.666 28.667 -315.999 86s-152 131.666 -188 222.999l242 101
c40 -106 121 -159 243 -159c58 0 107.167 17 147.5 51s60.5 79.333 60.5 136c0 54 -20.167 98.833 -60.5 134.5s-97.5 53.5 -171.5 53.5h-101v226h124c60 0 105.333 15.5 136 46.5s46 70.833 46 119.5c0 50 -17.833 91 -53.5 123s-79.834 48 -132.501 48
c-92 0 -160.333 -39.333 -205 -118l-222 119c32.667 74.667 87.667 135 165 181s166.666 69 267.999 69c63.333 0 122.333 -8.33301 177 -25s102.334 -40.667 143.001 -72s72.834 -71 96.501 -119s35.5 -101.333 35.5 -160c0 -67.333 -15.833 -128.333 -47.5 -183
s-76.167 -99 -133.5 -133v-5z" />
    <glyph glyph-name="four" unicode="4" horiz-adv-x="1176" 
d="M648 0v230h-596v177l645 999h224v-938h190v-238h-190v-230h-273zM354 454h313v505z" />
    <glyph glyph-name="five" unicode="5" horiz-adv-x="1134" 
d="M605 907c47.333 0 92.9971 -6.66895 136.997 -20.002s84.167 -33 120.5 -59s67.833 -57 94.5 -93s47.5 -78 62.5 -126s22.5 -99.333 22.5 -154c0 -90.667 -22.167 -172.167 -66.5 -244.5s-104.666 -128.333 -180.999 -168s-161.5 -59.5 -255.5 -59.5
c-98 0 -189 18.833 -273 56.5s-155 92.834 -213 165.501l200 162c65.333 -86.667 156 -130 272 -130c67.333 0 123.333 21.333 168 64s67 95.334 67 158.001c0 35.333 -7.16699 67.333 -21.5 96s-33.166 52 -56.499 70s-49.166 31.667 -77.499 41s-56.833 14 -85.5 14
c-80.667 0 -151 -24 -211 -72l-149 55l43 743h768v-252h-525l-16 -277c67.333 20 126 30 176 30z" />
    <glyph glyph-name="six" unicode="6" 
d="M678 901c59.333 0 115 -10.168 167 -30.501s97.667 -49.166 137 -86.499s70.333 -85 93 -143s34 -122.333 34 -193c0 -90 -22.167 -170.5 -66.5 -241.5s-105 -126 -182 -165s-163.167 -58.5 -258.5 -58.5c-71.333 0 -138 13.667 -200 41s-115.5 65.166 -160.5 113.499
s-80.333 107.833 -106 178.5s-38.5 147.334 -38.5 230.001c0 112.667 18 220.334 54 323.001s86.333 193.5 151 272.5s143.167 146 235.5 201s192.833 92.5 301.5 112.5l81 -224c-129.333 -36.667 -235.833 -86.834 -319.5 -150.501s-145.167 -144.5 -184.5 -242.5l4 -1
c77.333 42.667 163.333 64 258 64zM610 232.999c66 0 120.499 21.668 163.499 65.001s64.5 95.666 64.5 156.999c0 62 -21.167 112.833 -63.5 152.5s-98.166 59.5 -167.499 59.5c-46.667 0 -91.667 -11.667 -135 -35s-80 -53.333 -110 -90v-19c0 -86 24 -155.833 72 -209.5
s106.667 -80.5 176 -80.5z" />
    <glyph glyph-name="seven" unicode="7" horiz-adv-x="1000" 
d="M45 1406h875v-182l-489 -1254l-277 50l461 1135h-570v251z" />
    <glyph glyph-name="eight" unicode="8" horiz-adv-x="1173" 
d="M849 760c74 -27.333 133.998 -73 179.998 -137s69 -142 69 -234c0 -81.333 -22.833 -153.166 -68.5 -215.499s-107.167 -109.666 -184.5 -141.999s-163.666 -48.5 -258.999 -48.5c-96.667 0 -183.5 16.667 -260.5 50s-137.5 81 -181.5 143s-66 133 -66 213
c0 92 22.833 170 68.5 234s105.167 109.667 178.5 137v3c-46.667 20 -87.5 57.167 -122.5 111.5s-52.5 114.833 -52.5 181.5c0 77.333 19.5 144.166 58.5 200.499s91 98.166 156 125.499s138.833 41 221.5 41c84.667 0 159.834 -14.333 225.501 -43s117.5 -71 155.5 -127
s57 -121.667 57 -197c0 -66.667 -17.333 -127 -52 -181s-75.667 -91.333 -123 -112v-3zM585.998 1193c-34 0 -64.833 -7.33496 -92.5 -22.002s-49 -34.334 -64 -59.001s-22.5 -51.667 -22.5 -81c0 -30.667 7.66699 -58.167 23 -82.5s36.5 -43.166 63.5 -56.499
s57.833 -20 92.5 -20c53.333 0 96.666 14.833 129.999 44.5s50 67.834 50 114.501s-17.167 85.334 -51.5 116.001s-77.166 46 -128.499 46zM585.998 220.998c66 0 120.333 20.001 163 60.001s64 88 64 144c0 39.333 -9.5 74.666 -28.5 105.999s-45.667 55.833 -80 73.5
s-73.833 26.5 -118.5 26.5c-66.667 0 -121.167 -19.333 -163.5 -58s-63.5 -88 -63.5 -148c0 -58 21.833 -106.5 65.5 -145.5s97.5 -58.5 161.5 -58.5z" />
    <glyph glyph-name="nine" unicode="9" horiz-adv-x="1191" 
d="M587 1423c41.333 0 81.501 -4.49902 120.501 -13.499s75.333 -22.167 109 -39.5s65 -38.333 94 -63s54.833 -53 77.5 -85s42.167 -66.667 58.5 -104s28.666 -78 36.999 -122s12.5 -89.667 12.5 -137c0 -114.667 -18.5 -223.334 -55.5 -326.001
s-88.333 -193.334 -154 -272.001s-145 -145.167 -238 -199.5s-194.167 -91.833 -303.5 -112.5l-82 225c132 36.667 240.5 86.667 325.5 150s147.5 144.666 187.5 243.999l-2 1c-78.667 -44 -165.667 -66 -261 -66c-47.333 0 -92.333 6.33301 -135 19s-82 31.834 -118 57.501
s-67.167 56.334 -93.5 92.001s-46.833 77.667 -61.5 126s-22 100.833 -22 157.5c0 68 13 131.167 39 189.5s61.5 107.833 106.5 148.5s98.5 72.5 160.5 95.5s128 34.5 198 34.5zM356.001 950.001c0 -62.667 20.667 -113.834 62 -153.501s97 -59.5 167 -59.5
c46.667 0 91.667 11.833 135 35.5s80 54.167 110 91.5v17c0 86.667 -22.5 156.834 -67.5 210.501s-102.167 80.5 -171.5 80.5c-70 0 -126.667 -21.5 -170 -64.5s-65 -95.5 -65 -157.5z" />
    <glyph glyph-name="colon" unicode=":" horiz-adv-x="555" 
d="M274 689c-46.667 0 -86.167 15.832 -118.5 47.499s-48.5 70.167 -48.5 115.5s16.167 84 48.5 116s71.833 48 118.5 48c29.333 0 56.666 -7.33301 81.999 -22s45.5 -34.667 60.5 -60s22.5 -52.666 22.5 -81.999c0 -44.667 -16.167 -83 -48.5 -115
s-71.166 -48 -116.499 -48zM274 -17.001c-46.667 0 -86.167 15.832 -118.5 47.499s-48.5 70.167 -48.5 115.5s16.167 84 48.5 116s71.833 48 118.5 48c29.333 0 56.666 -7.33301 81.999 -22s45.5 -34.667 60.5 -60s22.5 -52.666 22.5 -81.999
c0 -44.667 -16.167 -83 -48.5 -115s-71.166 -48 -116.499 -48z" />
    <glyph glyph-name="semicolon" unicode=";" horiz-adv-x="517" 
d="M249 688c-46.667 0 -86.167 15.833 -118.5 47.5s-48.5 70.167 -48.5 115.5s16.167 84 48.5 116s71.833 48 118.5 48c45.333 0 84.166 -16.167 116.499 -48.5s48.5 -70.833 48.5 -115.5s-16.167 -83 -48.5 -115s-71.166 -48 -116.499 -48zM52 -272l63 533h274l-142 -533
h-195z" />
    <glyph glyph-name="less" unicode="&#x3c;" horiz-adv-x="1187" 
d="M1059 54l-951 409v192l951 417v-258l-606 -252l606 -257v-251z" />
    <glyph glyph-name="equal" unicode="=" horiz-adv-x="1209" 
d="M130 685v234h972v-234h-972zM130 215v234h972v-234h-972z" />
    <glyph glyph-name="greater" unicode="&#x3e;" horiz-adv-x="1187" 
d="M128 54v251l606 257l-606 252v258l951 -417v-192z" />
    <glyph glyph-name="question" unicode="?" horiz-adv-x="959" 
d="M286 473l-1 102.001c0 16 1.5 31.667 4.5 47s6.33301 29 10 41s9.83398 25.667 18.501 41s15.834 27.333 21.501 36s15 20.667 28 36s22.5 26.333 28.5 33s16.833 18.167 32.5 34.5s25.834 27.166 30.501 32.499c20 21.333 36.333 39.333 49 54
s26.167 32.334 40.5 53.001s24.833 41.667 31.5 63s10 43 10 65c0 50 -15 89 -45 117s-69.667 42 -119 42c-38.667 0 -76.5 -9.83301 -113.5 -29.5s-68.167 -46.5 -93.5 -80.5l-191 177c46.667 58 107.167 103.833 181.5 137.5s153.833 50.5 238.5 50.5
c58.667 0 113.667 -8.33301 165 -25s97.166 -41 137.499 -73s72.166 -73.833 95.499 -125.5s35 -110.167 35 -175.5c0 -38 -4.83301 -74.333 -14.5 -109s-23.834 -66.834 -42.501 -96.501s-37.334 -55.5 -56.001 -77.5s-41.334 -45.667 -68.001 -71
c-8.66699 -8 -22 -20.333 -40 -37s-31.333 -29 -40 -37s-19.667 -19 -33 -33s-23.166 -25.833 -29.499 -35.5s-12.166 -20.667 -17.499 -33s-8.33301 -24.5 -9 -36.5l-7 -87h-238zM410 -16.999c-46.667 0 -86.167 15.832 -118.5 47.499s-48.5 70.167 -48.5 115.5
s16.167 84 48.5 116s71.833 48 118.5 48c29.333 0 56.666 -7.33301 81.999 -22s45.5 -34.667 60.5 -60s22.5 -52.666 22.5 -81.999c0 -44.667 -16.167 -83 -48.5 -115s-71.166 -48 -116.499 -48z" />
    <glyph glyph-name="at" unicode="@" horiz-adv-x="1839" 
d="M1365 955l-55.9961 -529.006c-1.33301 -24 -2 -40.333 -2 -49c0 -34.667 5.66699 -59 17 -73s29.333 -21 54 -21c26.667 0 51.5 10.833 74.5 32.5s41.667 48.834 56 81.501s25.5 66.834 33.5 102.501s12 68.834 12 99.501c0 76.667 -13.333 149.667 -40 219
s-64 130 -112 182s-107.833 93.333 -179.5 124s-149.834 46 -234.501 46c-70 0 -135.833 -7.5 -197.5 -22.5s-115.834 -35.333 -162.501 -61s-89.334 -56.334 -128.001 -92.001s-71 -73.667 -97 -114s-48 -83 -66 -128s-31 -89.5 -39 -133.5s-12 -87.667 -12 -131
c0 -82 15.5 -160.5 46.5 -235.5s72.167 -139.333 123.5 -193s111.666 -96.334 180.999 -128.001s141 -47.5 215 -47.5c137.333 0 276.666 35 417.999 105l83 -139c-152 -102 -319 -153 -501 -153c-107.333 0 -208 20 -302 60s-174.833 94.667 -242.5 164
s-121 153.333 -160 252s-58.5 204.334 -58.5 317.001c0 50.667 4.83301 102.834 14.5 156.501s25.667 108.834 48 165.501s49.666 110.834 81.999 162.501s73 100.667 122 147s103.5 86.5 163.5 120.5s130.167 61 210.5 81s166.5 30 258.5 30
c116 0 222.333 -19.167 319 -57.5s177.334 -91.166 242.001 -158.499s114.834 -147 150.501 -239s53.5 -191.333 53.5 -298c0 -28.667 -2 -58 -6 -88s-10.833 -62.333 -20.5 -97s-22 -67.5 -37 -98.5s-34.667 -61 -59 -90s-51.833 -54 -82.5 -75s-67.667 -37.833 -111 -50.5
s-90.333 -19 -141 -19c-79.333 0 -141 23 -185 69c-22.667 19.333 -39 48.333 -49 87h-4c-16.667 -24.667 -39.167 -47.334 -67.5 -68.001s-59.333 -37 -93 -49s-65.834 -18 -96.501 -18c-101.333 0 -183 35.667 -245 107s-93 165.333 -93 282c0 25.333 2 52.166 6 80.499
s10.833 58 20.5 89s21.5 61.167 35.5 90.5s31.5 57.333 52.5 84s44.333 49.834 70 69.501s56 35.334 91 47.001s72.167 17.5 111.5 17.5c102.667 0 181.334 -43.667 236.001 -131h4l13 116h262zM881.004 333.994c37.333 0 71.333 10.5 102 31.5s54.667 49 72 84
s26 72.5 26 112.5c0 52 -14.5 94.5 -43.5 127.5s-65.167 49.5 -108.5 49.5c-56.667 0 -104.667 -21.833 -144 -65.5s-59 -96.834 -59 -159.501c0 -53.333 14.833 -96.666 44.5 -129.999s66.5 -50 110.5 -50z" />
    <glyph glyph-name="A" unicode="A" horiz-adv-x="1430" 
d="M1095 0l-99 291h-558l-99 -291h-301l539 1455h278l541 -1455h-301zM521 537h391l-195 571h-2z" />
    <glyph glyph-name="B" unicode="B" horiz-adv-x="1319" 
d="M942 771c93.333 -23.333 165.332 -66.833 215.999 -130.5s76 -143.167 76 -238.5c0 -58.667 -9.83301 -112.334 -29.5 -161.001s-48.667 -91 -87 -127s-87.666 -64 -147.999 -84s-129.5 -30 -207.5 -30h-602v1455h525c154.667 0 272.5 -30.333 353.5 -91
s121.5 -148.667 121.5 -264c0 -45.333 -7 -88.166 -21 -128.499s-37.667 -78.333 -71 -114s-75.333 -63.167 -126 -82.5v-4zM442.999 1200v-341.001h206c40 0 76 5.83301 108 17.5s58.5 30.667 79.5 57s31.5 58.833 31.5 97.5c0 34.667 -8 64.334 -24 89.001
s-42 44.167 -78 58.5s-81.333 21.5 -136 21.5h-187zM674.999 252.999c52 0 97.167 6.83008 135.5 20.4971s68.5 34.334 90.5 62.001s33 61.834 33 102.501c0 58.667 -21.833 104.834 -65.5 138.501s-107.167 50.5 -190.5 50.5h-235v-374h232z" />
    <glyph glyph-name="C" unicode="C" horiz-adv-x="1486" 
d="M842 -15c-80 0 -156.668 9.99902 -230.001 29.999s-141 50.667 -203 92s-115.833 90.833 -161.5 148.5s-81.5 126.5 -107.5 206.5s-39 167 -39 261c0 83.333 10.333 162.5 31 237.5s51.834 143.5 93.501 205.5s91.667 115.833 150 161.5s127.333 81.167 207 106.5
s166.167 38 259.5 38c68.667 0 136.334 -9.33301 203.001 -28s133.167 -49.334 199.5 -92.001s125.166 -95.667 176.499 -159l-211 -180c-45.333 54.667 -100 99.167 -164 133.5s-132 51.5 -204 51.5c-36 0 -70.667 -3.66699 -104 -11s-64.666 -18.166 -93.999 -32.499
s-56.5 -31.666 -81.5 -51.999s-47.333 -43.833 -67 -70.5s-36.5 -55.834 -50.5 -87.501s-24.667 -66.167 -32 -103.5s-11 -76.666 -11 -117.999c0 -89.333 18.5 -169.333 55.5 -240s89 -125.834 156 -165.501s143.167 -59.5 228.5 -59.5c72.667 0 141 16.667 205 50
s118.333 78 163 134l211 -181c-66.667 -83.333 -149.334 -150.166 -248.001 -200.499s-209 -75.5 -331 -75.5z" />
    <glyph glyph-name="D" unicode="D" horiz-adv-x="1496" 
d="M160 0l0.000976562 1455h481c113.333 0 217.166 -18 311.499 -54s174 -85.833 239 -149.5s115.333 -140.667 151 -231s53.5 -188.833 53.5 -295.5s-17.167 -204.667 -51.5 -294s-83.333 -165.833 -147 -229.5s-142.5 -113.167 -236.5 -148.5s-198.667 -53 -314 -53h-487z
M444.001 257h185.001c69.333 0 133.333 12 192 36s108.167 56.833 148.5 98.5s71.666 91.167 93.999 148.5s33.5 119 33.5 185c0 90 -19.167 171 -57.5 243s-91.833 128.167 -160.5 168.5s-146 60.5 -232 60.5h-203v-940z" />
    <glyph glyph-name="E" unicode="E" horiz-adv-x="1228" 
d="M159 0v1455h930v-258h-646v-349h518v-254h-518v-337h689v-257h-973z" />
    <glyph glyph-name="F" unicode="F" horiz-adv-x="1204" 
d="M160 0v1455h965v-258h-681v-389h568v-257h-568v-551h-284z" />
    <glyph glyph-name="G" unicode="G" horiz-adv-x="1542" 
d="M843 -14c-104.667 0 -202.17 16.833 -292.503 50.5s-168.833 81.5 -235.5 143.5s-119 139.833 -157 233.5s-57 197.5 -57 311.5c0 106 17 204.667 51 296s81.833 170.333 143.5 237s138.5 119 230.5 157s193.667 57 305 57c107.333 0 212.333 -21.167 315 -63.5
s190.334 -104.166 263.001 -185.499l-204 -173c-104 100.667 -228.667 151 -374 151c-60 0 -116 -11 -168 -33s-97.5 -53 -136.5 -93s-69.667 -90.167 -92 -150.5s-33.5 -126.833 -33.5 -199.5c0 -89.333 17.667 -169.833 53 -241.5s86.833 -128.667 154.5 -171
s145.834 -63.5 234.501 -63.5c108 0 206.333 27.667 295 83v214h-327v247h605v-627c-67.333 -54.667 -152.166 -98.334 -254.499 -131.001s-208.5 -49 -318.5 -49z" />
    <glyph glyph-name="H" unicode="H" horiz-adv-x="1493" 
d="M160 0v1455h289v-630h595v630h290v-1455h-290v568h-595v-568h-289z" />
    <glyph glyph-name="I" unicode="I" horiz-adv-x="628" 
d="M169 0v1455h290v-1455h-290z" />
    <glyph glyph-name="J" unicode="J" horiz-adv-x="1036" 
d="M448 -14c-75.333 0 -148.665 16.167 -219.998 48.5s-131 79.5 -179 141.5l164 203c27.333 -36 60.5 -65.833 99.5 -89.5s77.833 -35.5 116.5 -35.5c118 0 177 84.333 177 253v948h289v-943c0 -54.667 -3.5 -105 -10.5 -151s-18 -88.833 -33 -128.5
s-34.333 -74.5 -58 -104.5s-51.834 -55.667 -84.501 -77s-70.834 -37.5 -114.501 -48.5s-92.5 -16.5 -146.5 -16.5z" />
    <glyph glyph-name="K" unicode="K" horiz-adv-x="1364" 
d="M591 583h-3l-141 -169v-414h-287v1455h287v-641h2l503 641h364l-536 -642l554 -813h-355z" />
    <glyph glyph-name="L" unicode="L" horiz-adv-x="1159" 
d="M160 0v1455h288v-1198h647v-257h-935z" />
    <glyph glyph-name="M" unicode="M" horiz-adv-x="1795" 
d="M1345 1455h290v-1455h-286v904h-3l-355 -628h-187l-355 628h-3v-904h-286v1455h290l447 -828h4z" />
    <glyph glyph-name="N" unicode="N" horiz-adv-x="1546" 
d="M1098 1455h288v-1455h-295l-640 964h-4v-964h-287v1455h287l647 -983h4v983z" />
    <glyph glyph-name="O" unicode="O" horiz-adv-x="1682" 
d="M842 -17c-108.667 0 -209.168 18.668 -301.501 56.001s-170.666 88.666 -234.999 153.999s-114.666 144.166 -150.999 236.499s-54.5 191.833 -54.5 298.5s18.167 206 54.5 298s86.666 170.667 150.999 236s142.833 116.666 235.5 153.999s193 56 301 56
c106 0 204.5 -18.167 295.5 -54.5s169.167 -86.666 234.5 -150.999s116.666 -142.833 153.999 -235.5s56 -193.667 56 -303s-18.667 -210.5 -56 -303.5s-88.666 -171.667 -153.999 -236s-143.5 -114.666 -234.5 -150.999s-189.5 -54.5 -295.5 -54.5zM842.999 251.001
c62 0 120.167 11.998 174.5 35.998s101 57 140 99s69.667 92.667 92 152s33.5 122.666 33.5 189.999c0 90 -19.167 171.333 -57.5 244s-91 129.334 -158 170.001s-141.833 61 -224.5 61c-85.333 0 -162 -21.167 -230 -63.5s-120.5 -99.666 -157.5 -171.999
s-55.5 -152.166 -55.5 -239.499c0 -88 18.5 -168.167 55.5 -240.5s89.5 -129.833 157.5 -172.5s144.667 -64 230 -64z" />
    <glyph glyph-name="P" unicode="P" horiz-adv-x="1278" 
d="M160 0v1455h538c86 0 161.833 -12 227.5 -36s118.5 -58 158.5 -102s70 -95 90 -153s30 -122.667 30 -194c0 -78.667 -12.667 -148 -38 -208s-61.5 -109.333 -108.5 -148s-103 -67.667 -168 -87s-137.833 -29 -218.5 -29h-227v-498h-284zM444 753h191
c88 0 155.167 20 201.5 60s69.5 94.333 69.5 163s-22.5 123 -67.5 163s-108.833 60 -191.5 60h-203v-446z" />
    <glyph glyph-name="Q" unicode="Q" horiz-adv-x="1715" 
d="M1622 150l-151 -194l-180 164c-126.667 -91.333 -276 -137 -448 -137c-108.667 0 -209.167 18.667 -301.5 56s-170.666 88.833 -234.999 154.5s-114.666 144.5 -150.999 236.5s-54.5 191.333 -54.5 298s18.167 206 54.5 298s86.666 170.667 150.999 236
s142.833 116.666 235.5 153.999s193 56 301 56c106 0 204.5 -18.167 295.5 -54.5s169.167 -86.666 234.5 -150.999s116.666 -142.833 153.999 -235.5s56 -193.667 56 -303c0 -165.333 -41 -310 -123 -434zM843 251c85.333 0 162.666 22.0029 231.999 66.0029l-133 121
l150 182l140 -124c34 71.333 51 148.666 51 231.999c0 87.333 -18.333 167.166 -55 239.499s-88.667 129.666 -156 171.999s-143.666 63.5 -228.999 63.5c-62.667 0 -121.334 -12 -176.001 -36s-101.667 -57 -141 -99s-70.166 -92.333 -92.499 -151
s-33.5 -121.667 -33.5 -189c0 -54 7.16699 -105.5 21.5 -154.5s34.833 -93 61.5 -132s58 -72.833 94 -101.5s76.833 -50.667 122.5 -66s93.5 -23 143.5 -23z" />
    <glyph glyph-name="R" unicode="R" horiz-adv-x="1346" 
d="M1278 0l-340.998 0.000976562l-326 498h-167v-498h-284v1455h550c85.333 0 160.833 -12 226.5 -36s118.667 -58 159 -102s70.666 -95 90.999 -153s30.5 -122.667 30.5 -194c0 -76 -12.167 -143.5 -36.5 -202.5s-58.333 -107.833 -102 -146.5
s-96.834 -68.334 -159.501 -89.001v-4zM444.002 1199l0.00195312 -447h202c87.333 0 154.666 20.167 201.999 60.5s71 94.833 71 163.5s-22.833 123 -68.5 163s-109.834 60 -192.501 60h-214z" />
    <glyph glyph-name="S" unicode="S" horiz-adv-x="1196" 
d="M597 -17c-96.667 0 -190.497 19.001 -281.497 57.001s-173.833 95.333 -248.5 172l173 213c26.667 -30.667 55.5 -57.667 86.5 -81s62 -42.333 93 -57s61.833 -25.667 92.5 -33s60.667 -11 90 -11c45.333 0 83.833 6.66699 115.5 20s55.167 31.333 70.5 54
s23 49.334 23 80.001c0 21.333 -3.33301 40.333 -10 57s-15.834 31.334 -27.501 44.001s-28.667 25.167 -51 37.5s-45.5 23.333 -69.5 33s-55.667 21.167 -95 34.5c-35.333 12.667 -66.666 24.334 -93.999 35.001s-57 24.167 -89 40.5s-59.667 32.666 -83 48.999
s-46.5 36 -69.5 59s-41.667 47.333 -56 73s-26 55.334 -35 89.001s-13.5 69.5 -13.5 107.5c0 76.667 20.667 146.667 62 210s97.666 113.166 168.999 149.499s150 55.166 236 56.499c176 2 339.333 -59 490 -183l-166 -217c-116.667 95.333 -222.334 143 -317.001 143
c-51.333 0 -93.166 -13 -125.499 -39s-48.833 -61.667 -49.5 -107c0 -18 3.33301 -34.333 10 -49s15.667 -27.834 27 -39.501s28.166 -23.667 50.499 -36s44.666 -23.333 66.999 -33s52.5 -21.834 90.5 -36.501c121.333 -47.333 201.666 -81.666 240.999 -102.999
c90.667 -49.333 151 -110.333 181 -183c18.667 -45.333 28 -98 28 -158c0 -61.333 -10.333 -117.5 -31 -168.5s-48 -93.333 -82 -127s-73.5 -62.334 -118.5 -86.001s-91.167 -40.667 -138.5 -51s-95.666 -15.5 -144.999 -15.5z" />
    <glyph glyph-name="T" unicode="T" horiz-adv-x="1210" 
d="M461 0v1197h-401v258h1091v-258h-403v-1197h-287z" />
    <glyph glyph-name="U" unicode="U" horiz-adv-x="1461" 
d="M728 -17c-87.333 0 -167.17 13.833 -239.503 41.5s-134.166 67.334 -185.499 119.001s-91.166 116.5 -119.499 194.5s-42.5 166 -42.5 264v853h289v-834c0 -70.667 11.333 -133.5 34 -188.5s56.834 -98.667 102.501 -131s99.5 -48.5 161.5 -48.5
c90 0 163 32.833 219 98.5s84 155.5 84 269.5v834h288v-853c0 -126 -23.167 -235.333 -69.5 -328s-114 -164.334 -203 -215.001s-195.167 -76 -318.5 -76z" />
    <glyph glyph-name="V" unicode="V" horiz-adv-x="1418" 
d="M1069 1455h309l-538 -1455h-254l-540 1455h312l352 -1045h3z" />
    <glyph glyph-name="W" unicode="W" horiz-adv-x="2116" 
d="M1755 1455h307l-458 -1455h-267l-274 1035h-3l-283 -1035h-266l-458 1455h307l283 -984h4l259 984h305l257 -984h4z" />
    <glyph glyph-name="X" unicode="X" horiz-adv-x="1437" 
d="M1048 0l-327 509h-3l-329 -509h-336l476 730l-462 725h330l320 -501h5l319 501h329l-460 -724l475 -731h-337z" />
    <glyph glyph-name="Y" unicode="Y" horiz-adv-x="1295" 
d="M942 1455h333l-484 -816v-639h-291v639l-481 816h330l296 -531h4z" />
    <glyph glyph-name="Z" unicode="Z" horiz-adv-x="1277" 
d="M473 257h694v-257h-1062v225l678 965v7h-650v258h1032v-220l-692 -971v-7z" />
    <glyph glyph-name="bracketleft" unicode="[" horiz-adv-x="707" 
d="M126 -303v1805h487v-200h-256v-1404h256v-201h-487z" />
    <glyph glyph-name="backslash" unicode="\" horiz-adv-x="908" 
d="M762 -229l-780 1748l198 92l782 -1748z" />
    <glyph glyph-name="bracketright" unicode="]" horiz-adv-x="707" 
d="M581 -303h-487v201h256v1404h-256v200h487v-1805z" />
    <glyph glyph-name="asciicircum" unicode="^" horiz-adv-x="956" 
d="M104 1023l279 432h189l281 -432h-218l-157 263l-164 -263h-210z" />
    <glyph glyph-name="underscore" unicode="_" horiz-adv-x="1092" 
d="M-5 -236v180h1101v-180h-1101z" />
    <glyph glyph-name="grave" unicode="`" horiz-adv-x="1020" 
d="M470 1096l-253 302l281 -1l231 -301h-259z" />
    <glyph glyph-name="a" unicode="a" horiz-adv-x="1244" 
d="M849 1000h268v-1000h-255v121h-5c-71.333 -92 -171 -138 -299 -138c-68.667 0 -132.5 12.333 -191.5 37s-109.667 59.167 -152 103.5s-75.5 98.666 -99.5 162.999s-36 134.5 -36 210.5c0 74.667 12 144.334 36 209.001s56.833 119.667 98.5 165s91.667 81 150 107
s120.5 39 186.5 39c122 0 220.333 -43.333 295 -130h4v113zM607 223c71.333 0 131.334 25.333 180.001 76s73 116.334 73 197.001c0 80 -23.833 146.667 -71.5 200s-107.834 80 -180.501 80c-73.333 0 -134.5 -25.667 -183.5 -77s-73.5 -119 -73.5 -203
c0 -80.667 23.833 -146.334 71.5 -197.001s109.167 -76 184.5 -76z" />
    <glyph glyph-name="b" unicode="b" horiz-adv-x="1264" 
d="M711 1017c66 0 128.167 -13 186.5 -39s108.333 -61.667 150 -107s74.5 -100.333 98.5 -165s36 -134.334 36 -209.001c0 -76 -12 -146.167 -36 -210.5s-57.167 -118.666 -99.5 -162.999s-93 -78.833 -152 -103.5s-122.833 -37 -191.5 -37c-131.333 0 -233.333 46 -306 138
h-5v-121h-256v1508h268v-621h5c75.333 86.667 176 130 302 130zM654 223c75.333 0 136.833 25.333 184.5 76s71.5 116.334 71.5 197.001c0 84 -24.333 151.667 -73 203s-109.667 77 -183 77c-76.667 0 -139.667 -26.5 -189 -79.5s-74 -119.833 -74 -200.5
s25.167 -146.334 75.5 -197.001s112.833 -76 187.5 -76z" />
    <glyph glyph-name="c" unicode="c" horiz-adv-x="1088" 
d="M595 -17c-98 0 -186.001 21.498 -264.001 64.498s-139.167 103.833 -183.5 182.5s-66.5 168.334 -66.5 269.001c0 101.333 22.333 191.333 67 270s107 139.667 187 183s171 65 273 65c82 0 161 -16.5 237 -49.5s138.667 -80.5 188 -142.5l-181 -156
c-61.333 71.333 -139 107 -233 107c-39.333 0 -75.666 -6.83301 -108.999 -20.5s-61.5 -32.5 -84.5 -56.5s-40.833 -53 -53.5 -87s-19 -71 -19 -111c0 -82 24.833 -148.667 74.5 -200s114.167 -77 193.5 -77c49.333 0 93.833 9.5 133.5 28.5s72.5 43.167 98.5 72.5l184 -162
c-46 -53.333 -107.167 -96.666 -183.5 -129.999s-162.5 -50 -258.5 -50z" />
    <glyph glyph-name="d" unicode="d" horiz-adv-x="1261" 
d="M858 1508h268v-1508h-255v121h-6c-72.667 -92 -174.667 -138 -306 -138c-39.333 0 -77.333 4 -114 12s-70.834 20 -102.501 36s-61.167 35 -88.5 57s-51.666 47.667 -72.999 77s-39.5 61 -54.5 95s-26.5 71.167 -34.5 111.5s-12 82.166 -12 125.499
c0 74.667 12 144.334 36 209.001s56.833 119.667 98.5 165s91.667 81 150 107s120.5 39 186.5 39c126 0 226.667 -43.333 302 -130h5v621zM608 223c48.667 0 93 11.168 133 33.501s71.833 54.5 95.5 96.5s35.5 89.667 35.5 143c0 80 -24.833 146.667 -74.5 200
s-112.5 80 -188.5 80c-73.333 0 -134.5 -25.667 -183.5 -77s-73.5 -119 -73.5 -203c0 -80.667 23.833 -146.334 71.5 -197.001s109.167 -76 184.5 -76z" />
    <glyph glyph-name="e" unicode="e" horiz-adv-x="1146" 
d="M1068 509c0 -47.333 -2.33691 -79.333 -7.00391 -96h-701c16 -59.333 46.5 -106 91.5 -140s99.5 -51.333 163.5 -52c96.667 -0.666992 176.334 37 239.001 113l174 -162c-45.333 -57.333 -104.666 -103.166 -177.999 -137.499s-158 -51.5 -254 -51.5
c-97.333 0 -185 21.167 -263 63.5s-139.5 103.166 -184.5 182.499s-67.5 170 -67.5 272c0 74.667 12.667 144.167 38 208.5s59.833 119 103.5 164s96.167 80.167 157.5 105.5s127 38 197 38c96.667 0 182.334 -21.833 257.001 -65.5s132.334 -104 173.001 -181
s61 -164.167 61 -261.5zM585.996 781c-55.333 0 -102.832 -15 -142.499 -45s-67.167 -73.333 -82.5 -130h441c-14 54.667 -39.333 97.5 -76 128.5s-83.334 46.5 -140.001 46.5z" />
    <glyph glyph-name="f" unicode="f" horiz-adv-x="713" 
d="M173 0v778.001h-106v222h106v172c0 76.667 12.5 141.5 37.5 194.5s60.833 92.667 107.5 119s103 39.5 169 39.5c54.667 0 104.5 -7.33301 149.5 -22s81.5 -31.334 109.5 -50.001l-54 -210c-60 29.333 -110 44 -150 44c-67.333 0 -101 -45 -101 -135v-152h223v-222h-223
v-778h-268z" />
    <glyph glyph-name="g" unicode="g" horiz-adv-x="1239" 
d="M845 1000l267.998 -0.000976562v-885c0 -64 -5.66699 -122.667 -17 -176s-30 -102.5 -56 -147.5s-59 -83.167 -99 -114.5s-89.5 -55.666 -148.5 -72.999s-126.167 -26 -201.5 -26c-156 0 -292.667 33.667 -410 101l62 226c54.667 -30 107.667 -53 159 -69
s106.666 -24 165.999 -24c90 0 159.667 21 209 63s74 95 74 159v101h-5c-74 -78 -171 -117 -291 -117c-91.333 0 -173.166 20.667 -245.499 62s-129 99.5 -170 174.5s-61.5 160.167 -61.5 255.5c0 96.667 19.833 183.667 59.5 261s94.834 137.666 165.501 180.999
s150 65 238 65c57.333 0 111.833 -10.167 163.5 -30.5s96.834 -50.166 135.501 -89.499h5v103zM603.998 260.999c74 0 134.667 24.334 182 73.001s71 110.667 71 186s-24.167 136.333 -72.5 183s-108.5 70 -180.5 70c-74.667 0 -135.667 -23.667 -183 -71
s-71 -108.666 -71 -183.999c0 -31.333 4.16699 -60.5 12.5 -87.5s20.166 -50.833 35.499 -71.5s33.5 -38.334 54.5 -53.001s44.333 -25.834 70 -33.501s52.834 -11.5 81.501 -11.5z" />
    <glyph glyph-name="h" unicode="h" horiz-adv-x="1222" 
d="M733 1017c56 0 105.831 -7.5 149.498 -22.5s82.167 -38.5 115.5 -70.5s59 -75.167 77 -129.5s27 -118.833 27 -193.5v-602h-269v534c0 88.667 -15.833 151.334 -47.5 188.001s-80.834 55 -147.501 55c-73.333 0 -130.666 -22.833 -171.999 -68.5s-62 -112.5 -62 -200.5
v-507h-268v1508h268v-629h4c40.667 45.333 88.834 79.666 144.501 102.999s115.834 35 180.501 35z" />
    <glyph glyph-name="i" unicode="i" horiz-adv-x="564" 
d="M282 1141c-30 0 -57.832 7.33301 -83.499 22s-45.834 34.5 -60.501 59.5s-22 52.5 -22 82.5c0 44.667 16.167 83 48.5 115s71.5 48 117.5 48c45.333 0 84.333 -16 117 -48s49 -70.333 49 -115c0 -45.333 -16.333 -84 -49 -116s-71.667 -48 -117 -48zM148.001 0v1000h268
v-1000h-268z" />
    <glyph glyph-name="j" unicode="j" horiz-adv-x="527" 
d="M264 1147c-30 0 -57.832 7.33301 -83.499 22s-45.834 34.5 -60.501 59.5s-22 52.5 -22 82.5c0 44.667 16.167 83 48.5 115s71.5 48 117.5 48c45.333 0 84.333 -16 117 -48s49 -70.333 49 -115c0 -45.333 -16.333 -84 -49 -116s-71.667 -48 -117 -48zM106.001 -422
c-44 0 -81.501 2.66797 -112.501 8.00098s-63.167 14.666 -96.5 27.999l45 223c29.333 -16.667 59 -25 89 -25c32.667 0 57.834 11.667 75.501 35s26.5 58 26.5 104v1049h268v-1060c0 -117.333 -26.5 -207 -79.5 -269s-124.833 -93 -215.5 -93z" />
    <glyph glyph-name="k" unicode="k" horiz-adv-x="1104" 
d="M547 398h-3l-141 -159v-239h-268v1508h268v-911h4l357 403h314l-353 -398l359 -602h-299z" />
    <glyph glyph-name="l" unicode="l" horiz-adv-x="563" 
d="M148 0v1508h268v-1508h-268z" />
    <glyph glyph-name="m" unicode="m" horiz-adv-x="1827" 
d="M1353 1017c112 0 198.832 -35.667 260.499 -107s92.5 -181 92.5 -329v-582h-268v517c0 173.333 -58.333 260 -175 260c-38 0 -72.333 -10.333 -103 -31s-55.167 -52.167 -73.5 -94.5s-27.5 -92.5 -27.5 -150.5v-501h-268v517c0 173.333 -59 260 -177 260
c-40.667 0 -76.667 -10.333 -108 -31s-56.333 -52.167 -75 -94.5s-28 -92.5 -28 -150.5v-500h-268v1000h268v-132h3c39.333 48 85 84.833 137 110.5s106 38.5 162 38.5c139.333 0 238.333 -53.667 297 -161h3c40.667 52 90.834 91.833 150.501 119.5s125.5 41.5 197.5 41.5z
" />
    <glyph glyph-name="n" unicode="n" horiz-adv-x="1212" 
d="M728 1017c55.333 0 104.498 -7.83398 147.498 -23.501s81 -39.834 114 -72.501s58.167 -76.667 75.5 -132s26 -120.666 26 -195.999v-594h-268v527c0 92 -15.667 156.667 -47 194s-79.666 56 -144.999 56c-69.333 0 -124.5 -23.667 -165.5 -71
s-61.5 -114.666 -61.5 -201.999v-503h-268v1000h268v-129h3c40.667 47.333 88.834 83.5 144.501 108.5s114.5 37.5 176.5 37.5z" />
    <glyph glyph-name="o" unicode="o" horiz-adv-x="1225" 
d="M613 -17c-62.667 0 -121.667 8.33301 -177 25s-104.5 40.334 -147.5 71.001s-80.167 67.167 -111.5 109.5s-55.166 89.833 -71.499 142.5s-24.5 108.667 -24.5 168c0 74 12.833 143 38.5 207s61.5 118.833 107.5 164.5s102.333 81.5 169 107.5s139 39 217 39
c76.667 0 148 -12.667 214 -38s122.333 -60.5 169 -105.5s83.167 -99.667 109.5 -164s39.5 -134.5 39.5 -210.5c0 -100.667 -22.667 -190.334 -68 -269.001s-108.333 -139.5 -189 -182.5s-172.334 -64.5 -275.001 -64.5zM613 223c73.333 0 134.999 26 184.999 78
s75 118 75 198c0 81.333 -24.667 147.833 -74 199.5s-111.333 77.5 -186 77.5c-77.333 0 -140.166 -26.167 -188.499 -78.5s-72.5 -118.5 -72.5 -198.5c0 -78 24.5 -143.5 73.5 -196.5s111.5 -79.5 187.5 -79.5z" />
    <glyph glyph-name="p" unicode="p" horiz-adv-x="1264" 
d="M711 1017c52.667 0 103.167 -8.16797 151.5 -24.501s91.833 -40 130.5 -71s72.167 -67.667 100.5 -110s50.166 -90.333 65.499 -144s23 -110.5 23 -170.5c0 -76 -12 -146.167 -36 -210.5s-57.167 -118.666 -99.5 -162.999s-93 -78.833 -152 -103.5
s-122.833 -37 -191.5 -37c-125.333 0 -223.666 43 -294.999 129h-4v-517h-268v1405h268v-115h4c74.667 88 175.667 132 303 132zM654 222.999c75.333 0 136.832 25.333 184.499 76s71.5 116.334 71.5 197.001c0 84 -24.333 151.667 -73 203s-109.667 77 -183 77
c-38 0 -73.167 -7.16699 -105.5 -21.5s-59.833 -33.833 -82.5 -58.5s-40.5 -54.334 -53.5 -89.001s-19.5 -71.667 -19.5 -111c0 -53.333 11.5 -101 34.5 -143s54.333 -74.167 94 -96.5s83.834 -33.5 132.501 -33.5z" />
    <glyph glyph-name="q" unicode="q" horiz-adv-x="1258" 
d="M860 1000l267.999 0.000976562v-1405h-267v519h-4c-72.667 -87.333 -171.667 -131 -297 -131c-68.667 0 -132.5 12.333 -191.5 37s-109.667 59.167 -152 103.5s-75.5 98.666 -99.5 162.999s-36 134.5 -36 210.5c0 151.333 44.833 275.833 134.5 373.5
s201.834 146.5 336.501 146.5c127.333 0 228.333 -44 303 -132h5v115zM608.999 223.001c74.667 0 136.833 25.333 186.5 76s74.5 116.334 74.5 197.001s-24.333 147.5 -73 200.5s-111 79.5 -187 79.5c-73.333 0 -134.5 -25.667 -183.5 -77s-73.5 -119 -73.5 -203
c0 -80.667 23.833 -146.334 71.5 -197.001s109.167 -76 184.5 -76z" />
    <glyph glyph-name="r" unicode="r" horiz-adv-x="768" 
d="M709 1017c10 0 17.001 -0.332031 21.001 -0.999023v-294c-26.667 2 -50.334 3 -71.001 3c-80 0 -142.5 -24.333 -187.5 -73s-67.5 -111.334 -67.5 -188.001v-464h-268v1000h268v-147h3c38 52.667 83 93.167 135 121.5s107.667 42.5 167 42.5z" />
    <glyph glyph-name="s" unicode="s" horiz-adv-x="917" 
d="M459 -17c-158.667 0 -293.667 48.9961 -405 146.996l130 185c83.333 -78 175.666 -117 276.999 -117c38 0 68 7.66699 90 23s33 35.333 33 60c0 15.333 -6.66699 28.833 -20 40.5s-31.833 22.5 -55.5 32.5s-59.167 22.667 -106.5 38c-30 10 -56.833 20 -80.5 30
s-47.834 21.833 -72.501 35.5s-45.834 28.834 -63.501 45.501s-33.667 35.334 -48 56.001s-25.166 44.334 -32.499 71.001s-11 55.667 -11 87c0 59.333 15.833 111.833 47.5 157.5s74.667 80.834 129 105.501s115.5 37 183.5 37c70 0 134.333 -10 193 -30
s116.334 -52 173.001 -96l-130 -196c-37.333 35.333 -76.833 61.833 -118.5 79.5s-81.834 26.5 -120.501 26.5c-25.333 0 -48 -6.5 -68 -19.5s-30 -31.5 -30 -55.5c0 -20 11.833 -38 35.5 -54s61.834 -34 114.501 -54c110.667 -40.667 184.667 -73 222 -97
c64.667 -40 103.334 -93.333 116.001 -160c4 -20 6 -42.333 6 -67c0 -92.667 -33.167 -167.667 -99.5 -225s-162.5 -86 -288.5 -86z" />
    <glyph glyph-name="t" unicode="t" horiz-adv-x="764" 
d="M447 -17c-88.667 0 -158.5 28.1689 -209.5 84.502s-76.5 139.166 -76.5 248.499v462h-118v222h118v327l268 29v-356h272v-222h-272v-425c0 -44 6.83301 -76.333 20.5 -97s36.167 -31 67.5 -31c38.667 0 80.667 11.667 126 35l69 -214
c-38 -20.667 -76.333 -36.334 -115 -47.001s-88.667 -16 -150 -16z" />
    <glyph glyph-name="u" unicode="u" horiz-adv-x="1182" 
d="M787 1000l268 -0.000976562v-1000h-268v122h-4c-38.667 -45.333 -83.5 -79.833 -134.5 -103.5s-105.167 -35.5 -162.5 -35.5c-56 0 -105.667 7.5 -149 22.5s-81.833 38.5 -115.5 70.5s-59.334 75 -77.001 129s-26.5 118.333 -26.5 193v602h268v-532
c0 -90 13.833 -153.167 41.5 -189.5s73.5 -54.5 137.5 -54.5c62.667 0 115.334 25.333 158.001 76s64 122.334 64 215.001v485z" />
    <glyph glyph-name="v" unicode="v" horiz-adv-x="1106" 
d="M786 1000h286l-393 -1000h-250l-394 1000h283l235 -672h3z" />
    <glyph glyph-name="w" unicode="w" horiz-adv-x="1581" 
d="M1272 1000h269l-341 -1000h-231l-178 617h-3l-176 -617h-230l-341 1000h269l194 -608h3l175 608h216l177 -608h3z" />
    <glyph glyph-name="x" unicode="x" horiz-adv-x="1082" 
d="M745 0l-202 287h-5l-203 -287h-291l344 511l-341 489h305l185 -286h5l187 286h303l-341 -488l347 -512h-293z" />
    <glyph glyph-name="y" unicode="y" horiz-adv-x="1104" 
d="M791 1000h278l-539 -1405h-274l178 467l-400 938h280l245 -619h3z" />
    <glyph glyph-name="z" unicode="z" horiz-adv-x="996" 
d="M918 820l-488 -594v-6h477v-220h-832v183l482 595v3h-446v219h807v-180z" />
    <glyph glyph-name="braceleft" unicode="{" horiz-adv-x="733" 
d="M487 818c0 -61.333 -8.66699 -109 -26 -143s-45.333 -59 -84 -75v-4c21.333 -8 38.166 -16.167 50.499 -24.5s23.5 -20.5 33.5 -36.5s16.833 -36.5 20.5 -61.5s5.5 -57.5 5.5 -97.5v-355c0 -24.667 1.66699 -45.167 5 -61.5s9 -31 17 -44s19.833 -22.667 35.5 -29
s35.5 -9.5 59.5 -9.5h46v-177h-149c-68 0 -125 23.833 -171 71.5s-69 110.167 -69 187.5v378c0 15.333 -0.166992 27.166 -0.5 35.499s-1.66602 19 -3.99902 32s-5.5 23 -9.5 30s-10.167 15 -18.5 24s-18.5 15.833 -30.5 20.5s-27 8.66699 -45 12s-38.667 5.33301 -62 6v199
c18 0.666992 34.667 2.33398 50 5.00098s28.5 5.83398 39.5 9.50098s20.833 8.5 29.5 14.5s15.667 11.667 21 17s10 12.166 14 20.499s7 15.5 9 21.5s3.5 14 4.5 24s1.66699 18 2 24s0.5 14 0.5 24v386c0 48 9.66699 91.5 29 130.5s47.333 70.333 84 94s79 35.5 127 35.5
h149v-178h-46c-22 0 -41 -4.33301 -57 -13s-28.167 -20.167 -36.5 -34.5s-14.333 -28.5 -18 -42.5s-5.5 -28.333 -5.5 -43v-373z" />
    <glyph glyph-name="bar" unicode="|" horiz-adv-x="650" 
d="M215 -235v1744h220v-1744h-220z" />
    <glyph glyph-name="braceright" unicode="}" horiz-adv-x="733" 
d="M472 856c0 -13.333 0.169922 -23.832 0.50293 -31.499s1.66602 -17.667 3.99902 -30s5.5 -22.333 9.5 -30s10.167 -16 18.5 -25s18.333 -16.167 30 -21.5s26.667 -10.166 45 -14.499s39.166 -6.83301 62.499 -7.5v-199c-23.333 -0.666992 -44 -2.66699 -62 -6
s-33 -7.33301 -45 -12s-22.167 -11.334 -30.5 -20.001s-14.5 -16.667 -18.5 -24s-7.16699 -17.5 -9.5 -30.5s-3.66602 -23.667 -3.99902 -32s-0.5 -20.166 -0.5 -35.499v-378c0 -38.667 -6.33301 -74.334 -19 -107.001s-29.834 -60 -51.501 -82s-47.167 -39.167 -76.5 -51.5
s-60.333 -18.5 -93 -18.5h-149v177h46c46 0 77 11.667 93 35s24 59.666 24 108.999v355c0 40 1.83301 72.5 5.5 97.5s10.5 45.5 20.5 61.5s21.167 28.167 33.5 36.5s29.166 16.5 50.499 24.5v4c-38.667 16 -66.667 41 -84 75s-26 81.667 -26 143v373
c0 14.667 -1.83301 29 -5.5 43s-9.66699 28.167 -18 42.5s-20.5 25.833 -36.5 34.5s-35 13 -57 13h-46v178h149c72 0 130 -25 174 -75s66 -111.667 66 -185v-386z" />
    <glyph glyph-name="asciitilde" unicode="~" horiz-adv-x="1167" 
d="M291 400l-185.001 75c26.667 78 64.834 141 114.501 189s108.167 72 175.5 72c30 0 59.833 -3.5 89.5 -10.5s50 -12.667 61 -17s30.833 -12.833 59.5 -25.5c50.667 -26 95.334 -39 134.001 -39c10 0 19.667 1 29 3s18.333 5 27 9s17 8.83301 25 14.5s15.333 12 22 19
s13 14.5 19 22.5s11.667 16.667 17 26l183 -63c-25.333 -80.667 -62.833 -146.334 -112.5 -197.001s-106.834 -76 -171.501 -76c-27.333 0 -55.333 3.33301 -84 10s-50.334 12.834 -65.001 18.501s-36 14.5 -64 26.5c-55.333 25.333 -100.333 38 -135 38
c-57.333 0 -103.666 -31.667 -138.999 -95z" />
    <glyph glyph-name="exclamdown" unicode="&#xa1;" horiz-adv-x="576" 
d="M288 1015c22 0 43.166 -4.33398 63.499 -13.001s38 -20.167 53 -34.5s26.833 -31.666 35.5 -51.999s13 -41.5 13 -63.5c0 -44.667 -16.167 -83.167 -48.5 -115.5s-71.166 -48.5 -116.499 -48.5c-46.667 0 -86.167 16 -118.5 48s-48.5 70.667 -48.5 116
s16.167 83.833 48.5 115.5s71.833 47.5 118.5 47.5zM191.999 519.999h198l48 -1030h-293z" />
    <glyph glyph-name="cent" unicode="&#xa2;" horiz-adv-x="1113" 
d="M1047 273c-36 -41.333 -82.166 -77.1699 -138.499 -107.503s-119.833 -51.5 -190.5 -63.5v-194h-207v192c-127.333 18.667 -230.5 74.334 -309.5 167.001s-118.5 207 -118.5 343c0 134 39 247 117 339s181.667 148.667 311 170v188h207v-187
c64.667 -11.333 125.167 -32.5 181.5 -63.5s103.833 -71.167 142.5 -120.5l-180 -156c-61.333 71.333 -140.333 107 -237 107c-80.667 0 -145.834 -25.5 -195.501 -76.5s-74.5 -116.833 -74.5 -197.5c0 -81.333 25.167 -148 75.5 -200s115.833 -78 196.5 -78
c34 0 66.667 4.83301 98 14.5s57.833 21.834 79.5 36.501s41.167 31.334 58.5 50.001z" />
    <glyph glyph-name="sterling" unicode="&#xa3;" horiz-adv-x="1163" 
d="M90 0l0.00195312 256h135v390h-112v195h112v88c0 70 7.66699 133 23 189s36.166 102.5 62.499 139.5s58 68 95 93s76.167 43 117.5 54s85.333 16.5 132 16.5c79.333 0 155.166 -17.5 227.499 -52.5s132.5 -84.167 180.5 -147.5l-142 -184
c-31.333 39.333 -67.166 70 -107.499 92s-80.166 33 -119.499 33c-26 0 -49.333 -3.83301 -70 -11.5s-39.834 -20.334 -57.501 -38.001s-31.334 -43.667 -41.001 -78s-14.5 -76.166 -14.5 -125.499v-68h314v-195h-310v-390h591v-256h-1016z" />
    <glyph glyph-name="currency" unicode="&#xa4;" horiz-adv-x="1051" 
d="M899 793c0 -71.333 -18.999 -137.001 -56.999 -197.001l162 -164l-120 -122l-164 164c-60.667 -36.667 -126.667 -55 -198 -55c-70.667 0 -136.334 18.667 -197.001 56l-164 -163l-122 122l164 164c-36 60.667 -54 125.667 -54 195c0 70.667 18.333 136 55 196l-165 165
l122 122l165 -163c60 38 125.667 57 197 57s137 -19 197 -57l164 165l121 -123l-163 -163c38 -61.333 57 -127.666 57 -198.999zM524.001 606.999c51.333 0.666992 95.5 19.5 132.5 56.5s56.167 81.5 57.5 133.5c-0.666992 34.667 -9.66699 66.5 -27 95.5s-40.5 52 -69.5 69
s-60.5 25.5 -94.5 25.5c-34 -0.666992 -65.5 -9.5 -94.5 -26.5s-52.167 -40 -69.5 -69s-26 -60.5 -26 -94.5c0.666992 -52 19.5 -96.5 56.5 -133.5s81.833 -55.833 134.5 -56.5z" />
    <glyph glyph-name="yen" unicode="&#xa5;" horiz-adv-x="1220" 
d="M1208 1404l-308 -554h153v-135h-227l-58 -103h285v-135h-298v-477h-291v477h-314v135h301l-57 103h-244v135h169l-307 555h333l263 -533h4l261 533z" />
    <glyph glyph-name="brokenbar" unicode="&#xa6;" horiz-adv-x="650" 
d="M215 788v721h220v-721h-220zM215 -234v721h220v-721h-220z" />
    <glyph glyph-name="section" unicode="&#xa7;" horiz-adv-x="1126" 
d="M873 288c38 -29.333 66.5 -63.4961 85.5 -102.496s28.5 -86.167 28.5 -141.5c0 -110 -38.5 -197.167 -115.5 -261.5s-179.167 -96.5 -306.5 -96.5c-180 0 -333.667 65.667 -461 197l156 187c46.667 -48 96.5 -83.667 149.5 -107s103.5 -35 151.5 -35
c40.667 0 74 10.167 100 30.5s39 47.166 39 80.499s-13 59.666 -39 78.999s-75 42.666 -147 69.999c-38.667 14.667 -70.334 27.167 -95.001 37.5s-53 23 -85 38s-57.833 29 -77.5 42s-40.167 28.667 -61.5 47s-38 37.166 -50 56.499s-21.833 41.166 -29.5 65.499
s-11.5 50.5 -11.5 78.5c0 60.667 13 113.834 39 159.501s63.667 82.5 113 110.5c-72 58.667 -108 137 -108 235c0 101.333 36.5 185 109.5 251s170.833 99 293.5 99c48 0 98.167 -6.83301 150.5 -20.5s102.333 -32.667 150 -57s90.167 -52.166 127.5 -83.499l-152 -187
c-94 67.333 -181.333 101 -262 101c-41.333 0 -73.666 -9.16699 -96.999 -27.5s-35 -41.833 -35 -70.5c0 -30.667 11.833 -54.834 35.5 -72.501s69.167 -40.5 136.5 -68.5c128 -52.667 209 -88.334 243 -107.001c76 -41.333 126.333 -89 151 -143c16.667 -36 25 -79 25 -129
c0 -52 -13.167 -100.167 -39.5 -144.5s-63.5 -81.166 -111.5 -110.499zM368 602.004c0 -35.333 15.668 -65.5 47.001 -90.5s89.666 -53.833 174.999 -86.5l71 -28c16 4 30.333 9.83301 43 17.5s23 16.5 31 26.5s14 20.667 18 32s6 23 6 35c0 36 -14.833 65.167 -44.5 87.5
s-91.167 51.833 -184.5 88.5l-61 24c-33.333 -7.33301 -58.5 -20.833 -75.5 -40.5s-25.5 -41.5 -25.5 -65.5z" />
    <glyph glyph-name="dieresis" unicode="&#xa8;" horiz-adv-x="1071" 
d="M322 1098c-46.667 0 -86.1689 16 -118.502 48s-48.5 70.667 -48.5 116c0 29.333 7.33301 56.5 22 81.5s34.834 44.833 60.501 59.5s53.834 22 84.501 22c45.333 0 84.333 -16 117 -48s49 -70.333 49 -115c0 -45.333 -16.333 -84 -49 -116s-71.667 -48 -117 -48z
M750.998 1100c-30 0 -57.667 7.33301 -83 22s-45.333 34.334 -60 59.001s-22 51.667 -22 81c0 28.667 7.33301 55.5 22 80.5s34.667 44.833 60 59.5s53 22 83 22c29.333 0 56.5 -7.33301 81.5 -22s45 -34.5 60 -59.5s22.5 -51.833 22.5 -80.5
c0 -44.667 -16.167 -82.834 -48.5 -114.501s-70.833 -47.5 -115.5 -47.5z" />
    <glyph glyph-name="copyright" unicode="&#xa9;" horiz-adv-x="1470" 
d="M733 1c-71.333 0 -140.002 11.165 -206.002 33.498s-125.167 53.666 -177.5 93.999s-98.166 87.333 -137.499 141s-69.666 113.334 -90.999 179.001s-32 133.167 -32 202.5c0 86.667 16.833 169.834 50.5 249.501s79.167 148.834 136.5 207.501
s126.166 105.5 206.499 140.5s165.166 52.5 254.499 52.5c71.333 0 139.833 -11.167 205.5 -33.5s124.834 -53.666 177.501 -93.999s98.5 -87.333 137.5 -141s69.167 -113.334 90.5 -179.001s32 -133.167 32 -202.5c0 -86 -16.833 -168.833 -50.5 -248.5s-79 -149 -136 -208
s-125.667 -106 -206 -141s-165.166 -52.5 -254.499 -52.5zM733.998 171.998c44 0 86.665 5.82715 127.998 17.4941s79.333 27.834 114 48.501s66.5 45.834 95.5 75.501s53.5 62 73.5 97s35.5 73 46.5 114s16.5 83.167 16.5 126.5c0 65.333 -12.167 127.333 -36.5 186
s-57.333 109.334 -99 152.001s-91.667 76.667 -150 102s-120.166 38 -185.499 38c-66.667 0 -129.5 -12.667 -188.5 -38s-109.333 -59.666 -151 -102.999s-74.667 -94.5 -99 -153.5s-36.5 -120.833 -36.5 -185.5c0 -52 7.66699 -102.167 23 -150.5
s37.333 -92.166 66 -131.499s62.167 -73.666 100.5 -102.999s81.833 -52 130.5 -68s99.334 -24 152.001 -24zM753.996 313.992c-46 0 -89.3301 7.16699 -129.997 21.5s-76.667 35 -108 62s-56 62 -74 105s-27 91.167 -27 144.5c0 62.667 12.833 119 38.5 169
s64.5 90.333 116.5 121s113.333 46 184 46c31.333 0 62 -4.16699 92 -12.5s60.167 -22.333 90.5 -42s57.5 -43.834 81.5 -72.501l-112 -96c-8.66699 10.667 -18.5 20.334 -29.5 29.001s-22.833 16.667 -35.5 24s-26.5 13 -41.5 17s-30.167 6 -45.5 6
c-52 0 -94.667 -17 -128 -51s-50 -80 -50 -138c0 -54.667 16.167 -99.5 48.5 -134.5s75.5 -52.5 129.5 -52.5c29.333 0 57.666 6.83301 84.999 20.5s49.666 31.5 66.999 53.5l112 -96c-30.667 -37.333 -68.334 -67.333 -113.001 -90s-95 -34 -151 -34z" />
    <glyph glyph-name="ordfeminine" unicode="&#xaa;" horiz-adv-x="789" 
d="M534 1406h185v-601h-185v65h-3c-45.333 -52 -108 -78 -188 -78c-86 0 -155.5 29 -208.5 87s-79.5 133.333 -79.5 226s25.833 168 77.5 226s118.167 87 199.5 87c38 0 74.5 -7.83301 109.5 -23.5s65.167 -38.5 90.5 -68.5h2v80zM390 968c40 0 73.166 12.667 99.499 38
s39.5 58.333 39.5 99s-13.167 74 -39.5 100s-59.166 39 -98.499 39c-26.667 0 -51 -5.83301 -73 -17.5s-39.333 -28 -52 -49s-19 -45.167 -19 -72.5c0 -40.667 13.5 -73.667 40.5 -99s61.167 -38 102.5 -38z" />
    <glyph glyph-name="guillemotleft" unicode="&#xab;" horiz-adv-x="1048" 
d="M578 79h-260l-241 426l245 434h259l-248 -434zM999 79h-260l-241 426l245 434h259l-248 -434z" />
    <glyph glyph-name="logicalnot" unicode="&#xac;" horiz-adv-x="1130" 
d="M797 300v332h-697v230h931v-562h-234z" />
    <glyph glyph-name="registered" unicode="&#xae;" horiz-adv-x="1481" 
d="M741 1309c89.333 0 174.333 -17.501 255 -52.501s149.667 -82 207 -141s102.833 -128.667 136.5 -209s50.5 -164.5 50.5 -252.5c0 -87.333 -16.833 -171.166 -50.5 -251.499s-79.334 -150 -137.001 -209s-127 -106 -208 -141s-166.5 -52.5 -256.5 -52.5
c-60 0 -118.167 8 -174.5 24s-108.166 38.167 -155.499 66.5s-90.833 62.666 -130.5 102.999s-73.334 84.333 -101.001 132s-49.167 99.667 -64.5 156s-23 113.833 -23 172.5c0 70 10.833 138 32.5 204s52.334 126 92.001 180s86.167 101.333 139.5 142
s113.333 72.334 180 95.001s136 34 208 34zM738 170.999c66.667 0 129.668 12.8359 189.001 38.5029s110 60.167 152 103.5s75.333 94.666 100 153.999s37 121.666 37 186.999s-12.167 127.833 -36.5 187.5s-57.5 111 -99.5 154s-92.5 77.333 -151.5 103
s-121.5 38.5 -187.5 38.5c-66.667 0 -129.834 -12.833 -189.501 -38.5s-110.5 -60.334 -152.5 -104.001s-75.333 -95.334 -100 -155.001s-37 -122.167 -37 -187.5s12.167 -127.666 36.5 -186.999s57.5 -110.5 99.5 -153.5s92.667 -77.167 152 -102.5s122 -38 188 -38z
M997.001 763.002c0 -99.333 -41.667 -165.667 -125 -199l157 -237h-174l-139 217h-61v-217h-149v663h257c78 0 136.5 -20.667 175.5 -62s58.5 -96.333 58.5 -165zM656.001 854.001l-0.000976562 -176.001h73c34.667 0 61.834 8 81.501 24s29.5 37.333 29.5 64
c0 12.667 -2.33301 24.334 -7 35.001s-11.5 20 -20.5 28s-20.333 14.167 -34 18.5s-29.167 6.5 -46.5 6.5h-76z" />
    <glyph glyph-name="macron" unicode="&#xaf;" horiz-adv-x="908" 
d="M143 1151v214h623v-214h-623z" />
    <glyph glyph-name="degree" unicode="&#xb0;" horiz-adv-x="793" 
d="M395 901c-79.333 0 -147.5 28.002 -204.5 84.002s-85.5 123 -85.5 201c0 50.667 13.5 98.167 40.5 142.5s62.833 79.333 107.5 105s92 38.5 142 38.5c50.667 0 98.5 -12.833 143.5 -38.5s81 -60.834 108 -105.501s40.5 -93 40.5 -145
c0 -76.667 -28.833 -142.834 -86.5 -198.501s-126.167 -83.5 -205.5 -83.5zM396 1063c34.667 0 63.8301 11.832 87.4971 35.499s35.5 52.5 35.5 86.5c0 34.667 -12.167 64.334 -36.5 89.001s-53.166 37 -86.499 37s-62.166 -12.5 -86.499 -37.5s-36.5 -54.5 -36.5 -88.5
s11.833 -62.833 35.5 -86.5s52.834 -35.5 87.501 -35.5z" />
    <glyph glyph-name="plusminus" unicode="&#xb1;" horiz-adv-x="1239" 
d="M486 362v367h-367v234h367v369h237v-369h368v-234h-368v-367h-237zM148 -6v234h972v-234h-972z" />
    <glyph glyph-name="uni00B2" unicode="&#xb2;" horiz-adv-x="698" 
d="M351 1082l292.997 0.00195312v-190h-594l-3 140l264 263c40 40 68.333 72.5 85 97.5s25 50.167 25 75.5c0 26 -8.66699 46.833 -26 62.5s-39.666 23.5 -66.999 23.5c-22.667 0 -46.167 -6.16699 -70.5 -18.5s-45.166 -31.5 -62.499 -57.5l-155 111
c28 46.667 68.667 85 122 115s114.666 45 183.999 45c38.667 0 75.334 -6 110.001 -18s65.334 -28.667 92.001 -50s48 -48.333 64 -81s24 -68.334 24 -107.001c0 -52.667 -10 -99.334 -30 -140.001s-59.667 -88 -119 -142l-136 -125v-4z" />
    <glyph glyph-name="uni00B3" unicode="&#xb3;" horiz-adv-x="713" 
d="M534 1325c86.667 -40 130.001 -107 130.001 -201c0 -75.333 -28.333 -135.333 -85 -180s-130.667 -67 -222 -67c-79.333 0 -148.333 18.833 -207 56.5s-99 85.5 -121 143.5l189 76c10 -32 24.833 -55.333 44.5 -70s46.167 -22 79.5 -22c32 0 57.333 8.33301 76 25
s28 39 28 67c0 27.333 -10.833 49.333 -32.5 66s-51.5 25 -89.5 25h-58v155h72c29.333 0 53.166 7.5 71.499 22.5s27.5 33.833 27.5 56.5c0 25.333 -8.66699 46 -26 62s-40.666 24 -69.999 24c-50.667 0 -85.334 -24 -104.001 -72l-174 93c19.333 48 54.5 87.333 105.5 118
s109.167 46 174.5 46c84.667 0 154.667 -20.5 210 -61.5s83 -97.833 83 -170.5c0 -80.667 -34 -143 -102 -187v-5z" />
    <glyph glyph-name="acute" unicode="&#xb4;" horiz-adv-x="1021" 
d="M290 1096l232 301l281 1l-254 -302h-259z" />
    <glyph glyph-name="uni00B5" unicode="&#xb5;" horiz-adv-x="1191" 
d="M798 1000l268.003 0.000976562v-1000h-247l-14 125h-4c-35.333 -45.333 -76.333 -80.333 -123 -105s-96.334 -37 -149.001 -37c-63.333 0 -113 15.667 -149 47l-3 -3c12.667 -70 19 -145.333 19 -226v-206h-268v1405h268v-513c0 -90.667 16.167 -157.334 48.5 -200.001
s80.166 -64 143.499 -64c61.333 0 111.666 24.5 150.999 73.5s59 116.833 59 203.5v500z" />
    <glyph glyph-name="paragraph" unicode="&#xb6;" horiz-adv-x="1101" 
d="M776 -311v1513h-128v-1202h-164v611c-124 8.66699 -223.167 45.834 -297.5 111.501s-111.5 154.834 -111.5 267.501c0 116.667 39.833 209.834 119.5 279.501s189.167 104.5 328.5 104.5h411v-1685h-158z" />
    <glyph glyph-name="periodcentered" unicode="&#xb7;" horiz-adv-x="565" 
d="M288 335c-46.667 0 -86.167 15.833 -118.5 47.5s-48.5 70.167 -48.5 115.5s16.167 84 48.5 116s71.833 48 118.5 48c45.333 0 84.166 -16.167 116.499 -48.5s48.5 -70.833 48.5 -115.5s-16.167 -83 -48.5 -115s-71.166 -48 -116.499 -48z" />
    <glyph glyph-name="cedilla" unicode="&#xb8;" horiz-adv-x="757" 
d="M379 -64c60.667 -2.66699 107.168 -17.998 139.501 -45.998s48.5 -67.667 48.5 -119c0 -49.333 -20.5 -88.666 -61.5 -117.999s-104.167 -44 -189.5 -44c-42 0 -83.667 4 -125 12v120c26.667 -9.33301 61.667 -14 105 -14c16.667 0 32 1.66699 46 5
s26.167 9.66602 36.5 18.999s15.5 20.666 15.5 33.999c0 19.333 -14.833 35.166 -44.5 47.499s-70.834 18.5 -123.501 18.5v76l42 85h147l-38 -73z" />
    <glyph glyph-name="uni00B9" unicode="&#xb9;" horiz-adv-x="581" 
d="M261 892v584l-129 -90l-103 161l279 188h162v-843h-209z" />
    <glyph glyph-name="ordmasculine" unicode="&#xba;" horiz-adv-x="787" 
d="M382 793c-96 0 -174.5 29.334 -235.5 88.001s-91.5 133.667 -91.5 225s30.5 166.166 91.5 224.499s139.5 87.5 235.5 87.5c96.667 0 175.834 -29 237.501 -87s92.5 -133 92.5 -225s-30.833 -167.167 -92.5 -225.5s-140.834 -87.5 -237.501 -87.5zM382 967.001
c38 0 69.833 13.167 95.5 39.5s38.5 59.5 38.5 99.5c0 41.333 -12.5 75 -37.5 101s-57.167 39 -96.5 39c-38.667 0 -70.167 -13.167 -94.5 -39.5s-36.5 -59.833 -36.5 -100.5c0 -40 12.333 -73.167 37 -99.5s56 -39.5 94 -39.5z" />
    <glyph glyph-name="guillemotright" unicode="&#xbb;" horiz-adv-x="1046" 
d="M49 79l245 426l-248 434h259l245 -434l-241 -426h-260zM470 79l245 426l-248 434h259l245 -434l-241 -426h-260z" />
    <glyph glyph-name="onequarter" unicode="&#xbc;" horiz-adv-x="1672" 
d="M614 -48l-202 87l645 1446l201 -87zM261 612v584l-129 -90l-103 161l279 188h162v-843h-209zM1311 0v129h-343v126l388 588h164v-535h112v-179h-112v-129h-209zM1173 295h155v241z" />
    <glyph glyph-name="onehalf" unicode="&#xbd;" horiz-adv-x="1742" 
d="M1057 1485l201 -87l-644 -1446l-202 87zM470 612h-209v584l-129 -90l-103 161l279 188h162v-843zM1395 190l292.998 0.000976562v-190h-594l-3 140l264 263c40 40 68.333 72.5 85 97.5s25 50.167 25 75.5c0 17.333 -4 32.5 -12 45.5s-19 23 -33 30s-30 10.5 -48 10.5
c-22.667 0 -46.167 -6.16699 -70.5 -18.5s-45.166 -31.5 -62.499 -57.5l-155 111c28 46.667 68.667 85 122 115s114.666 45 183.999 45c38.667 0 75.334 -6 110.001 -18s65.334 -28.667 92.001 -50s48 -48.333 64 -81s24 -68.334 24 -107.001
c0 -20.667 -1.16699 -39.334 -3.5 -56.001s-6.66602 -34.167 -12.999 -52.5s-15 -36.166 -26 -53.499s-25.333 -36 -43 -56s-38.834 -41.333 -63.501 -64l-136 -125v-4z" />
    <glyph glyph-name="threequarters" unicode="&#xbe;" horiz-adv-x="1758" 
d="M1143 1485l201 -87l-644 -1446l-202 87zM664 844c0 -75.333 -28.333 -135.334 -85 -180.001s-130.667 -67 -222 -67c-79.333 0 -148.333 18.833 -207 56.5s-99 85.5 -121 143.5l189 76c6.66699 -21.333 15.334 -38.666 26.001 -51.999s24 -23.333 40 -30
s35.333 -10 58 -10c32 0 57.333 8.33301 76 25s28 39 28 67c0 27.333 -10.833 49.333 -32.5 66s-51.5 25 -89.5 25h-58v155h72c19.333 0 36.666 3.5 51.999 10.5s27 16.5 35 28.5s12 25.333 12 40c0 25.333 -8.66699 46 -26 62s-40.666 24 -69.999 24
c-50.667 0 -85.334 -24 -104.001 -72l-174 93c19.333 48 54.5 87.333 105.5 118s109.167 46 174.5 46c84.667 0 154.667 -20.5 210 -61.5s83 -97.833 83 -170.5c0 -80.667 -34 -143 -102 -187v-5c86.667 -40 130 -107 130 -201zM1606 307.999h112v-179h-112v-129h-209v129
h-343v126l388 588h164v-535zM1414 294.999v241l-155 -241h155z" />
    <glyph glyph-name="questiondown" unicode="&#xbf;" horiz-adv-x="925" 
d="M545 1016c46.667 0 86.167 -15.833 118.5 -47.5s48.5 -70.167 48.5 -115.5s-16.167 -84 -48.5 -116s-71.833 -48 -118.5 -48c-45.333 0 -84.166 16.167 -116.499 48.5s-48.5 70.833 -48.5 115.5s16.167 83 48.5 115s71.166 48 116.499 48zM669 526l1 -102.001
c0 -16 -1.5 -31.667 -4.5 -47s-6.33301 -29 -10 -41s-9.83398 -25.667 -18.501 -41s-15.834 -27.333 -21.501 -36s-15 -20.667 -28 -36s-22.5 -26.333 -28.5 -33s-16.833 -18.167 -32.5 -34.5s-25.834 -27.166 -30.501 -32.499c-20 -21.333 -36.333 -39.333 -49 -54
s-26.167 -32.334 -40.5 -53.001s-24.833 -41.667 -31.5 -63s-10 -43 -10 -65c0 -50 15 -89 45 -117s69.667 -42 119 -42c38.667 0 76.5 9.83301 113.5 29.5s68.167 46.5 93.5 80.5l191 -177c-46.667 -58 -107.167 -103.833 -181.5 -137.5s-153.833 -50.5 -238.5 -50.5
c-58.667 0 -113.667 8.33301 -165 25s-97.166 41 -137.499 73s-72.166 73.833 -95.499 125.5s-35 110.167 -35 175.5c0 38 4.83301 74.333 14.5 109s23.834 66.834 42.501 96.501s37.334 55.5 56.001 77.5s41.334 45.667 68.001 71c8.66699 8 22 20.333 40 37
s31.333 29 40 37s19.667 19 33 33s23.166 25.833 29.499 35.5s12.166 20.667 17.499 33s8.33301 24.5 9 36.5l7 87h238z" />
    <glyph glyph-name="Agrave" unicode="&#xc0;" horiz-adv-x="1430" 
d="M833 1605h-259l-253 302l281 -1zM1095 0l-99 291h-558l-99 -291h-301l539 1455h278l541 -1455h-301zM521 537h391l-195 571h-2z" />
    <glyph glyph-name="Aacute" unicode="&#xc1;" horiz-adv-x="1430" 
d="M1112 1907l-254 -302h-259l232 301zM1095 0l-99 291h-558l-99 -291h-301l539 1455h278l541 -1455h-301zM521 537h391l-195 571h-2z" />
    <glyph glyph-name="Acircumflex" unicode="&#xc2;" horiz-adv-x="1430" 
d="M711 1755l-102 -154h-245l227 306h237l239 -306h-247l-103 154h-6zM1095 0l-99 291h-558l-99 -291h-301l539 1455h278l541 -1455h-301zM521 537h391l-195 571h-2z" />
    <glyph glyph-name="Atilde" unicode="&#xc3;" horiz-adv-x="1430" 
d="M593 1701c-48 0 -86.3311 -33.998 -114.998 -101.998l-160 69c22 72 54.167 129.667 96.5 173s92.166 65 149.499 65c26 0 51 -3.33301 75 -10s41.5 -12.834 52.5 -18.501s27.167 -14.834 48.5 -27.501c1.33301 -0.666992 3.33301 -2 6 -4
c15.333 -9.33301 27 -16.333 35 -21s18.667 -9.16699 32 -13.5s26 -6.5 38 -6.5c24 0 46 8.83301 66 26.5s36.667 42.167 50 73.5l157 -52c-21.333 -78.667 -52.833 -141 -94.5 -187s-90.167 -69 -145.5 -69c-33.333 0 -63.833 5.33301 -91.5 16s-56.834 25.667 -87.501 45
c-12.667 7.33301 -22.5 12.833 -29.5 16.5s-15.667 8 -26 13s-20 8.5 -29 10.5s-18.167 3 -27.5 3zM1095 0.00195312l-99 291h-558l-99 -291h-301l539 1455h278l541 -1455h-301zM521.002 537.002h391l-195 571h-2z" />
    <glyph glyph-name="Adieresis" unicode="&#xc4;" horiz-adv-x="1430" 
d="M500 1607c-46.667 0 -86.167 16 -118.5 48s-48.5 70.667 -48.5 116c0 44.667 16.333 83 49 115s72 48 118 48c45.333 0 84.333 -16 117 -48s49 -70.333 49 -115c0 -30 -7.5 -57.5 -22.5 -82.5s-35.333 -44.833 -61 -59.5s-53.167 -22 -82.5 -22zM929 1609
c-30 0 -57.665 7.33301 -82.998 22s-45.333 34.334 -60 59.001s-22 51.667 -22 81c0 44 16.167 82 48.5 114s71.166 48 116.499 48c29.333 0 56.666 -7.33301 81.999 -22s45.333 -34.5 60 -59.5s22 -51.833 22 -80.5c0 -44.667 -16.167 -82.834 -48.5 -114.501
s-70.833 -47.5 -115.5 -47.5zM1095 0l-99 291h-558l-99 -291h-301l539 1455h278l541 -1455h-301zM521.002 537h391l-195 571h-2z" />
    <glyph glyph-name="Aring" unicode="&#xc5;" horiz-adv-x="1430" 
d="M715 1558c-60.667 0 -112.501 20.334 -155.501 61.001s-64.5 91.667 -64.5 153c0 59.333 20.833 109.833 62.5 151.5s94.167 62.5 157.5 62.5c62 0 114.5 -20.333 157.5 -61s64.5 -91.667 64.5 -153c0 -38.667 -9.16699 -74.334 -27.5 -107.001
s-44.666 -58.667 -78.999 -78s-72.833 -29 -115.5 -29zM714.999 1851c-21.333 0 -39.5 -7.66699 -54.5 -23s-22.5 -33.333 -22.5 -54c0 -21.333 7.5 -39.333 22.5 -54s33.167 -22 54.5 -22s39.5 7.5 54.5 22.5s22.5 33.167 22.5 54.5c0 20.667 -7.5 38.5 -22.5 53.5
s-33.167 22.5 -54.5 22.5zM1095 0.000976562l-99 291h-558l-99 -291h-301l539 1455h278l541 -1455h-301zM520.999 537.001h391l-195 571h-2z" />
    <glyph glyph-name="AE" unicode="&#xc6;" horiz-adv-x="1957" 
d="M1172 257h689v-257h-973v291h-428l-144 -291h-303l728 1455h1079v-258h-648v-348h527v-253h-527v-339zM581 537h307v614h-4z" />
    <glyph glyph-name="Ccedilla" unicode="&#xc7;" horiz-adv-x="1486" 
d="M842 258c72.667 0 141.002 16.6689 205.002 50.002s118.333 78 163 134l211 -181c-66 -82 -146.833 -147.833 -242.5 -197.5s-202.834 -75.834 -321.501 -78.501l-24 -46l2 -3c60.667 -2.66699 107.167 -18 139.5 -46s48.5 -67.667 48.5 -119
c0 -49.333 -20.5 -88.666 -61.5 -117.999s-104.167 -44 -189.5 -44c-42 0 -83.667 4 -125 12v120c26.667 -9.33301 61.667 -14 105 -14c26.667 0 49.667 4.66699 69 14s29 24 29 44c0 19.333 -14.833 35.166 -44.5 47.499s-70.834 18.5 -123.501 18.5v76l31 63v4
c-86 12.667 -165.833 37.834 -239.5 75.501s-138.334 86.5 -194.001 146.5s-99.334 133.5 -131.001 220.5s-47.5 182.5 -47.5 286.5c0 83.333 10.333 162.5 31 237.5s51.834 143.5 93.501 205.5s91.667 115.833 150 161.5s127.333 81.167 207 106.5s166.167 38 259.5 38
c68.667 0 136.334 -9.33301 203.001 -28s133.167 -49.334 199.5 -92.001s125.166 -95.667 176.499 -159l-211 -180c-45.333 54.667 -100 99.167 -164 133.5s-132 51.5 -204 51.5c-42 0 -82.167 -5 -120.5 -15s-73.666 -24.5 -105.999 -43.5s-61.833 -42.333 -88.5 -70
s-49.167 -59 -67.5 -94s-32.5 -73.833 -42.5 -116.5s-15 -88 -15 -136c0 -89.333 18.5 -169.333 55.5 -240s89 -125.834 156 -165.501s143.167 -59.5 228.5 -59.5z" />
    <glyph glyph-name="Egrave" unicode="&#xc8;" horiz-adv-x="1228" 
d="M606 1604l-253 302l281 -1l231 -301h-259zM159 0v1455h930v-258h-646v-349h518v-254h-518v-337h689v-257h-973z" />
    <glyph glyph-name="Eacute" unicode="&#xc9;" horiz-adv-x="1228" 
d="M420 1604l232 301l281 1l-254 -302h-259zM159 0v1455h930v-258h-646v-349h518v-254h-518v-337h689v-257h-973z" />
    <glyph glyph-name="Ecircumflex" unicode="&#xca;" horiz-adv-x="1228" 
d="M632 1754l-102 -154h-245l227 306h237l239 -306h-247l-103 154h-6zM443 257h689v-257h-973v1455h930v-258h-646v-349h518v-254h-518v-337z" />
    <glyph glyph-name="Edieresis" unicode="&#xcb;" horiz-adv-x="1228" 
d="M421 1606c-46.667 0 -86.167 16 -118.5 48s-48.5 70.667 -48.5 116c0 44.667 16.333 83 49 115s72 48 118 48c29.333 0 56.833 -7.33301 82.5 -22s46 -34.5 61 -59.5s22.5 -52.167 22.5 -81.5c0 -45.333 -16.333 -84 -49 -116s-71.667 -48 -117 -48zM850 1608
c-45.333 0 -84.167 15.833 -116.5 47.5s-48.5 69.834 -48.5 114.501c0 28.667 7.33301 55.5 22 80.5s34.667 44.833 60 59.5s53 22 83 22c29.333 0 56.5 -7.33301 81.5 -22s45 -34.5 60 -59.5s22.5 -51.833 22.5 -80.5c0 -44.667 -16.167 -82.834 -48.5 -114.501
s-70.833 -47.5 -115.5 -47.5zM158.999 0v1455h930v-258h-646v-349h518v-254h-518v-337h689v-257h-973z" />
    <glyph glyph-name="Igrave" unicode="&#xcc;" horiz-adv-x="628" 
d="M187 1604l-253 302l281 -1l231 -301h-259zM169 0v1455h290v-1455h-290z" />
    <glyph glyph-name="Iacute" unicode="&#xcd;" horiz-adv-x="629" 
d="M194 1604l232 301l281 1l-254 -302h-259zM169 0v1455h290v-1455h-290z" />
    <glyph glyph-name="Icircumflex" unicode="&#xce;" horiz-adv-x="628" 
d="M307 1754l-102 -154h-245l227 306h237l239 -306h-247l-103 154h-6zM169 0v1455h290v-1455h-290z" />
    <glyph glyph-name="Idieresis" unicode="&#xcf;" horiz-adv-x="628" 
d="M96 1606c-46.667 0 -86.167 16 -118.5 48s-48.5 70.667 -48.5 116c0 44.667 16.333 83 49 115s72 48 118 48c29.333 0 56.833 -7.33301 82.5 -22s46 -34.5 61 -59.5s22.5 -52.167 22.5 -81.5c0 -30 -7.5 -57.5 -22.5 -82.5s-35.333 -44.833 -61 -59.5
s-53.167 -22 -82.5 -22zM525 1608c-45.333 0 -84.1689 15.8311 -116.502 47.498s-48.5 69.834 -48.5 114.501c0 21.333 4.33301 42 13 62s20.334 37.333 35.001 52s32.334 26.334 53.001 35.001s42 13 64 13c44.667 0 83.167 -16.167 115.5 -48.5
s48.5 -70.166 48.5 -113.499c0 -44.667 -16.167 -82.834 -48.5 -114.501s-70.833 -47.5 -115.5 -47.5zM168.997 -0.00195312v1455h290v-1455h-290z" />
    <glyph glyph-name="Eth" unicode="&#xd0;" horiz-adv-x="1496" 
d="M641 1455c113.333 0 217.167 -18 311.5 -54s174 -85.833 239 -149.5s115.333 -140.667 151 -231s53.5 -188.833 53.5 -295.5s-17.167 -204.667 -51.5 -294s-83.333 -165.833 -147 -229.5s-142.5 -113.167 -236.5 -148.5s-198.667 -53 -314 -53h-487v598h-110v241h110v616
h481zM629.001 257c92.667 0 174.668 20.499 246.001 61.499s126.166 96.833 164.499 167.5s57.5 150.334 57.5 239.001c0 90 -19.167 171 -57.5 243s-91.833 128.167 -160.5 168.5s-146 60.5 -232 60.5h-203v-358h226v-241h-226v-341h185z" />
    <glyph glyph-name="Ntilde" unicode="&#xd1;" horiz-adv-x="1546" 
d="M653 1701c-48 0 -86.332 -33.999 -114.999 -101.999l-160 69c22 72 54.167 129.667 96.5 173s92.166 65 149.499 65c26 0 51 -3.33301 75 -10s41.5 -12.834 52.5 -18.501s27.167 -14.834 48.5 -27.501c18 -11.333 30.667 -19 38 -23s18.166 -8.66699 32.499 -14
s27.833 -8 40.5 -8c24 0 46 8.83301 66 26.5s36.667 42.167 50 73.5l157 -52c-21.333 -78.667 -52.833 -141 -94.5 -187s-90.167 -69 -145.5 -69c-23.333 0 -46.666 3.33301 -69.999 10s-42.5 13.834 -57.5 21.501s-32.167 17.5 -51.5 29.5
c-12.667 7.33301 -22.5 12.833 -29.5 16.5s-15.667 8 -26 13s-20 8.5 -29 10.5s-18.167 3 -27.5 3zM1098 1455h288v-1455h-295l-640 964h-4v-964h-287v1455h287l647 -983h4v983z" />
    <glyph glyph-name="Ograve" unicode="&#xd2;" horiz-adv-x="1682" 
d="M729 1605l-253 302l281 -1l231 -301h-259zM842 -17c-108 0 -208.333 18.666 -301 55.999s-171.167 88.833 -235.5 154.5s-114.666 144.5 -150.999 236.5s-54.5 191.333 -54.5 298s18.167 206 54.5 298s86.666 170.667 150.999 236s142.833 116.666 235.5 153.999
s193 56 301 56c106 0 204.5 -18.167 295.5 -54.5s169.167 -86.666 234.5 -150.999s116.666 -142.833 153.999 -235.5s56 -193.667 56 -303s-18.667 -210.5 -56 -303.5s-88.666 -171.667 -153.999 -236s-143.5 -114.666 -234.5 -150.999s-189.5 -54.5 -295.5 -54.5z
M843 250.999c62 0 120.167 12.165 174.5 36.498s101 57.333 140 99s69.667 92.167 92 151.5s33.5 122.666 33.5 189.999c0 90 -19.167 171.333 -57.5 244s-91 129.334 -158 170.001s-141.833 61 -224.5 61c-85.333 0 -162 -21.167 -230 -63.5
s-120.5 -99.666 -157.5 -171.999s-55.5 -152.166 -55.5 -239.499c0 -88 18.5 -168.167 55.5 -240.5s89.5 -129.833 157.5 -172.5s144.667 -64 230 -64z" />
    <glyph glyph-name="Oacute" unicode="&#xd3;" horiz-adv-x="1682" 
d="M723 1605l232 301l281 1l-254 -302h-259zM842 -17c-108 0 -208.333 18.666 -301 55.999s-171.167 88.833 -235.5 154.5s-114.666 144.5 -150.999 236.5s-54.5 191.333 -54.5 298s18.167 206 54.5 298s86.666 170.667 150.999 236s142.833 116.666 235.5 153.999
s193 56 301 56c106 0 204.5 -18.167 295.5 -54.5s169.167 -86.666 234.5 -150.999s116.666 -142.833 153.999 -235.5s56 -193.667 56 -303s-18.667 -210.5 -56 -303.5s-88.666 -171.667 -153.999 -236s-143.5 -114.666 -234.5 -150.999s-189.5 -54.5 -295.5 -54.5z
M843 250.999c62 0 120.167 12.165 174.5 36.498s101 57.333 140 99s69.667 92.167 92 151.5s33.5 122.666 33.5 189.999c0 90 -19.167 171.333 -57.5 244s-91 129.334 -158 170.001s-141.833 61 -224.5 61c-85.333 0 -162 -21.167 -230 -63.5
s-120.5 -99.666 -157.5 -171.999s-55.5 -152.166 -55.5 -239.499c0 -88 18.5 -168.167 55.5 -240.5s89.5 -129.833 157.5 -172.5s144.667 -64 230 -64z" />
    <glyph glyph-name="Ocircumflex" unicode="&#xd4;" horiz-adv-x="1682" 
d="M839 1755l-102 -154h-245l227 306h237l239 -306h-247l-103 154h-6zM842 1472c106 0 204.499 -18.168 295.499 -54.501s169.167 -86.666 234.5 -150.999s116.666 -142.833 153.999 -235.5s56 -193.667 56 -303s-18.667 -210.5 -56 -303.5s-88.666 -171.667 -153.999 -236
s-143.5 -114.666 -234.5 -150.999s-189.5 -54.5 -295.5 -54.5c-108.667 0 -209.167 18.667 -301.5 56s-170.666 88.833 -234.999 154.5s-114.666 144.5 -150.999 236.5s-54.5 191.333 -54.5 298s18.167 206 54.5 298s86.666 170.667 150.999 236
s142.833 116.666 235.5 153.999s193 56 301 56zM842.999 250.999c62 0 120.167 12.165 174.5 36.498s101 57.333 140 99s69.667 92.167 92 151.5s33.5 122.666 33.5 189.999c0 90 -19.167 171.333 -57.5 244s-91 129.334 -158 170.001s-141.833 61 -224.5 61
c-85.333 0 -162 -21.167 -230 -63.5s-120.5 -99.666 -157.5 -171.999s-55.5 -152.166 -55.5 -239.499c0 -88 18.5 -168.167 55.5 -240.5s89.5 -129.833 157.5 -172.5s144.667 -64 230 -64z" />
    <glyph glyph-name="Otilde" unicode="&#xd5;" horiz-adv-x="1682" 
d="M1012 1597c-33.333 0 -63.8311 5.33691 -91.498 16.0039s-56.834 25.667 -87.501 45c-10 6 -17.667 10.5 -23 13.5s-12.5 6.83301 -21.5 11.5s-16.667 8 -23 10s-13.5 3.83301 -21.5 5.5s-15.667 2.5 -23 2.5c-48 0 -86.333 -34 -115 -102l-160 69
c22 72 54.167 129.667 96.5 173s92.166 65 149.499 65c26 0 51 -3.33301 75 -10s41.5 -12.834 52.5 -18.501s27.167 -14.834 48.5 -27.501c1.33301 -0.666992 3.33301 -2 6 -4c11.333 -6.66699 20 -11.834 26 -15.501s14 -7.83398 24 -12.501s19.333 -8 28 -10
s17.667 -3 27 -3c24 0 46 8.83301 66 26.5s36.667 42.167 50 73.5l157 -52c-21.333 -78.667 -52.833 -141 -94.5 -187s-90.167 -69 -145.5 -69zM842.002 -16.9961c-108 0 -208.333 18.668 -301 56.001s-171.167 88.666 -235.5 153.999s-114.666 144.166 -150.999 236.499
s-54.5 191.833 -54.5 298.5s18.167 206 54.5 298s86.666 170.667 150.999 236s142.833 116.666 235.5 153.999s193 56 301 56c106 0 204.5 -18.167 295.5 -54.5s169.167 -86.666 234.5 -150.999s116.666 -142.833 153.999 -235.5s56 -193.667 56 -303
s-18.667 -210.5 -56 -303.5s-88.666 -171.667 -153.999 -236s-143.5 -114.666 -234.5 -150.999s-189.5 -54.5 -295.5 -54.5zM843.002 251.005c62 0 120.167 11.998 174.5 35.998s101 57 140 99s69.667 92.667 92 152s33.5 122.666 33.5 189.999
c0 90 -19.167 171.333 -57.5 244s-91 129.334 -158 170.001s-141.833 61 -224.5 61c-85.333 0 -162 -21.167 -230 -63.5s-120.5 -99.666 -157.5 -171.999s-55.5 -152.166 -55.5 -239.499c0 -88 18.5 -168.167 55.5 -240.5s89.5 -129.833 157.5 -172.5s144.667 -64 230 -64z
" />
    <glyph glyph-name="Odieresis" unicode="&#xd6;" horiz-adv-x="1682" 
d="M628 1607c-46.667 0 -86.167 16 -118.5 48s-48.5 70.667 -48.5 116c0 44.667 16.333 83 49 115s72 48 118 48c45.333 0 84.333 -16 117 -48s49 -70.333 49 -115c0 -30 -7.5 -57.5 -22.5 -82.5s-35.333 -44.833 -61 -59.5s-53.167 -22 -82.5 -22zM1057 1609
c-30 0 -57.665 7.33301 -82.998 22s-45.333 34.334 -60 59.001s-22 51.667 -22 81c0 44 16.167 82 48.5 114s71.166 48 116.499 48c29.333 0 56.666 -7.33301 81.999 -22s45.333 -34.5 60 -59.5s22 -51.833 22 -80.5c0 -44.667 -16.167 -82.834 -48.5 -114.501
s-70.833 -47.5 -115.5 -47.5zM842.002 -17c-108 0 -208.333 18.668 -301 56.001s-171.167 88.666 -235.5 153.999s-114.666 144.166 -150.999 236.499s-54.5 191.833 -54.5 298.5s18.167 206 54.5 298s86.666 170.667 150.999 236s142.833 116.666 235.5 153.999
s193 56 301 56c106 0 204.5 -18.167 295.5 -54.5s169.167 -86.666 234.5 -150.999s116.666 -142.833 153.999 -235.5s56 -193.667 56 -303s-18.667 -210.5 -56 -303.5s-88.666 -171.667 -153.999 -236s-143.5 -114.666 -234.5 -150.999s-189.5 -54.5 -295.5 -54.5z
M843.002 251.001c62 0 120.167 11.998 174.5 35.998s101 57 140 99s69.667 92.667 92 152s33.5 122.666 33.5 189.999c0 90 -19.167 171.333 -57.5 244s-91 129.334 -158 170.001s-141.833 61 -224.5 61c-85.333 0 -162 -21.167 -230 -63.5s-120.5 -99.666 -157.5 -171.999
s-55.5 -152.166 -55.5 -239.499c0 -88 18.5 -168.167 55.5 -240.5s89.5 -129.833 157.5 -172.5s144.667 -64 230 -64z" />
    <glyph glyph-name="multiply" unicode="&#xd7;" horiz-adv-x="1080" 
d="M260 124l-164 165l280 280l-280 279l164 163l278 -279l281 281l165 -165l-281 -282l280 -280l-163 -162l-280 279z" />
    <glyph glyph-name="Oslash" unicode="&#xd8;" horiz-adv-x="1682" 
d="M1593 1387l-166 -182c103.333 -130.667 155 -289.667 155 -477c0 -109.333 -18.667 -210.5 -56 -303.5s-88.666 -171.667 -153.999 -236s-143.5 -114.666 -234.5 -150.999s-189.5 -54.5 -295.5 -54.5c-161.333 0 -303.333 40 -426 120l-160 -175l-138 129l157 170
c-56 66 -99.167 141.5 -129.5 226.5s-45.5 176.5 -45.5 274.5c0 106.667 18.167 206 54.5 298s86.666 170.667 150.999 236s142.833 116.666 235.5 153.999s193 56 301 56c174 0 324 -46 450 -138l164 178zM400 728c0 -104.667 26 -197.669 78 -279.002l619 673
c-75.333 54 -160 81 -254 81c-85.333 0 -162 -21.167 -230 -63.5s-120.5 -99.666 -157.5 -171.999s-55.5 -152.166 -55.5 -239.499zM1283 727.998c0 92.667 -20.667 177 -62 253l-610 -665c70 -43.333 147.333 -65 232 -65c82.667 0 157.5 20.5 224.5 61.5
s119.667 98 158 171s57.5 154.5 57.5 244.5z" />
    <glyph glyph-name="Ugrave" unicode="&#xd9;" horiz-adv-x="1461" 
d="M637 1605l-253 302l281 -1l231 -301h-259zM728 -17c-87.333 0 -167.17 13.833 -239.503 41.5s-134.166 67.334 -185.499 119.001s-91.166 116.5 -119.499 194.5s-42.5 166 -42.5 264v853h289v-834c0 -70.667 11.333 -133.5 34 -188.5s56.834 -98.667 102.501 -131
s99.5 -48.5 161.5 -48.5c90 0 163 32.833 219 98.5s84 155.5 84 269.5v834h288v-853c0 -126 -23.167 -235.333 -69.5 -328s-114 -164.334 -203 -215.001s-195.167 -76 -318.5 -76z" />
    <glyph glyph-name="Uacute" unicode="&#xda;" horiz-adv-x="1461" 
d="M567 1605l232 301l281 1l-254 -302h-259zM728 -17c-87.333 0 -167.17 13.833 -239.503 41.5s-134.166 67.334 -185.499 119.001s-91.166 116.5 -119.499 194.5s-42.5 166 -42.5 264v853h289v-834c0 -70.667 11.333 -133.5 34 -188.5s56.834 -98.667 102.501 -131
s99.5 -48.5 161.5 -48.5c90 0 163 32.833 219 98.5s84 155.5 84 269.5v834h288v-853c0 -126 -23.167 -235.333 -69.5 -328s-114 -164.334 -203 -215.001s-195.167 -76 -318.5 -76z" />
    <glyph glyph-name="Ucircumflex" unicode="&#xdb;" horiz-adv-x="1461" 
d="M725 1755l-102 -154h-245l227 306h237l239 -306h-247l-103 154h-6zM1031 1455h287.996v-853c0 -126 -23.167 -235.333 -69.5 -328s-114 -164.334 -203 -215.001s-195.167 -76 -318.5 -76c-87.333 0 -167.166 13.833 -239.499 41.5s-134.166 67.334 -185.499 119.001
s-91.166 116.5 -119.499 194.5s-42.5 166 -42.5 264v853h289v-834c0 -70.667 11.333 -133.5 34 -188.5s56.834 -98.667 102.501 -131s99.5 -48.5 161.5 -48.5c90 0 163 32.833 219 98.5s84 155.5 84 269.5v834z" />
    <glyph glyph-name="Udieresis" unicode="&#xdc;" horiz-adv-x="1461" 
d="M514 1607c-46.667 0 -86.167 16 -118.5 48s-48.5 70.667 -48.5 116c0 44.667 16.333 83 49 115s72 48 118 48c45.333 0 84.333 -16 117 -48s49 -70.333 49 -115c0 -45.333 -16.333 -84 -49 -116s-71.667 -48 -117 -48zM943 1609c-30 0 -57.667 7.33301 -83 22
s-45.333 34.334 -60 59.001s-22 51.667 -22 81c0 28.667 7.33301 55.5 22 80.5s34.667 44.833 60 59.5s53 22 83 22c29.333 0 56.5 -7.33301 81.5 -22s45 -34.5 60 -59.5s22.5 -51.833 22.5 -80.5c0 -44.667 -16.167 -82.834 -48.5 -114.501s-70.833 -47.5 -115.5 -47.5z
M728 -17c-87.333 0 -167.17 13.833 -239.503 41.5s-134.166 67.334 -185.499 119.001s-91.166 116.5 -119.499 194.5s-42.5 166 -42.5 264v853h289v-834c0 -70.667 11.333 -133.5 34 -188.5s56.834 -98.667 102.501 -131s99.5 -48.5 161.5 -48.5c90 0 163 32.833 219 98.5
s84 155.5 84 269.5v834h288v-853c0 -126 -23.167 -235.333 -69.5 -328s-114 -164.334 -203 -215.001s-195.167 -76 -318.5 -76z" />
    <glyph glyph-name="Yacute" unicode="&#xdd;" horiz-adv-x="1295" 
d="M1009 1907l-254 -302h-259l232 301zM942 1455h333l-484 -816v-639h-291v639l-481 816h330l296 -531h4z" />
    <glyph glyph-name="Thorn" unicode="&#xde;" horiz-adv-x="1323" 
d="M160 0v1455h284v-258h297c86 0 161.667 -12 227 -36s118 -58 158 -102s70 -95 90 -153s30 -122.667 30 -194c0 -102 -22.333 -188.5 -67 -259.5s-106.5 -123.333 -185.5 -157s-172.5 -50.5 -280.5 -50.5h-269v-245h-284zM444 500l232 -0.00195312
c88 0 155.167 19.833 201.5 59.5s69.5 92.834 69.5 159.501c0 68.667 -22.333 122.834 -67 162.501s-108.667 59.5 -192 59.5h-244v-441z" />
    <glyph glyph-name="germandbls" unicode="&#xdf;" horiz-adv-x="1306" 
d="M994 864c76 -37.333 135.667 -92.499 179 -165.499s65 -154.5 65 -244.5c0 -144 -41.833 -258.5 -125.5 -343.5s-195.167 -127.5 -334.5 -127.5h-197v238h132c72.667 0 132.667 23 180 69s71 104 71 174c0 34.667 -6.33301 67.334 -19 98.001s-30.5 57.5 -53.5 80.5
s-52 41.333 -87 55s-73.167 20.5 -114.5 20.5h-82v216h69c33.333 0 62.833 4.5 88.5 13.5s46 20.167 61 33.5s27.167 28.666 36.5 45.999s15.666 33.5 18.999 48.5s5 29.833 5 44.5c0 46.667 -19.167 86.5 -57.5 119.5s-92.5 49.5 -162.5 49.5
c-84.667 0 -149.5 -22.167 -194.5 -66.5s-67.5 -116.833 -67.5 -217.5v-1005h-268v993c0 118.667 20.833 217.834 62.5 297.501s101 138.667 178 177s171.167 57.5 282.5 57.5c79.333 0 150.5 -10.167 213.5 -30.5s114.333 -48 154 -83s70 -75 91 -120
s31.5 -93.5 31.5 -145.5c0 -19.333 -1.5 -38.333 -4.5 -57s-8.16699 -38.334 -15.5 -59.001s-16.833 -40.334 -28.5 -59.001s-26.667 -37.167 -45 -55.5s-39.166 -34.5 -62.499 -48.5v-3z" />
    <glyph glyph-name="agrave" unicode="&#xe0;" horiz-adv-x="1244" 
d="M794 1139h-259l-253 302l281 -1zM849 1000l268 -0.00292969v-1000h-255v121h-5c-71.333 -92 -171 -138 -299 -138c-54.667 0 -106.667 7.83301 -156 23.5s-93.5 38.5 -132.5 68.5s-72.833 65.833 -101.5 107.5s-50.667 89.334 -66 143.001s-23 110.834 -23 171.501
c0 74.667 12 144.334 36 209.001s56.833 119.667 98.5 165s91.667 81 150 107s120.5 39 186.5 39c122 0 220.333 -43.333 295 -130h4v113zM607 222.997c71.333 0 131.334 25.334 180.001 76.001s73 116.334 73 197.001c0 80 -23.833 146.667 -71.5 200
s-107.834 80 -180.501 80c-48 0 -91.333 -11.333 -130 -34s-69.5 -55.334 -92.5 -98.001s-34.5 -92 -34.5 -148c0 -80.667 23.833 -146.334 71.5 -197.001s109.167 -76 184.5 -76z" />
    <glyph glyph-name="aacute" unicode="&#xe1;" horiz-adv-x="1244" 
d="M969 1441l-254 -302h-259l232 301zM849 1000l268 -0.00292969v-1000h-255v121h-5c-71.333 -92 -171 -138 -299 -138c-54.667 0 -106.667 7.83301 -156 23.5s-93.5 38.5 -132.5 68.5s-72.833 65.833 -101.5 107.5s-50.667 89.334 -66 143.001s-23 110.834 -23 171.501
c0 74.667 12 144.334 36 209.001s56.833 119.667 98.5 165s91.667 81 150 107s120.5 39 186.5 39c122 0 220.333 -43.333 295 -130h4v113zM607 222.997c71.333 0 131.334 25.334 180.001 76.001s73 116.334 73 197.001c0 80 -23.833 146.667 -71.5 200
s-107.834 80 -180.501 80c-48 0 -91.333 -11.333 -130 -34s-69.5 -55.334 -92.5 -98.001s-34.5 -92 -34.5 -148c0 -80.667 23.833 -146.334 71.5 -197.001s109.167 -76 184.5 -76z" />
    <glyph glyph-name="acircumflex" unicode="&#xe2;" horiz-adv-x="1244" 
d="M613 1289l-102 -154h-245l227 306h237l239 -306h-247l-103 154h-6zM849 1000l268 -0.00292969v-1000h-255v121h-5c-71.333 -92 -171 -138 -299 -138c-54.667 0 -106.667 7.83301 -156 23.5s-93.5 38.5 -132.5 68.5s-72.833 65.833 -101.5 107.5
s-50.667 89.334 -66 143.001s-23 110.834 -23 171.501c0 74.667 12 144.334 36 209.001s56.833 119.667 98.5 165s91.667 81 150 107s120.5 39 186.5 39c122 0 220.333 -43.333 295 -130h4v113zM607 222.997c71.333 0 131.334 25.334 180.001 76.001s73 116.334 73 197.001
c0 80 -23.833 146.667 -71.5 200s-107.834 80 -180.501 80c-48 0 -91.333 -11.333 -130 -34s-69.5 -55.334 -92.5 -98.001s-34.5 -92 -34.5 -148c0 -80.667 23.833 -146.334 71.5 -197.001s109.167 -76 184.5 -76z" />
    <glyph glyph-name="atilde" unicode="&#xe3;" horiz-adv-x="1244" 
d="M495 1235c-48 0 -86.3291 -33.999 -114.996 -101.999l-160 69c22 72 54.167 129.667 96.5 173s92.166 65 149.499 65c26 0 51 -3.33301 75 -10s41.5 -12.834 52.5 -18.501s27.167 -14.834 48.5 -27.501c18 -11.333 30.667 -19 38 -23s18.166 -8.66699 32.499 -14
s27.833 -8 40.5 -8c24 0 46 8.83301 66 26.5s36.667 42.167 50 73.5l157 -52c-14 -51.333 -32.333 -96 -55 -134s-49.834 -67.833 -81.501 -89.5s-66.167 -32.5 -103.5 -32.5c-33.333 0 -63.833 5.33301 -91.5 16s-56.834 25.667 -87.501 45
c-16.667 10 -29.5 17.333 -38.5 22s-20.5 9.33398 -34.5 14.001s-27 7 -39 7zM849.004 1000l268 -0.00292969v-1000h-255v121h-5c-71.333 -92 -171 -138 -299 -138c-54.667 0 -106.667 7.83301 -156 23.5s-93.5 38.5 -132.5 68.5s-72.833 65.833 -101.5 107.5
s-50.667 89.334 -66 143.001s-23 110.834 -23 171.501c0 74.667 12 144.334 36 209.001s56.833 119.667 98.5 165s91.667 81 150 107s120.5 39 186.5 39c122 0 220.333 -43.333 295 -130h4v113zM607.004 222.998c71.333 0 131.333 25.332 180 75.999s73 116.334 73 197.001
c0 39.333 -6.33301 76.333 -19 111s-30.167 64.334 -52.5 89.001s-49 44.167 -80 58.5s-64.5 21.5 -100.5 21.5c-73.333 0 -134.5 -25.667 -183.5 -77s-73.5 -119 -73.5 -203c0 -80.667 23.833 -146.334 71.5 -197.001s109.167 -76 184.5 -76z" />
    <glyph glyph-name="adieresis" unicode="&#xe4;" horiz-adv-x="1244" 
d="M402 1141c-46.667 0 -86.167 16 -118.5 48s-48.5 70.667 -48.5 116c0 44.667 16.333 83 49 115s72 48 118 48c45.333 0 84.333 -16 117 -48s49 -70.333 49 -115c0 -45.333 -16.333 -84 -49 -116s-71.667 -48 -117 -48zM831 1143
c-45.333 0 -84.166 15.832 -116.499 47.499s-48.5 69.834 -48.5 114.501c0 44 16.167 82 48.5 114s71.166 48 116.499 48c44.667 0 83.167 -16.167 115.5 -48.5s48.5 -70.166 48.5 -113.499c0 -44.667 -16.167 -82.834 -48.5 -114.501s-70.833 -47.5 -115.5 -47.5z
M849 999.999h268v-1000h-255v121h-5c-71.333 -92 -171 -138 -299 -138c-68.667 0 -132.5 12.333 -191.5 37s-109.667 59.167 -152 103.5s-75.5 98.666 -99.5 162.999s-36 134.5 -36 210.5c0 74.667 12 144.334 36 209.001s56.833 119.667 98.5 165s91.667 81 150 107
s120.5 39 186.5 39c122 0 220.333 -43.333 295 -130h4v113zM607 222.999c71.333 0 131.334 25.333 180.001 76s73 116.334 73 197.001c0 80 -23.833 146.667 -71.5 200s-107.834 80 -180.501 80c-73.333 0 -134.5 -25.667 -183.5 -77s-73.5 -119 -73.5 -203
c0 -80.667 23.833 -146.334 71.5 -197.001s109.167 -76 184.5 -76z" />
    <glyph glyph-name="aring" unicode="&#xe5;" horiz-adv-x="1244" 
d="M617 1092c-40 0 -76.668 9.16895 -110.001 27.502s-60 43.833 -80 76.5s-30 69.334 -30 110.001c0 38.667 9.16699 74.334 27.5 107.001s44.5 58.667 78.5 78s72 29 114 29c30.667 0 59.5 -5.33301 86.5 -16s50.5 -25.334 70.5 -44.001s35.833 -41.334 47.5 -68.001
s17.5 -55.334 17.5 -86.001c0 -38.667 -9.16699 -74.334 -27.5 -107.001s-44.666 -58.667 -78.999 -78s-72.833 -29 -115.5 -29zM616.999 1385c-21.333 0 -39.502 -7.66895 -54.502 -23.002s-22.5 -33.333 -22.5 -54c0 -21.333 7.5 -39.333 22.5 -54s33.167 -22 54.5 -22
s39.5 7.5 54.5 22.5s22.5 33.167 22.5 54.5c0 6 -0.666992 11.833 -2 17.5s-3.33301 10.834 -6 15.501s-5.66699 9.33398 -9 14.001s-7.16602 8.66699 -11.499 12s-9.16602 6.33301 -14.499 9s-10.833 4.66699 -16.5 6s-11.5 2 -17.5 2zM848.997 1000l268 -0.00292969v-1000
h-255v121h-5c-71.333 -92 -171 -138 -299 -138c-54.667 0 -106.667 7.83301 -156 23.5s-93.5 38.5 -132.5 68.5s-72.833 65.833 -101.5 107.5s-50.667 89.334 -66 143.001s-23 110.834 -23 171.501c0 74.667 12 144.334 36 209.001s56.833 119.667 98.5 165
s91.667 81 150 107s120.5 39 186.5 39c122 0 220.333 -43.333 295 -130h4v113zM606.997 222.997c71.333 0 131.333 25.332 180 75.999s73 116.334 73 197.001c0 39.333 -6.33301 76.333 -19 111s-30.167 64.334 -52.5 89.001s-49 44.167 -80 58.5s-64.5 21.5 -100.5 21.5
c-73.333 0 -134.5 -25.667 -183.5 -77s-73.5 -119 -73.5 -203c0 -80.667 23.833 -146.334 71.5 -197.001s109.167 -76 184.5 -76z" />
    <glyph glyph-name="ae" unicode="&#xe6;" horiz-adv-x="1624" 
d="M1569 509c0 -15.333 -1.00098 -33.998 -3.00098 -55.998s-3.66699 -35.333 -5 -40l-655 -2c14.667 -58.667 42.834 -105 84.501 -139s92.834 -51 153.501 -51c26.667 0 53 5.16699 79 15.5s48.5 23.166 67.5 38.499s36.833 33 53.5 53l185 -156
c-45.333 -56.667 -102.666 -102.334 -171.999 -137.001s-145.666 -52 -228.999 -52c-68.667 0 -131.834 12.833 -189.501 38.5s-106.5 61.5 -146.5 107.5h-5c-37.333 -42.667 -86.666 -77.667 -147.999 -105s-130.333 -41 -207 -41
c-62.667 0 -117.834 7.83301 -165.501 23.5s-86.334 37.5 -116.001 65.5s-51.834 60.333 -66.501 97s-22 77.334 -22 122.001c0 98.667 33.5 175.667 100.5 231s167.167 83.333 300.5 84h179v15c0 62.667 -12 106.5 -36 131.5s-60.667 37.5 -110 37.5
c-86.667 0 -172.334 -22 -257.001 -66l-107 199c38 21.333 91.833 42.333 161.5 63s142.834 31 219.501 31c45.333 0 85.5 -4.16699 120.5 -12.5s67.333 -22.833 97 -43.5s54.5 -47.334 74.5 -80.001h5c81.333 90.667 187 136 317 136c84.667 0 160.667 -21.833 228 -65.5
s119.833 -104.167 157.5 -181.5s56.5 -164.333 56.5 -261zM1115 781.002c-50.667 0 -94.332 -15.333 -130.999 -46s-62.334 -73.667 -77.001 -129h397c-14 54 -37.5 96.667 -70.5 128s-72.5 47 -118.5 47zM461.001 195.002c50 0 92.667 16.168 128 48.501
s53 65.166 53 98.499v77l-151 -1c-54 -0.666992 -95.5 -10.167 -124.5 -28.5s-43.5 -45.833 -43.5 -82.5c0 -33.333 12 -60.333 36 -81s58 -31 102 -31z" />
    <glyph glyph-name="ccedilla" unicode="&#xe7;" horiz-adv-x="1088" 
d="M627 -16l-22.999 -45.001l2 -3c60.667 -2.66699 107.167 -18 139.5 -46s48.5 -67.667 48.5 -119c0 -49.333 -20.5 -88.666 -61.5 -117.999s-104.167 -44 -189.5 -44c-42 0 -83.667 4 -125 12v120c26.667 -9.33301 61.667 -14 105 -14c26.667 0 49.667 4.66699 69 14
s29 24 29 44c0 19.333 -14.833 35.166 -44.5 47.499s-70.834 18.5 -123.501 18.5v76l31 63v3c-79.333 15.333 -149.333 45.833 -210 91.5s-108 104.334 -142 176.001s-51 151.167 -51 238.5c0 101.333 22.333 191.333 67 270s107 139.667 187 183s171 65 273 65
c82 0 161 -16.5 237 -49.5s138.667 -80.5 188 -142.5l-181 -156c-61.333 71.333 -139 107 -233 107c-79.333 0 -143.5 -25.5 -192.5 -76.5s-73.5 -117.167 -73.5 -198.5c0 -82 24.833 -148.667 74.5 -200s114.167 -77 193.5 -77c49.333 0 93.833 9.5 133.5 28.5
s72.5 43.167 98.5 72.5l184 -162c-42.667 -50 -99.5 -91.333 -170.5 -124s-150.833 -51 -239.5 -55z" />
    <glyph glyph-name="egrave" unicode="&#xe8;" horiz-adv-x="1146" 
d="M772 1139h-259l-253 302l281 -1zM1068 509c0 -47.333 -2.33691 -79.333 -7.00391 -96h-701c16 -59.333 46.5 -106 91.5 -140s99.5 -51.333 163.5 -52c96.667 -0.666992 176.334 37 239.001 113l174 -162c-45.333 -57.333 -104.666 -103.166 -177.999 -137.499
s-158 -51.5 -254 -51.5c-97.333 0 -185 21.167 -263 63.5s-139.5 103.166 -184.5 182.499s-67.5 170 -67.5 272c0 74.667 12.667 144.167 38 208.5s59.833 119 103.5 164s96.167 80.167 157.5 105.5s127 38 197 38c96.667 0 182.334 -21.833 257.001 -65.5
s132.334 -104 173.001 -181s61 -164.167 61 -261.5zM585.996 781c-55.333 0 -102.832 -15 -142.499 -45s-67.167 -73.333 -82.5 -130h441c-14 54.667 -39.333 97.5 -76 128.5s-83.334 46.5 -140.001 46.5z" />
    <glyph glyph-name="eacute" unicode="&#xe9;" horiz-adv-x="1146" 
d="M967 1441l-254 -302h-259l232 301zM1068 509c0 -47.333 -2.33691 -79.333 -7.00391 -96h-701c16 -59.333 46.5 -106 91.5 -140s99.5 -51.333 163.5 -52c96.667 -0.666992 176.334 37 239.001 113l174 -162c-45.333 -57.333 -104.666 -103.166 -177.999 -137.499
s-158 -51.5 -254 -51.5c-97.333 0 -185 21.167 -263 63.5s-139.5 103.166 -184.5 182.499s-67.5 170 -67.5 272c0 74.667 12.667 144.167 38 208.5s59.833 119 103.5 164s96.167 80.167 157.5 105.5s127 38 197 38c96.667 0 182.334 -21.833 257.001 -65.5
s132.334 -104 173.001 -181s61 -164.167 61 -261.5zM585.996 781c-55.333 0 -102.832 -15 -142.499 -45s-67.167 -73.333 -82.5 -130h441c-14 54.667 -39.333 97.5 -76 128.5s-83.334 46.5 -140.001 46.5z" />
    <glyph glyph-name="ecircumflex" unicode="&#xea;" horiz-adv-x="1146" 
d="M586 1289l-102 -154h-245l227 306h237l239 -306h-247l-103 154h-6zM1068 509c0 -47.333 -2.33691 -79.333 -7.00391 -96h-701c16 -59.333 46.5 -106 91.5 -140s99.5 -51.333 163.5 -52c96.667 -0.666992 176.334 37 239.001 113l174 -162
c-45.333 -57.333 -104.666 -103.166 -177.999 -137.499s-158 -51.5 -254 -51.5c-97.333 0 -185 21.167 -263 63.5s-139.5 103.166 -184.5 182.499s-67.5 170 -67.5 272c0 74.667 12.5 144.167 37.5 208.5s59.5 119 103.5 164s96.667 80.167 158 105.5s127 38 197 38
c96.667 0 182.334 -21.833 257.001 -65.5s132.334 -104 173.001 -181s61 -164.167 61 -261.5zM585.996 781c-55.333 0 -102.832 -15 -142.499 -45s-67.167 -73.333 -82.5 -130h441c-14 54.667 -39.333 97.5 -76 128.5s-83.334 46.5 -140.001 46.5z" />
    <glyph glyph-name="edieresis" unicode="&#xeb;" horiz-adv-x="1146" 
d="M375 1141c-46.667 0 -86.167 16 -118.5 48s-48.5 70.667 -48.5 116c0 44.667 16.333 83 49 115s72 48 118 48c45.333 0 84.333 -16 117 -48s49 -70.333 49 -115c0 -45.333 -16.333 -84 -49 -116s-71.667 -48 -117 -48zM804 1143
c-45.333 0 -84.168 15.834 -116.501 47.501s-48.5 69.834 -48.5 114.501c0 17.333 2.83301 34.166 8.5 50.499s13.5 31.166 23.5 44.499s21.833 25 35.5 35s28.834 17.833 45.501 23.5s34 8.5 52 8.5c29.333 0 56.5 -7.33301 81.5 -22s45 -34.5 60 -59.5
s22.5 -51.833 22.5 -80.5c0 -29.333 -7.5 -56.5 -22.5 -81.5s-35 -44.667 -60 -59s-52.167 -21.5 -81.5 -21.5zM1068 509.001c0 -47.333 -2.33691 -79.333 -7.00391 -96h-701c16 -59.333 46.5 -106 91.5 -140s99.5 -51.333 163.5 -52
c96.667 -0.666992 176.334 37 239.001 113l174 -162c-45.333 -57.333 -104.666 -103.166 -177.999 -137.499s-158 -51.5 -254 -51.5c-97.333 0 -185 21.167 -263 63.5s-139.5 103.166 -184.5 182.499s-67.5 170 -67.5 272c0 74.667 12.667 144.167 38 208.5
s59.833 119 103.5 164s96.167 80.167 157.5 105.5s127 38 197 38c96.667 0 182.334 -21.833 257.001 -65.5s132.334 -104 173.001 -181s61 -164.167 61 -261.5zM585.994 781.001c-55.333 0 -102.832 -15 -142.499 -45s-67.167 -73.333 -82.5 -130h441
c-14 54.667 -39.333 97.5 -76 128.5s-83.334 46.5 -140.001 46.5z" />
    <glyph glyph-name="igrave" unicode="&#xec;" horiz-adv-x="564" 
d="M152 1139l-177 302l281 -1l154 -301h-258zM148 0v1000h268v-1000h-268z" />
    <glyph glyph-name="iacute" unicode="&#xed;" horiz-adv-x="565" 
d="M160 1139l232 301l281 1l-254 -302h-259zM148 0v1000h268v-1000h-268z" />
    <glyph glyph-name="icircumflex" unicode="&#xee;" horiz-adv-x="564" 
d="M277 1289l-102 -154h-245l227 306h237l239 -306h-247l-103 154h-6zM148 0v1000h268v-1000h-268z" />
    <glyph glyph-name="idieresis" unicode="&#xef;" horiz-adv-x="564" 
d="M93 1141c-44 0 -82 16 -114 48s-48 70.667 -48 116c0 44.667 16 83 48 115s70 48 114 48c45.333 0 84.333 -16 117 -48s49 -70.333 49 -115c0 -30 -7.5 -57.5 -22.5 -82.5s-35.333 -44.833 -61 -59.5s-53.167 -22 -82.5 -22zM469 1143
c-45.333 0 -84.1689 15.8301 -116.502 47.4971s-48.5 69.834 -48.5 114.501c0 21.333 4.33301 42 13 62s20.334 37.333 35.001 52s32.334 26.334 53.001 35.001s42 13 64 13c42 0 78.833 -16.167 110.5 -48.5s47.5 -70.166 47.5 -113.499c0 -44 -15.833 -82 -47.5 -114
s-68.5 -48 -110.5 -48zM147.997 -0.00292969v1000h268v-1000h-268z" />
    <glyph glyph-name="eth" unicode="&#xf0;" horiz-adv-x="1213" 
d="M1130 522l0.000976562 -2.99805c0 -104.667 -22.333 -197.667 -67 -279s-107.5 -144.5 -188.5 -189.5s-173.167 -67.5 -276.5 -67.5c-96 0 -183.333 21 -262 63s-140.667 100.167 -186 174.5s-68 157.166 -68 248.499c0 74 12.5 141.667 37.5 203s59 112.666 102 153.999
s93.667 73.333 152 96s120.5 34 186.5 34c64.667 0 133 -14.667 205 -44l1 3c-56.667 97.333 -129 180.333 -217 249l-136 -105l-114 131l94 74c-48.667 26 -100.334 48 -155.001 66l116 188c84 -28.667 161.333 -62.667 232 -102l141 111l115 -138l-100 -77
c123.333 -96 218.833 -211 286.5 -345s101.5 -282.333 101.5 -445zM605.001 223.002c72.667 0 132.833 25.167 180.5 75.5s71.5 113.5 71.5 189.5c0 72 -24 131.667 -72 179s-109 71 -183 71c-70 0 -128.833 -24.5 -176.5 -73.5s-71.5 -107.833 -71.5 -176.5
c0 -76 23.833 -139.167 71.5 -189.5s107.5 -75.5 179.5 -75.5z" />
    <glyph glyph-name="ntilde" unicode="&#xf1;" horiz-adv-x="1212" 
d="M492 1235c-48 0 -86.3291 -34.002 -114.996 -102.002l-160 69c22 72 54.167 129.667 96.5 173s92.166 65 149.499 65c13.333 0 26.166 -0.666992 38.499 -2s24.166 -3.66602 35.499 -6.99902s20.833 -6.33301 28.5 -9s17 -6.83398 28 -12.501s18.5 -9.66699 22.5 -12
s11.667 -6.83301 23 -13.5c18 -11.333 30.667 -19 38 -23s18.166 -8.66699 32.499 -14s27.833 -8 40.5 -8c16 0 31.333 4.16699 46 12.5s27.834 19.833 39.501 34.5s21.834 32.334 30.501 53.001l157 -52c-14 -51.333 -32.333 -96 -55 -134s-49.834 -67.833 -81.501 -89.5
s-66.167 -32.5 -103.5 -32.5c-33.333 0 -63.833 5.33301 -91.5 16s-56.834 25.667 -87.501 45c-16.667 10 -29.5 17.333 -38.5 22s-20.5 9.33398 -34.5 14.001s-27 7 -39 7zM728.004 1017c55.333 0 104.498 -7.83398 147.498 -23.501s81 -39.834 114 -72.501
s58.167 -76.667 75.5 -132s26 -120.666 26 -195.999v-594h-268v527c0 92 -15.667 156.667 -47 194s-79.666 56 -144.999 56c-69.333 0 -124.5 -23.667 -165.5 -71s-61.5 -114.666 -61.5 -201.999v-503h-268v1000h268v-129h3c40.667 47.333 88.834 83.5 144.501 108.5
s114.5 37.5 176.5 37.5z" />
    <glyph glyph-name="ograve" unicode="&#xf2;" horiz-adv-x="1225" 
d="M516 1139l-253 302l281 -1l231 -301h-259zM613 -17c-62.667 0 -121.667 8.33301 -177 25s-104.5 40.334 -147.5 71.001s-80.167 67.167 -111.5 109.5s-55.166 89.833 -71.499 142.5s-24.5 108.667 -24.5 168c0 74 12.833 143 38.5 207s61.5 118.833 107.5 164.5
s102.333 81.5 169 107.5s139 39 217 39c76.667 0 148 -12.667 214 -38s122.333 -60.5 169 -105.5s83.167 -99.667 109.5 -164s39.5 -134.5 39.5 -210.5c0 -100.667 -22.667 -190.334 -68 -269.001s-108.333 -139.5 -189 -182.5s-172.334 -64.5 -275.001 -64.5zM613 223
c73.333 0 134.999 26 184.999 78s75 118 75 198c0 81.333 -24.667 147.833 -74 199.5s-111.333 77.5 -186 77.5c-77.333 0 -140.166 -26.167 -188.499 -78.5s-72.5 -118.5 -72.5 -198.5c0 -78 24.5 -143.5 73.5 -196.5s111.5 -79.5 187.5 -79.5z" />
    <glyph glyph-name="oacute" unicode="&#xf3;" horiz-adv-x="1225" 
d="M481 1139l232 301l281 1l-254 -302h-259zM613 -17c-62.667 0 -121.667 8.33301 -177 25s-104.5 40.334 -147.5 71.001s-80.167 67.167 -111.5 109.5s-55.166 89.833 -71.499 142.5s-24.5 108.667 -24.5 168c0 74 12.833 143 38.5 207s61.5 118.833 107.5 164.5
s102.333 81.5 169 107.5s139 39 217 39c76.667 0 148 -12.667 214 -38s122.333 -60.5 169 -105.5s83.167 -99.667 109.5 -164s39.5 -134.5 39.5 -210.5c0 -100.667 -22.667 -190.334 -68 -269.001s-108.333 -139.5 -189 -182.5s-172.334 -64.5 -275.001 -64.5zM613 223
c73.333 0 134.998 26 184.998 78s75 118 75 198c0 81.333 -24.667 147.833 -74 199.5s-111.333 77.5 -186 77.5c-22 0 -43.167 -2.33301 -63.5 -7s-39.166 -11.5 -56.499 -20.5s-33.333 -19.667 -48 -32s-27.667 -26.333 -39 -42s-21.166 -32.667 -29.499 -51
s-14.5 -38 -18.5 -59s-6 -42.833 -6 -65.5c0 -78 24.5 -143.5 73.5 -196.5s111.5 -79.5 187.5 -79.5z" />
    <glyph glyph-name="ocircumflex" unicode="&#xf4;" horiz-adv-x="1225" 
d="M609 1289l-102 -154h-245l227 306h237l239 -306h-247l-103 154h-6zM613 1017c102.667 0 194.334 -21.667 275.001 -65s143.667 -104.5 189 -183.5s68 -168.833 68 -269.5s-22.667 -190.334 -68 -269.001s-108.333 -139.5 -189 -182.5s-172.334 -64.5 -275.001 -64.5
c-52 0 -101.833 5.83301 -149.5 17.5s-91 28.334 -130 50.001s-74.333 48 -106 79s-58.167 65.5 -79.5 103.5s-37.833 79.5 -49.5 124.5s-17.5 92.167 -17.5 141.5c0 74 12.833 143 38.5 207s61.5 118.833 107.5 164.5s102.333 81.5 169 107.5s139 39 217 39zM613 223
c73.333 0 135.001 26 185.001 78s75 118 75 198c0 81.333 -24.667 147.833 -74 199.5s-111.333 77.5 -186 77.5c-51.333 0 -96.833 -12 -136.5 -36s-70.334 -57 -92.001 -99s-32.5 -89.333 -32.5 -142c0 -78 24.5 -143.5 73.5 -196.5s111.5 -79.5 187.5 -79.5z" />
    <glyph glyph-name="otilde" unicode="&#xf5;" horiz-adv-x="1225" 
d="M782 1131c-33.333 0 -63.832 5.33301 -91.499 16s-56.834 25.667 -87.501 45c-16.667 10 -29.5 17.333 -38.5 22s-20.5 9.33398 -34.5 14.001s-27 7 -39 7c-48 0 -86.333 -34 -115 -102l-160 69c22 72 54.167 129.667 96.5 173s92.166 65 149.499 65
c26 0 51 -3.33301 75 -10s41.5 -12.834 52.5 -18.501s27.167 -14.834 48.5 -27.501c18 -11.333 30.667 -19 38 -23s18.166 -8.66699 32.499 -14s27.833 -8 40.5 -8c16 0 31.333 4.16699 46 12.5s27.834 19.833 39.501 34.5s21.834 32.334 30.501 53.001l157 -52
c-21.333 -78.667 -52.833 -141 -94.5 -187s-90.167 -69 -145.5 -69zM613.001 -17c-62.667 0 -121.667 8.33301 -177 25s-104.5 40.334 -147.5 71.001s-80.167 67.167 -111.5 109.5s-55.166 89.833 -71.499 142.5s-24.5 108.667 -24.5 168c0 74 12.833 143 38.5 207
s61.5 118.833 107.5 164.5s102.333 81.5 169 107.5s139 39 217 39c76.667 0 148 -12.667 214 -38s122.333 -60.5 169 -105.5s83.167 -99.667 109.5 -164s39.5 -134.5 39.5 -210.5c0 -100.667 -22.667 -190.334 -68 -269.001s-108.333 -139.5 -189 -182.5
s-172.334 -64.5 -275.001 -64.5zM613.001 223c73.333 0 134.999 26 184.999 78s75 118 75 198c0 81.333 -24.667 147.833 -74 199.5s-111.333 77.5 -186 77.5c-77.333 0 -140.166 -26.167 -188.499 -78.5s-72.5 -118.5 -72.5 -198.5c0 -78 24.5 -143.5 73.5 -196.5
s111.5 -79.5 187.5 -79.5z" />
    <glyph glyph-name="odieresis" unicode="&#xf6;" horiz-adv-x="1225" 
d="M398 1141c-46.667 0 -86.167 16 -118.5 48s-48.5 70.667 -48.5 116c0 44.667 16.333 83 49 115s72 48 118 48c45.333 0 84.333 -16 117 -48s49 -70.333 49 -115c0 -45.333 -16.333 -84 -49 -116s-71.667 -48 -117 -48zM827 1143c-30 0 -57.666 7.33203 -82.999 21.999
s-45.333 34.334 -60 59.001s-22 51.667 -22 81c0 44 16.167 82 48.5 114s71.166 48 116.499 48c29.333 0 56.5 -7.33301 81.5 -22s45 -34.5 60 -59.5s22.5 -51.833 22.5 -80.5c0 -29.333 -7.5 -56.5 -22.5 -81.5s-35 -44.667 -60 -59s-52.167 -21.5 -81.5 -21.5z
M613.001 -17.001c-62.667 0 -121.667 8.33301 -177 25s-104.5 40.334 -147.5 71.001s-80.167 67.167 -111.5 109.5s-55.166 89.833 -71.499 142.5s-24.5 108.667 -24.5 168c0 74 12.833 143 38.5 207s61.5 118.833 107.5 164.5s102.333 81.5 169 107.5s139 39 217 39
c76.667 0 148 -12.667 214 -38s122.333 -60.5 169 -105.5s83.167 -99.667 109.5 -164s39.5 -134.5 39.5 -210.5c0 -100.667 -22.667 -190.334 -68 -269.001s-108.333 -139.5 -189 -182.5s-172.334 -64.5 -275.001 -64.5zM613.001 222.999c73.333 0 134.999 26 184.999 78
s75 118 75 198c0 81.333 -24.667 147.833 -74 199.5s-111.333 77.5 -186 77.5c-77.333 0 -140.166 -26.167 -188.499 -78.5s-72.5 -118.5 -72.5 -198.5c0 -78 24.5 -143.5 73.5 -196.5s111.5 -79.5 187.5 -79.5z" />
    <glyph glyph-name="divide" unicode="&#xf7;" horiz-adv-x="1170" 
d="M587 811c-44.667 0 -82.667 15.5 -114 46.5s-47 68.5 -47 112.5c0 43.333 15.667 80.5 47 111.5s69.333 46.5 114 46.5c44 0 81.833 -15.5 113.5 -46.5s47.5 -68.167 47.5 -111.5c0 -44 -15.833 -81.5 -47.5 -112.5s-69.5 -46.5 -113.5 -46.5zM111 450v234h972v-234h-972
zM587 -7c-29.333 0 -56.333 6.99902 -81 20.999s-44.167 33.333 -58.5 58s-21.5 51.334 -21.5 80.001c0 43.333 15.667 80.5 47 111.5s69.333 46.5 114 46.5c44 0 81.833 -15.5 113.5 -46.5s47.5 -68.167 47.5 -111.5c0 -44 -15.833 -81.5 -47.5 -112.5
s-69.5 -46.5 -113.5 -46.5z" />
    <glyph glyph-name="oslash" unicode="&#xf8;" horiz-adv-x="1225" 
d="M1147 944l-108.999 -117.999c71.333 -90 107 -199 107 -327c0 -100.667 -22.667 -190.334 -68 -269.001s-108.333 -139.5 -189 -182.5s-172.334 -64.5 -275.001 -64.5c-109.333 0 -206 24.333 -290 73l-105 -113l-118 110l99 107c-78.667 93.333 -118 206.333 -118 339
c0 74 12.833 143 38.5 207s61.5 118.833 107.5 164.5s102.333 81.5 169 107.5s139 39 217 39c116 0 218 -28 306 -84l111 120zM352.001 499.001c0 -50.667 10.999 -97 32.999 -139l357 383c-40 22 -83 33 -129 33c-77.333 0 -140.166 -26.167 -188.499 -78.5
s-72.5 -118.5 -72.5 -198.5zM873 499.001c0 43.333 -8 84.667 -24 124l-348 -375c34.667 -16.667 72 -25 112 -25c73.333 0 135 26 185 78s75 118 75 198z" />
    <glyph glyph-name="ugrave" unicode="&#xf9;" horiz-adv-x="1182" 
d="M764 1139h-259l-253 302l281 -1zM787 1000l267.999 -0.000976562v-1000h-268v122h-4c-38.667 -45.333 -83.5 -79.833 -134.5 -103.5s-105.167 -35.5 -162.5 -35.5c-56 0 -105.833 7.5 -149.5 22.5s-82.167 38.5 -115.5 70.5s-58.833 75 -76.5 129
s-26.5 118.333 -26.5 193v602h268v-532c0 -90 13.833 -153.167 41.5 -189.5s73.5 -54.5 137.5 -54.5c62.667 0 115.334 25.333 158.001 76s64 122.334 64 215.001v485z" />
    <glyph glyph-name="uacute" unicode="&#xfa;" horiz-adv-x="1182" 
d="M965 1441l-254 -302h-259l232 301zM787 1000l268 -0.000976562v-1000h-268v122h-4c-38.667 -45.333 -83.5 -79.833 -134.5 -103.5s-105.167 -35.5 -162.5 -35.5c-56 0 -105.667 7.5 -149 22.5s-81.833 38.5 -115.5 70.5s-59.334 75 -77.001 129s-26.5 118.333 -26.5 193
v602h268v-532c0 -90 13.833 -153.167 41.5 -189.5s73.5 -54.5 137.5 -54.5c62.667 0 115.334 25.333 158.001 76s64 122.334 64 215.001v485z" />
    <glyph glyph-name="ucircumflex" unicode="&#xfb;" horiz-adv-x="1182" 
d="M585 1289l-102 -154h-245l227 306h237l239 -306h-247l-103 154h-6zM787 1000l267.999 -0.000976562v-1000h-268v122h-4c-38.667 -45.333 -83.5 -79.833 -134.5 -103.5s-105.167 -35.5 -162.5 -35.5c-56 0 -105.833 7.5 -149.5 22.5s-82.167 38.5 -115.5 70.5
s-58.833 75 -76.5 129s-26.5 118.333 -26.5 193v602h268v-532c0 -90 13.833 -153.167 41.5 -189.5s73.5 -54.5 137.5 -54.5c62.667 0 115.334 25.333 158.001 76s64 122.334 64 215.001v485z" />
    <glyph glyph-name="udieresis" unicode="&#xfc;" horiz-adv-x="1182" 
d="M374 1141c-30.667 0 -58.832 7.33301 -84.499 22s-45.834 34.5 -60.501 59.5s-22 52.5 -22 82.5c0 44.667 16.333 83 49 115s72 48 118 48c45.333 0 84.333 -16 117 -48s49 -70.333 49 -115c0 -45.333 -16.333 -84 -49 -116s-71.667 -48 -117 -48zM803.002 1143
c-45.333 0 -84.168 15.833 -116.501 47.5s-48.5 69.834 -48.5 114.501c0 17.333 2.83301 34.166 8.5 50.499s13.5 31.166 23.5 44.499s21.833 25 35.5 35s28.834 17.833 45.501 23.5s34 8.5 52 8.5c44.667 0 83.167 -16.167 115.5 -48.5s48.5 -70.166 48.5 -113.499
c0 -22 -4.33301 -43 -13 -63s-20.5 -37.167 -35.5 -51.5s-32.5 -25.833 -52.5 -34.5s-41 -13 -63 -13zM787 1000l268 -0.000976562v-1000h-268v122h-4c-38.667 -45.333 -83.5 -79.833 -134.5 -103.5s-105.167 -35.5 -162.5 -35.5c-56 0 -105.667 7.5 -149 22.5
s-81.833 38.5 -115.5 70.5s-59.334 75 -77.001 129s-26.5 118.333 -26.5 193v602h268v-532c0 -90 13.833 -153.167 41.5 -189.5s73.5 -54.5 137.5 -54.5c62.667 0 115.334 25.333 158.001 76s64 122.334 64 215.001v485z" />
    <glyph glyph-name="yacute" unicode="&#xfd;" horiz-adv-x="1104" 
d="M906 1441l-254 -302h-259l232 301zM791 1000h278l-539 -1405h-274l178 467l-400 938h280l245 -619h3z" />
    <glyph glyph-name="thorn" unicode="&#xfe;" horiz-adv-x="1264" 
d="M711 1017c66 0 128.166 -13 186.499 -39s108.333 -61.667 150 -107s74.5 -100.333 98.5 -165s36 -134.334 36 -209.001c0 -76 -12 -146.167 -36 -210.5s-57.167 -118.666 -99.5 -162.999s-93 -78.833 -152 -103.5s-122.833 -37 -191.5 -37
c-125.333 0 -223.666 43 -294.999 129h-4v-517h-268v1913h268v-623h4c74.667 88 175.667 132 303 132zM653.999 223c75.333 0 136.833 25.333 184.5 76s71.5 116.334 71.5 197.001c0 84 -24.333 151.667 -73 203s-109.667 77 -183 77
c-50.667 0 -95.834 -12.167 -135.501 -36.5s-70.5 -57.833 -92.5 -100.5s-33 -90.334 -33 -143.001c0 -53.333 11.5 -101 34.5 -143s54.333 -74.167 94 -96.5s83.834 -33.5 132.501 -33.5z" />
    <glyph glyph-name="ydieresis" unicode="&#xff;" horiz-adv-x="1104" 
d="M339 1141c-30.667 0 -58.832 7.33301 -84.499 22s-45.834 34.5 -60.501 59.5s-22 52.5 -22 82.5c0 44.667 16.333 83 49 115s72 48 118 48c45.333 0 84.333 -16 117 -48s49 -70.333 49 -115c0 -45.333 -16.333 -84 -49 -116s-71.667 -48 -117 -48zM768.002 1143
c-45.333 0 -84.166 15.833 -116.499 47.5s-48.5 69.834 -48.5 114.501c0 44 16.167 82 48.5 114s71.166 48 116.499 48c29.333 0 56.5 -7.33301 81.5 -22s45 -34.5 60 -59.5s22.5 -51.833 22.5 -80.5c0 -44.667 -16.167 -82.834 -48.5 -114.501s-70.833 -47.5 -115.5 -47.5z
M791.002 1000h278l-539 -1405h-274l178 467l-400 938h280l245 -619h3z" />
    <glyph glyph-name="Amacron" unicode="&#x100;" horiz-adv-x="1430" 
d="M1028 1874v-214h-623v214h623zM1095 0l-99 291h-558l-99 -291h-301l539 1455h278l541 -1455h-301zM521 537h391l-195 571h-2z" />
    <glyph glyph-name="amacron" unicode="&#x101;" horiz-adv-x="1244" 
d="M930 1408v-214h-623v214h623zM849 1000h268v-1000h-255v121h-5c-71.333 -92 -171 -138 -299 -138c-68.667 0 -132.5 12.333 -191.5 37s-109.667 59.167 -152 103.5s-75.5 98.666 -99.5 162.999s-36 134.5 -36 210.5c0 74.667 12 144.334 36 209.001
s56.833 119.667 98.5 165s91.667 81 150 107s120.5 39 186.5 39c122 0 220.333 -43.333 295 -130h4v113zM607 223c71.333 0 131.334 25.333 180.001 76s73 116.334 73 197.001c0 80 -23.833 146.667 -71.5 200s-107.834 80 -180.501 80c-73.333 0 -134.5 -25.667 -183.5 -77
s-73.5 -119 -73.5 -203c0 -80.667 23.833 -146.334 71.5 -197.001s109.167 -76 184.5 -76z" />
    <glyph glyph-name="Abreve" unicode="&#x102;" horiz-adv-x="1430" 
d="M716 1594c-58 0 -110.998 11.6709 -158.998 35.0039s-88 58.666 -120 105.999s-50.333 103 -55 167h202c1.33301 -18 5.16602 -34.833 11.499 -50.5s15 -29.334 26 -41.001s24.667 -20.834 41 -27.501s34.166 -10 53.499 -10c36.667 0 67.167 11.667 91.5 35
s37.5 54.666 39.5 93.999h203c-7.33301 -90 -41 -163.833 -101 -221.5s-137.667 -86.5 -233 -86.5zM1095 0.00390625l-99 291h-558l-99 -291h-301l539 1455h278l541 -1455h-301zM521.002 537.004h391l-195 571h-2z" />
    <glyph glyph-name="abreve" unicode="&#x103;" horiz-adv-x="1244" 
d="M618 1128c-58 0 -111 11.668 -159 35.001s-88 58.666 -120 105.999s-50.333 103 -55 167h202c2.66699 -37.333 15.667 -68.166 39 -92.499s54.333 -36.5 93 -36.5c36.667 0 67.167 11.667 91.5 35s37.5 54.666 39.5 93.999h203c-7.33301 -90 -41 -163.833 -101 -221.5
s-137.667 -86.5 -233 -86.5zM849 1000h268v-1000h-255v121h-5c-71.333 -92 -171 -138 -299 -138c-68.667 0 -132.5 12.333 -191.5 37s-109.667 59.167 -152 103.5s-75.5 98.666 -99.5 162.999s-36 134.5 -36 210.5c0 74.667 12 144.334 36 209.001s56.833 119.667 98.5 165
s91.667 81 150 107s120.5 39 186.5 39c122 0 220.333 -43.333 295 -130h4v113zM607 223.001c71.333 0 131.331 25.332 179.998 75.999s73 116.334 73 197.001c0 39.333 -6.33301 76.333 -19 111s-30.167 64.334 -52.5 89.001s-49.166 44.167 -80.499 58.5
s-64.666 21.5 -99.999 21.5c-73.333 0 -134.5 -25.667 -183.5 -77s-73.5 -119 -73.5 -203c0 -80.667 23.833 -146.334 71.5 -197.001s109.167 -76 184.5 -76z" />
    <glyph glyph-name="Aogonek" unicode="&#x104;" horiz-adv-x="1430" 
d="M1254 -231c6 0 11.6709 0.166016 17.0039 0.499023s10 0.5 14 0.5s7.83301 0.333008 11.5 1s6.66699 1.33398 9 2.00098s5.16602 1.5 8.49902 2.5s5.66602 1.66699 6.99902 2s3.66602 1.16602 6.99902 2.49902s5.66602 2.33301 6.99902 3l13 -145
c-37.333 -16.667 -87 -25 -149 -25c-71.333 0 -127.833 17.167 -169.5 51.5s-62.5 79.5 -62.5 135.5c0 34 11 69.5 33 106.5s53.333 69.167 94 96.5l-98 288h-558l-99 -291h-301l539 1455h278l541 -1455h-59c-33.333 -6 -63 -16.833 -89 -32.5s-45.5 -33.667 -58.5 -54
s-19.5 -40.833 -19.5 -61.5c0 -17.333 3.16699 -32.166 9.5 -44.499s15.833 -21.833 28.5 -28.5s28 -10 46 -10zM521.004 536.999h391l-195 571h-2z" />
    <glyph glyph-name="aogonek" unicode="&#x105;" horiz-adv-x="1244" 
d="M1089 0c-50 -8.66699 -90.333 -27.3301 -121 -55.9971s-46 -59.334 -46 -92.001c0 -17.333 3.16699 -32.166 9.5 -44.499s15.833 -21.833 28.5 -28.5s28 -10 46 -10c7.33301 0 13.833 0.166992 19.5 0.5s10.834 0.666016 15.501 0.999023s8.5 0.666016 11.5 0.999023
s6.5 1.16602 10.5 2.49902l7.5 2.5c1 0.333008 3.66699 1.33301 8 3s7.16602 2.83398 8.49902 3.50098l13 -145c-37.333 -16.667 -87 -25 -149 -25c-71.333 0 -127.833 17.167 -169.5 51.5s-62.5 79.5 -62.5 135.5c0 36 12.333 73.667 37 113s60 72.666 106 99.999v108h-5
c-71.333 -92 -171 -138 -299 -138c-68.667 0 -132.5 12.333 -191.5 37s-109.667 59.167 -152 103.5s-75.5 98.666 -99.5 162.999s-36 134.5 -36 210.5c0 74.667 12 144.334 36 209.001s56.833 119.667 98.5 165s91.667 81 150 107s120.5 39 186.5 39
c122 0 220.333 -43.333 295 -130h4v113h268v-1000h-28zM607 223.004c71.333 0 131.334 25.334 180.001 76.001s73 116.334 73 197.001c0 80 -23.833 146.667 -71.5 200s-107.834 80 -180.501 80c-48 0 -91.333 -11.333 -130 -34s-69.5 -55.334 -92.5 -98.001
s-34.5 -92 -34.5 -148c0 -80.667 23.833 -146.334 71.5 -197.001s109.167 -76 184.5 -76z" />
    <glyph glyph-name="Cacute" unicode="&#x106;" horiz-adv-x="1486" 
d="M696 1605l232 301l281 1l-254 -302h-259zM842 -15c-80 0 -156.668 9.99902 -230.001 29.999s-141 50.667 -203 92s-115.833 90.833 -161.5 148.5s-81.5 126.5 -107.5 206.5s-39 167 -39 261c0 83.333 10.333 162.5 31 237.5s51.834 143.5 93.501 205.5
s91.667 115.833 150 161.5s127.333 81.167 207 106.5s166.167 38 259.5 38c68.667 0 136.334 -9.33301 203.001 -28s133.167 -49.334 199.5 -92.001s125.166 -95.667 176.499 -159l-211 -180c-45.333 54.667 -100 99.167 -164 133.5s-132 51.5 -204 51.5
c-36 0 -70.667 -3.66699 -104 -11s-64.666 -18.166 -93.999 -32.499s-56.5 -31.666 -81.5 -51.999s-47.333 -43.833 -67 -70.5s-36.5 -55.834 -50.5 -87.501s-24.667 -66.167 -32 -103.5s-11 -76.666 -11 -117.999c0 -89.333 18.5 -169.333 55.5 -240
s89 -125.834 156 -165.501s143.167 -59.5 228.5 -59.5c72.667 0 141 16.667 205 50s118.333 78 163 134l211 -181c-66.667 -83.333 -149.334 -150.166 -248.001 -200.499s-209 -75.5 -331 -75.5z" />
    <glyph glyph-name="cacute" unicode="&#x107;" horiz-adv-x="1088" 
d="M457 1139l232 301l281 1l-254 -302h-259zM595 -17c-98 0 -186 21.498 -264 64.498s-139.167 103.833 -183.5 182.5s-66.5 168.334 -66.5 269.001c0 101.333 22.333 191.333 67 270s107 139.667 187 183s171 65 273 65c82 0 161 -16.5 237 -49.5s138.667 -80.5 188 -142.5
l-181 -156c-61.333 71.333 -139 107 -233 107c-79.333 0 -143.5 -25.5 -192.5 -76.5s-73.5 -117.167 -73.5 -198.5c0 -82 24.833 -148.667 74.5 -200s114.167 -77 193.5 -77c49.333 0 93.833 9.5 133.5 28.5s72.5 43.167 98.5 72.5l184 -162
c-46 -53.333 -107.167 -96.666 -183.5 -129.999s-162.5 -50 -258.5 -50z" />
    <glyph glyph-name="Ccircumflex" unicode="&#x108;" horiz-adv-x="1486" 
d="M834 1755l-102 -154h-245l227 306h237l239 -306h-247l-103 154h-6zM842 258c48.667 0 96.332 8.00098 142.999 24.001s88.5 37.5 125.5 64.5s70.167 58.833 99.5 95.5l211 -181c-66.667 -83.333 -149.334 -150.166 -248.001 -200.499s-209 -75.5 -331 -75.5
c-80 0 -156.667 10 -230 30s-141 50.5 -203 91.5s-115.833 90.5 -161.5 148.5s-81.5 127 -107.5 207s-39 167 -39 261c0 83.333 10.333 162.5 31 237.5s51.834 143.5 93.501 205.5s91.667 115.833 150 161.5s127.333 81.167 207 106.5s166.167 38 259.5 38
c68.667 0 136.334 -9.33301 203.001 -28s133.167 -49.334 199.5 -92.001s125.166 -95.667 176.499 -159l-211 -180c-45.333 54.667 -100 99.167 -164 133.5s-132 51.5 -204 51.5c-42 0 -82.167 -5 -120.5 -15s-73.666 -24.5 -105.999 -43.5s-61.833 -42.333 -88.5 -70
s-49.167 -59 -67.5 -94s-32.5 -73.833 -42.5 -116.5s-15 -88 -15 -136c0 -89.333 18.5 -169.333 55.5 -240s89 -125.834 156 -165.501s143.167 -59.5 228.5 -59.5z" />
    <glyph glyph-name="ccircumflex" unicode="&#x109;" horiz-adv-x="1088" 
d="M603 1289l-102 -154h-245l227 306h237l239 -306h-247l-103 154h-6zM853 325l184 -162.002c-46 -53.333 -107.167 -96.666 -183.5 -129.999s-162.5 -50 -258.5 -50c-98 0 -186 21.5 -264 64.5s-139.167 103.833 -183.5 182.5s-66.5 168.334 -66.5 269.001
c0 101.333 22.167 191.333 66.5 270s106.666 139.667 186.999 183s171.5 65 273.5 65c82 0 161 -16.5 237 -49.5s138.667 -80.5 188 -142.5l-181 -156c-61.333 71.333 -139 107 -233 107c-39.333 0 -75.666 -6.83301 -108.999 -20.5s-61.5 -32.5 -84.5 -56.5
s-40.833 -53 -53.5 -87s-19 -71 -19 -111c0 -82 24.833 -148.667 74.5 -200s114.167 -77 193.5 -77c49.333 0 93.833 9.5 133.5 28.5s72.5 43.167 98.5 72.5z" />
    <glyph glyph-name="Cdotaccent" unicode="&#x10a;" horiz-adv-x="1486" 
d="M839 1607c-30 0 -57.832 7.33301 -83.499 22s-45.834 34.5 -60.501 59.5s-22 52.5 -22 82.5c0 44.667 16.167 83 48.5 115s71.5 48 117.5 48c45.333 0 84.333 -16 117 -48s49 -70.333 49 -115c0 -45.333 -16.333 -84 -49 -116s-71.667 -48 -117 -48zM842.001 -15
c-80 0 -156.67 10.002 -230.003 30.002s-141 50.667 -203 92s-115.833 90.833 -161.5 148.5s-81.5 126.5 -107.5 206.5s-39 167 -39 261c0 83.333 10.333 162.5 31 237.5s51.834 143.5 93.501 205.5s91.667 115.833 150 161.5s127.333 81.167 207 106.5s166.167 38 259.5 38
c68.667 0 136.334 -9.33301 203.001 -28s133.167 -49.334 199.5 -92.001s125.166 -95.667 176.499 -159l-211 -180c-45.333 54.667 -100.166 99.167 -164.499 133.5s-132.166 51.5 -203.499 51.5c-42 0 -82.167 -5 -120.5 -15s-73.666 -24.5 -105.999 -43.5
s-61.833 -42.333 -88.5 -70s-49.167 -58.834 -67.5 -93.501s-32.5 -73.5 -42.5 -116.5s-15 -88.5 -15 -136.5c0 -89.333 18.5 -169.333 55.5 -240s89 -125.834 156 -165.501s143.167 -59.5 228.5 -59.5c72.667 0 141 16.667 205 50s118.333 78 163 134l211 -181
c-66.667 -83.333 -149.334 -150.166 -248.001 -200.499s-209 -75.5 -331 -75.5z" />
    <glyph glyph-name="cdotaccent" unicode="&#x10b;" horiz-adv-x="1088" 
d="M608 1141c-30 0 -57.832 7.33301 -83.499 22s-45.834 34.5 -60.501 59.5s-22 52.5 -22 82.5c0 44.667 16.167 83 48.5 115s71.5 48 117.5 48c45.333 0 84.333 -16 117 -48s49 -70.333 49 -115c0 -45.333 -16.333 -84 -49 -116s-71.667 -48 -117 -48zM595.001 -17
c-98 0 -186.001 21.498 -264.001 64.498s-139.167 103.833 -183.5 182.5s-66.5 168.334 -66.5 269.001c0 101.333 22.333 191.333 67 270s107 139.667 187 183s171 65 273 65c82 0 161 -16.5 237 -49.5s138.667 -80.5 188 -142.5l-181 -156
c-61.333 71.333 -139 107 -233 107c-39.333 0 -75.666 -6.83301 -108.999 -20.5s-61.5 -32.5 -84.5 -56.5s-40.833 -53 -53.5 -87s-19 -71 -19 -111c0 -82 24.833 -148.667 74.5 -200s114.167 -77 193.5 -77c49.333 0 93.833 9.5 133.5 28.5s72.5 43.167 98.5 72.5l184 -162
c-46 -53.333 -107.167 -96.666 -183.5 -129.999s-162.5 -50 -258.5 -50z" />
    <glyph glyph-name="Ccaron" unicode="&#x10c;" horiz-adv-x="1486" 
d="M956 1601h-237l-232 306h246l102 -154h6l103 154h246zM842 258c72.667 0 140.999 16.668 204.999 50.001s118.333 78 163 134l211 -181c-66.667 -83.333 -149.334 -150.166 -248.001 -200.499s-209 -75.5 -331 -75.5c-80 0 -156.667 10 -230 30s-141 50.5 -203 91.5
s-115.833 90.5 -161.5 148.5s-81.5 127 -107.5 207s-39 167 -39 261c0 83.333 10.333 162.5 31 237.5s51.834 143.5 93.501 205.5s91.667 115.833 150 161.5s127.333 81.167 207 106.5s166.167 38 259.5 38c68.667 0 136.334 -9.33301 203.001 -28
s133.167 -49.334 199.5 -92.001s125.166 -95.667 176.499 -159l-211 -180c-45.333 54.667 -100 99.167 -164 133.5s-132 51.5 -204 51.5c-42 0 -82.167 -5 -120.5 -15s-73.666 -24.5 -105.999 -43.5s-61.833 -42.333 -88.5 -70s-49.167 -59 -67.5 -94
s-32.5 -73.833 -42.5 -116.5s-15 -88 -15 -136c0 -89.333 18.5 -169.333 55.5 -240s89 -125.834 156 -165.501s143.167 -59.5 228.5 -59.5z" />
    <glyph glyph-name="ccaron" unicode="&#x10d;" horiz-adv-x="1088" 
d="M725 1135h-237l-232 306h246l102 -154h6l103 154h246zM853 325l183.999 -162.002c-46 -53.333 -107.167 -96.666 -183.5 -129.999s-162.5 -50 -258.5 -50c-98 0 -186 21.5 -264 64.5s-139.167 103.833 -183.5 182.5s-66.5 168.334 -66.5 269.001
c0 101.333 22.333 191.333 67 270s107 139.667 187 183s171 65 273 65c82 0 161 -16.5 237 -49.5s138.667 -80.5 188 -142.5l-181 -156c-61.333 71.333 -139 107 -233 107c-39.333 0 -75.666 -6.83301 -108.999 -20.5s-61.5 -32.5 -84.5 -56.5s-40.833 -53 -53.5 -87
s-19 -71 -19 -111c0 -82 24.833 -148.667 74.5 -200s114.167 -77 193.5 -77c49.333 0 93.833 9.5 133.5 28.5s72.5 43.167 98.5 72.5z" />
    <glyph glyph-name="Dcaron" unicode="&#x10e;" horiz-adv-x="1496" 
d="M851 1600h-237l-232 306h246l102 -154h6l103 154h246zM641 1455c113.333 0 217.167 -18 311.5 -54s174 -85.833 239 -149.5s115.333 -140.667 151 -231s53.5 -188.833 53.5 -295.5s-17.167 -204.667 -51.5 -294s-83.333 -165.833 -147 -229.5
s-142.5 -113.167 -236.5 -148.5s-198.667 -53 -314 -53h-487v1455h481zM629.001 257c69.333 0 133.334 12 192.001 36s108.167 56.833 148.5 98.5s71.666 91.167 93.999 148.5s33.5 119 33.5 185c0 90 -19.167 171 -57.5 243s-91.833 128.167 -160.5 168.5
s-146 60.5 -232 60.5h-203v-940h185z" />
    <glyph glyph-name="dcaron" unicode="&#x10f;" horiz-adv-x="1369" 
d="M1305 1611h256l-131 -423h-189zM858 887v620.997h268v-1508h-255v121h-6c-72.667 -92 -174.667 -138 -306 -138c-54.667 0 -106.667 7.83301 -156 23.5s-93.5 38.5 -132.5 68.5s-72.833 65.833 -101.5 107.5s-50.667 89.334 -66 143.001s-23 110.834 -23 171.501
c0 74.667 12 144.334 36 209.001s56.833 119.667 98.5 165s91.667 81 150 107s120.5 39 186.5 39c126 0 226.667 -43.333 302 -130h5zM608 222.997c74.667 0 137.333 25.333 188 76s76 116.334 76 197.001s-24.833 147.5 -74.5 200.5s-112.5 79.5 -188.5 79.5
c-73.333 0 -134.5 -25.667 -183.5 -77s-73.5 -119 -73.5 -203c0 -80.667 23.833 -146.334 71.5 -197.001s109.167 -76 184.5 -76z" />
    <glyph glyph-name="Dcroat" unicode="&#x110;" horiz-adv-x="1496" 
d="M641 1455c113.333 0 217.167 -18 311.5 -54s174 -85.833 239 -149.5s115.333 -140.667 151 -231s53.5 -188.833 53.5 -295.5s-17.167 -204.667 -51.5 -294s-83.333 -165.833 -147 -229.5s-142.5 -113.167 -236.5 -148.5s-198.667 -53 -314 -53h-487v598h-110v241h110v616
h481zM629.001 257c92.667 0 174.668 20.499 246.001 61.499s126.166 96.833 164.499 167.5s57.5 150.334 57.5 239.001c0 90 -19.167 171 -57.5 243s-91.833 128.167 -160.5 168.5s-146 60.5 -232 60.5h-203v-358h226v-241h-226v-341h185z" />
    <glyph glyph-name="dcroat" unicode="&#x111;" horiz-adv-x="1248" 
d="M1247 1306v-171h-121v-1135h-255v121h-6c-72.667 -92 -174.667 -138 -306 -138c-39.333 0 -77.333 4 -114 12s-70.834 20 -102.501 36s-61.167 35 -88.5 57s-51.666 47.667 -72.999 77s-39.5 61 -54.5 95s-26.5 71.167 -34.5 111.5s-12 82.166 -12 125.499
c0 74.667 12 144.334 36 209.001s56.833 119.667 98.5 165s91.667 81 150 107s120.5 39 186.5 39c126 0 226.667 -43.333 302 -130h5v248h-203v171h203v202h268v-202h121zM608 223c48.667 0 93 11.168 133 33.501s71.833 54.5 95.5 96.5s35.5 89.667 35.5 143
c0 80.667 -24.833 147.5 -74.5 200.5s-112.5 79.5 -188.5 79.5c-73.333 0 -134.5 -25.667 -183.5 -77s-73.5 -119 -73.5 -203c0 -80.667 23.833 -146.334 71.5 -197.001s109.167 -76 184.5 -76z" />
    <glyph glyph-name="Emacron" unicode="&#x112;" horiz-adv-x="1228" 
d="M326 1659v214h623v-214h-623zM159 0v1455h930v-258h-646v-349h518v-254h-518v-337h689v-257h-973z" />
    <glyph glyph-name="emacron" unicode="&#x113;" horiz-adv-x="1146" 
d="M903 1408v-214h-623v214h623zM1068 509c0 -47.333 -2.33691 -79.333 -7.00391 -96h-701c16 -59.333 46.5 -106 91.5 -140s99.5 -51.333 163.5 -52c96.667 -0.666992 176.334 37 239.001 113l174 -162c-45.333 -57.333 -104.666 -103.166 -177.999 -137.499
s-158 -51.5 -254 -51.5c-97.333 0 -185 21.167 -263 63.5s-139.5 103.166 -184.5 182.499s-67.5 170 -67.5 272c0 74.667 12.5 144.167 37.5 208.5s59.5 119 103.5 164s96.667 80.167 158 105.5s127 38 197 38c96.667 0 182.334 -21.833 257.001 -65.5
s132.334 -104 173.001 -181s61 -164.167 61 -261.5zM585.996 781c-55.333 0 -102.832 -15 -142.499 -45s-67.167 -73.333 -82.5 -130h441c-14 54.667 -39.333 97.5 -76 128.5s-83.334 46.5 -140.001 46.5z" />
    <glyph glyph-name="Ebreve" unicode="&#x114;" horiz-adv-x="1228" 
d="M637 1593c-58 0 -110.999 11.6709 -158.999 35.0039s-88 58.666 -120 105.999s-50.333 103 -55 167h202c1.33301 -18 5.16602 -34.833 11.499 -50.5s15 -29.334 26 -41.001s24.667 -20.834 41 -27.501s34.166 -10 53.499 -10c37.333 0 68 11.667 92 35
s37 54.666 39 93.999h203c-3.33301 -44 -13.666 -84.833 -30.999 -122.5s-40 -70.167 -68 -97.5s-62.167 -48.833 -102.5 -64.5s-84.5 -23.5 -132.5 -23.5zM159.001 0.00390625v1455h930v-258h-646v-349h518v-254h-518v-337h689v-257h-973z" />
    <glyph glyph-name="ebreve" unicode="&#x115;" horiz-adv-x="1146" 
d="M591 1128c-58 0 -110.998 11.668 -158.998 35.001s-88 58.666 -120 105.999s-50.333 103 -55 167h202c2.66699 -37.333 15.667 -68.166 39 -92.499s54.333 -36.5 93 -36.5c36.667 0 67.167 11.667 91.5 35s37.5 54.666 39.5 93.999h203
c-4.66699 -58.667 -20.834 -111.167 -48.501 -157.5s-66.334 -83 -116.001 -110s-106.167 -40.5 -169.5 -40.5zM1068 509.001c0 -47.333 -2.33496 -79.333 -7.00195 -96h-701c16 -59.333 46.5 -106 91.5 -140s99.5 -51.333 163.5 -52
c96.667 -0.666992 176.334 37 239.001 113l174 -162c-45.333 -57.333 -104.666 -103.166 -177.999 -137.499s-158 -51.5 -254 -51.5c-97.333 0 -185 21.167 -263 63.5s-139.5 103.166 -184.5 182.499s-67.5 170 -67.5 272c0 74.667 12.5 144.167 37.5 208.5
s59.5 119 103.5 164s96.667 80.167 158 105.5s127 38 197 38c96 0 181.5 -21.833 256.5 -65.5s132.833 -104 173.5 -181s61 -164.167 61 -261.5zM586 781.001c-56 0 -103.667 -15 -143 -45s-66.666 -73.333 -81.999 -130h441c-14 54.667 -39.333 97.5 -76 128.5
s-83.334 46.5 -140.001 46.5z" />
    <glyph glyph-name="Edotaccent" unicode="&#x116;" horiz-adv-x="1228" 
d="M637 1606c-46 0 -85.167 16 -117.5 48s-48.5 70.667 -48.5 116c0 44.667 16.167 83 48.5 115s71.5 48 117.5 48c45.333 0 84.333 -16 117 -48s49 -70.333 49 -115c0 -45.333 -16.333 -84 -49 -116s-71.667 -48 -117 -48zM159 0v1455h930v-258h-646v-349h518v-254h-518
v-337h689v-257h-973z" />
    <glyph glyph-name="edotaccent" unicode="&#x117;" horiz-adv-x="1146" 
d="M591 1141c-46 0 -85.167 16 -117.5 48s-48.5 70.667 -48.5 116c0 44.667 16.167 83 48.5 115s71.5 48 117.5 48c45.333 0 84.333 -16 117 -48s49 -70.333 49 -115c0 -45.333 -16.333 -84 -49 -116s-71.667 -48 -117 -48zM1068 509
c0 -47.333 -2.33691 -79.333 -7.00391 -96h-701c16 -59.333 46.5 -106 91.5 -140s99.5 -51.333 163.5 -52c96.667 -0.666992 176.334 37 239.001 113l174 -162c-45.333 -57.333 -104.666 -103.166 -177.999 -137.499s-158 -51.5 -254 -51.5c-97.333 0 -185 21.167 -263 63.5
s-139.5 103.166 -184.5 182.499s-67.5 170 -67.5 272c0 74.667 12.667 144.167 38 208.5s59.833 119 103.5 164s96.167 80.167 157.5 105.5s127 38 197 38c96.667 0 182.334 -21.833 257.001 -65.5s132.334 -104 173.001 -181s61 -164.167 61 -261.5zM585.996 781
c-55.333 0 -102.832 -15 -142.499 -45s-67.167 -73.333 -82.5 -130h441c-14 54.667 -39.333 97.5 -76 128.5s-83.334 46.5 -140.001 46.5z" />
    <glyph glyph-name="Eogonek" unicode="&#x118;" horiz-adv-x="1228" 
d="M1109 0c-50 -8.66699 -90.3359 -27.3311 -121.003 -55.998s-46 -59.334 -46 -92.001c0 -26 7.33301 -46.333 22 -61s35.334 -22 62.001 -22c7.33301 0 13.833 0.166992 19.5 0.5s10.834 0.666016 15.501 0.999023s8.5 0.666016 11.5 0.999023s6.5 1.16602 10.5 2.49902
l7.5 2.5c1 0.333008 3.66699 1.33301 8 3s7.16602 2.83398 8.49902 3.50098l13 -145c-37.333 -16.667 -87 -25 -149 -25c-47.333 0 -88.666 7.83301 -123.999 23.5s-62.166 37.667 -80.499 66s-27.5 60.833 -27.5 97.5c0 32.667 10.167 66.834 30.5 102.501
s49.833 67.167 88.5 94.5v3h-699v1455h930v-258h-646v-349h518v-254h-518v-337h689v-257h-23z" />
    <glyph glyph-name="eogonek" unicode="&#x119;" horiz-adv-x="1146" 
d="M1068 509c0 -47.333 -2.33594 -79.332 -7.00293 -95.999h-701c16 -59.333 46.5 -106 91.5 -140s99.5 -51.333 163.5 -52c96.667 -0.666992 176.334 37 239.001 113l174 -162c-63.333 -81.333 -149 -136.666 -257 -165.999c-50.667 -18 -90.834 -39.667 -120.501 -65
s-44.5 -53.333 -44.5 -84c0 -15.333 3.33301 -28.833 10 -40.5s16.334 -20.834 29.001 -27.501s28 -10 46 -10c8 0 15.333 0.166992 22 0.5s12 0.666016 16 0.999023s8.5 1.16602 13.5 2.49902s8.16699 2.16602 9.5 2.49902s4.83301 1.66602 10.5 3.99902
s8.83398 3.5 9.50098 3.5l13 -150c-37.333 -16.667 -87 -25 -149 -25c-38.667 0 -73.334 4.5 -104.001 13.5s-56.167 21.833 -76.5 38.5s-36 36.334 -47 59.001s-16.5 48 -16.5 76c0 30 8.66699 61.333 26 94s42.333 62.334 75 89.001v4
c-122 21.333 -221.167 77.833 -297.5 169.5s-114.5 204.834 -114.5 339.501c0 74.667 12.667 144.167 38 208.5s59.833 119 103.5 164s96.167 80.167 157.5 105.5s127 38 197 38c96.667 0 182.334 -21.833 257.001 -65.5s132.334 -104 173.001 -181s61 -164.167 61 -261.5z
M585.997 781.001c-55.333 0 -102.832 -15 -142.499 -45s-67.167 -73.333 -82.5 -130h441c-14 54.667 -39.333 97.5 -76 128.5s-83.334 46.5 -140.001 46.5z" />
    <glyph glyph-name="Ecaron" unicode="&#x11a;" horiz-adv-x="1228" 
d="M754 1600h-237l-232 306h246l102 -154h6l103 154h246zM443 257h689v-257h-973v1455h930v-258h-646v-349h518v-254h-518v-337z" />
    <glyph glyph-name="ecaron" unicode="&#x11b;" horiz-adv-x="1146" 
d="M708 1135h-237l-232 306h246l102 -154h6l103 154h246zM1068 509c0 -47.333 -2.33691 -79.333 -7.00391 -96h-701c16 -59.333 46.5 -106 91.5 -140s99.5 -51.333 163.5 -52c96.667 -0.666992 176.334 37 239.001 113l174 -162
c-45.333 -57.333 -104.666 -103.166 -177.999 -137.499s-158 -51.5 -254 -51.5c-97.333 0 -185 21.167 -263 63.5s-139.5 103.166 -184.5 182.499s-67.5 170 -67.5 272c0 74.667 12.667 144.167 38 208.5s59.833 119 103.5 164s96.167 80.167 157.5 105.5s127 38 197 38
c96.667 0 182.334 -21.833 257.001 -65.5s132.334 -104 173.001 -181s61 -164.167 61 -261.5zM585.996 781c-55.333 0 -102.832 -15 -142.499 -45s-67.167 -73.333 -82.5 -130h441c-14 54.667 -39.333 97.5 -76 128.5s-83.334 46.5 -140.001 46.5z" />
    <glyph glyph-name="Gcircumflex" unicode="&#x11c;" horiz-adv-x="1542" 
d="M813 1754l-102 -154h-245l227 306h237l239 -306h-247l-103 154h-6zM811 793l604.998 0.000976562v-627c-67.333 -54.667 -152.166 -98.334 -254.499 -131.001s-208.5 -49 -318.5 -49c-104.667 0 -202.167 16.833 -292.5 50.5s-168.833 81.5 -235.5 143.5
s-119 139.833 -157 233.5s-57 197.5 -57 311.5c0 106 17 204.667 51 296s81.833 170.333 143.5 237s138.5 119 230.5 157s193.667 57 305 57c107.333 0 212.333 -21.167 315 -63.5s190.334 -104.166 263.001 -185.499l-204 -173c-104 100.667 -228.667 151 -374 151
c-60 0 -116 -11 -168 -33s-97.5 -53 -136.5 -93s-69.667 -90.167 -92 -150.5s-33.5 -126.833 -33.5 -199.5c0 -66.667 10.333 -129 31 -187s49.667 -108.333 87 -151s84 -76.334 140 -101.001s117.333 -37 184 -37c108 0 206.333 27.667 295 83v214h-327v247z" />
    <glyph glyph-name="gcircumflex" unicode="&#x11d;" horiz-adv-x="1239" 
d="M603 1289l-102 -154h-245l227 306h237l239 -306h-247l-103 154h-6zM845 1000l267.998 -0.000976562v-885c0 -64 -5.66699 -122.667 -17 -176s-30 -102.5 -56 -147.5s-59 -83.167 -99 -114.5s-89.5 -55.666 -148.5 -72.999s-126.167 -26 -201.5 -26
c-156 0 -292.667 33.667 -410 101l62 226c54.667 -30 107.667 -53 159 -69s106.666 -24 165.999 -24c90 0 159.667 21 209 63s74 95 74 159v101h-5c-74 -78 -171 -117 -291 -117c-91.333 0 -173.166 20.667 -245.499 62s-129 99.5 -170 174.5s-61.5 160.167 -61.5 255.5
c0 96.667 19.833 183.667 59.5 261s94.834 137.666 165.501 180.999s150 65 238 65c57.333 0 111.833 -10.167 163.5 -30.5s96.834 -50.166 135.501 -89.499h5v103zM603.998 260.999c74 0 134.667 24.334 182 73.001s71 110.667 71 186s-24.167 136.333 -72.5 183
s-108.5 70 -180.5 70c-74.667 0 -135.667 -23.667 -183 -71s-71 -108.666 -71 -183.999c0 -31.333 4.16699 -60.5 12.5 -87.5s20.166 -50.833 35.499 -71.5s33.5 -38.334 54.5 -53.001s44.333 -25.834 70 -33.501s52.834 -11.5 81.501 -11.5z" />
    <glyph glyph-name="Gbreve" unicode="&#x11e;" horiz-adv-x="1542" 
d="M818 1593c-58 0 -110.998 11.6709 -158.998 35.0039s-88 58.666 -120 105.999s-50.333 103 -55 167h202c1.33301 -18 5.16602 -34.833 11.499 -50.5s15 -29.334 26 -41.001s24.667 -20.834 41 -27.501s34.166 -10 53.499 -10c37.333 0 68 11.667 92 35
s37 54.666 39 93.999h203c-7.33301 -90 -41 -163.833 -101 -221.5s-137.667 -86.5 -233 -86.5zM843.002 -13.9961c-104.667 0 -202.169 16.834 -292.502 50.501s-168.833 81.5 -235.5 143.5s-119 139.833 -157 233.5s-57 197.5 -57 311.5c0 106 17 204.667 51 296
s81.833 170.333 143.5 237s138.5 119 230.5 157s193.667 57 305 57c107.333 0 212.333 -21.167 315 -63.5s190.334 -104.166 263.001 -185.499l-204 -173c-104 100.667 -228.667 151 -374 151c-60 0 -116 -11 -168 -33s-97.5 -53 -136.5 -93s-69.667 -90.167 -92 -150.5
s-33.5 -126.833 -33.5 -199.5c0 -66.667 10.333 -129 31 -187s49.667 -108.333 87 -151s84 -76.334 140 -101.001s117.333 -37 184 -37c108 0 206.333 27.667 295 83v214h-327v247h605v-627c-67.333 -54.667 -152.166 -98.334 -254.499 -131.001s-208.5 -49 -318.5 -49z" />
    <glyph glyph-name="gbreve" unicode="&#x11f;" horiz-adv-x="1239" 
d="M608 1128c-58 0 -111 11.668 -159 35.001s-88 58.666 -120 105.999s-50.333 103 -55 167h202c2.66699 -37.333 15.667 -68.166 39 -92.499s54.333 -36.5 93 -36.5c37.333 0 68 11.667 92 35s37 54.666 39 93.999h203c-7.33301 -90 -41 -163.833 -101 -221.5
s-137.667 -86.5 -233 -86.5zM845 1000l267.998 -0.000976562v-885c0 -64 -5.66699 -122.667 -17 -176s-30 -102.5 -56 -147.5s-59 -83.167 -99 -114.5s-89.5 -55.666 -148.5 -72.999s-126.167 -26 -201.5 -26c-156 0 -292.667 33.667 -410 101l62 226
c54.667 -30 107.667 -53 159 -69s106.666 -24 165.999 -24c90 0 159.667 21 209 63s74 95 74 159v101h-5c-74 -78 -171 -117 -291 -117c-91.333 0 -173.166 20.667 -245.499 62s-129 99.5 -170 174.5s-61.5 160.167 -61.5 255.5c0 96.667 19.833 183.667 59.5 261
s94.834 137.666 165.501 180.999s150 65 238 65c57.333 0 111.833 -10.167 163.5 -30.5s96.834 -50.166 135.501 -89.499h5v103zM603.998 261c74 0 134.667 24.334 182 73.001s71 110.667 71 186s-24.167 136.333 -72.5 183s-108.5 70 -180.5 70
c-74.667 0 -135.667 -23.667 -183 -71s-71 -108.666 -71 -183.999c0 -31.333 4.16699 -60.5 12.5 -87.5s20.166 -50.833 35.499 -71.5s33.5 -38.334 54.5 -53.001s44.333 -25.834 70 -33.501s52.834 -11.5 81.501 -11.5z" />
    <glyph glyph-name="Gdotaccent" unicode="&#x120;" horiz-adv-x="1542" 
d="M818 1606c-46 0 -85.167 16 -117.5 48s-48.5 70.667 -48.5 116c0 44.667 16.167 83 48.5 115s71.5 48 117.5 48c30 0 57.667 -7.33301 83 -22s45.5 -34.5 60.5 -59.5s22.5 -52.167 22.5 -81.5c0 -45.333 -16.333 -84 -49 -116s-71.667 -48 -117 -48zM843 -14
c-104.667 0 -202.169 16.834 -292.502 50.501s-168.833 81.5 -235.5 143.5s-119 139.833 -157 233.5s-57 197.5 -57 311.5c0 106 17 204.667 51 296s81.833 170.333 143.5 237s138.5 119 230.5 157s193.667 57 305 57c107.333 0 212.333 -21.167 315 -63.5
s190.334 -104.166 263.001 -185.499l-204 -173c-104 100.667 -228.667 151 -374 151c-60 0 -116 -11 -168 -33s-97.5 -53 -136.5 -93s-69.667 -90.167 -92 -150.5s-33.5 -126.833 -33.5 -199.5c0 -66.667 10.333 -129 31 -187s49.667 -108.333 87 -151
s84 -76.334 140 -101.001s117.333 -37 184 -37c108 0 206.333 27.667 295 83v214h-327v247h605v-627c-67.333 -54.667 -152.166 -98.334 -254.499 -131.001s-208.5 -49 -318.5 -49z" />
    <glyph glyph-name="gdotaccent" unicode="&#x121;" horiz-adv-x="1239" 
d="M608 1141c-30 0 -57.832 7.33301 -83.499 22s-45.834 34.5 -60.501 59.5s-22 52.5 -22 82.5c0 44.667 16.167 83 48.5 115s71.5 48 117.5 48c45.333 0 84.333 -16 117 -48s49 -70.333 49 -115c0 -45.333 -16.333 -84 -49 -116s-71.667 -48 -117 -48zM845.001 1000
l267.997 -0.000976562v-885c0 -64 -5.66699 -122.667 -17 -176s-30 -102.5 -56 -147.5s-59 -83.167 -99 -114.5s-89.5 -55.666 -148.5 -72.999s-126.167 -26 -201.5 -26c-156 0 -292.667 33.667 -410 101l62 226c36 -19.333 69.333 -35.5 100 -48.5s65.667 -23.667 105 -32
s79.333 -12.5 120 -12.5c90 0 159.667 21 209 63s74 95 74 159v101h-5c-74 -78 -171 -117 -291 -117c-91.333 0 -173.166 20.667 -245.499 62s-129 99.5 -170 174.5s-61.5 160.167 -61.5 255.5c0 96.667 19.833 183.667 59.5 261s94.834 137.666 165.501 180.999
s150 65 238 65c57.333 0 111.833 -10.167 163.5 -30.5s96.834 -50.166 135.501 -89.499h5v103zM603.998 260.999c74 0 134.667 24.334 182 73.001s71 110.667 71 186s-24.167 136.333 -72.5 183s-108.5 70 -180.5 70c-74.667 0 -135.667 -23.667 -183 -71
s-71 -108.666 -71 -183.999c0 -31.333 4.16699 -60.5 12.5 -87.5s20.166 -50.833 35.499 -71.5s33.5 -38.334 54.5 -53.001s44.333 -25.834 70 -33.501s52.834 -11.5 81.501 -11.5z" />
    <glyph glyph-name="Gcommaaccent" unicode="&#x122;" horiz-adv-x="1542" 
d="M843 -14c-104.667 0 -202.17 16.833 -292.503 50.5s-168.833 81.5 -235.5 143.5s-119 139.833 -157 233.5s-57 197.5 -57 311.5c0 106 17 204.667 51 296s81.833 170.333 143.5 237s138.5 119 230.5 157s193.667 57 305 57c107.333 0 212.333 -21.167 315 -63.5
s190.334 -104.166 263.001 -185.499l-204 -173c-104 100.667 -228.667 151 -374 151c-60 0 -116 -11 -168 -33s-97.5 -53 -136.5 -93s-69.667 -90.167 -92 -150.5s-33.5 -126.833 -33.5 -199.5c0 -89.333 17.667 -169.833 53 -241.5s86.833 -128.667 154.5 -171
s145.834 -63.5 234.501 -63.5c108 0 206.333 27.667 295 83v214h-327v247h605v-627c-67.333 -54.667 -152.166 -98.334 -254.499 -131.001s-208.5 -49 -318.5 -49zM656.997 -451l-56 151c40.667 12 69.5 26.5 86.5 43.5s25.5 40.5 25.5 70.5c0 19.333 -4 45.333 -12 78h231
c6 -26 9 -56.667 9 -92c0 -82.667 -26.167 -146 -78.5 -190s-120.833 -64.333 -205.5 -61z" />
    <glyph glyph-name="gcommaaccent" unicode="&#x123;" horiz-adv-x="1239" 
d="M731 1151h-231c-6 26 -9 56.667 -9 92c0 82.667 26.167 146 78.5 190s120.833 64.333 205.5 61l56 -151c-40.667 -12 -69.5 -26.5 -86.5 -43.5s-25.5 -40.5 -25.5 -70.5c0 -19.333 4 -45.333 12 -78zM845 1000l267.998 -0.000976562v-885
c0 -64 -5.66699 -122.667 -17 -176s-30 -102.5 -56 -147.5s-59 -83.167 -99 -114.5s-89.5 -55.666 -148.5 -72.999s-126.167 -26 -201.5 -26c-156 0 -292.667 33.667 -410 101l62 226c54.667 -30 107.667 -53 159 -69s106.666 -24 165.999 -24c90 0 159.667 21 209 63
s74 95 74 159v101h-5c-74 -78 -171 -117 -291 -117c-91.333 0 -173.166 20.667 -245.499 62s-129 99.5 -170 174.5s-61.5 160.167 -61.5 255.5c0 96.667 19.833 183.667 59.5 261s94.834 137.666 165.501 180.999s150 65 238 65c57.333 0 111.833 -10.167 163.5 -30.5
s96.834 -50.166 135.501 -89.499h5v103zM603.998 260.999c74 0 134.667 24.334 182 73.001s71 110.667 71 186s-24.167 136.333 -72.5 183s-108.5 70 -180.5 70c-74.667 0 -135.667 -23.667 -183 -71s-71 -108.666 -71 -183.999c0 -31.333 4.16699 -60.5 12.5 -87.5
s20.166 -50.833 35.499 -71.5s33.5 -38.334 54.5 -53.001s44.333 -25.834 70 -33.501s52.834 -11.5 81.501 -11.5z" />
    <glyph glyph-name="Hcircumflex" unicode="&#x124;" horiz-adv-x="1493" 
d="M748 1755l-102 -154h-245l227 306h237l239 -306h-247l-103 154h-6zM1044 1455h290v-1455h-290v568h-595v-568h-289v1455h289v-630h595v630z" />
    <glyph glyph-name="hcircumflex" unicode="&#x125;" horiz-adv-x="1222" 
d="M511 1778l-102 -154h-245l227 306h237l239 -306h-247l-103 154h-6zM733 1017c56 0 105.831 -7.5 149.498 -22.5s82.167 -38.5 115.5 -70.5s59 -75.167 77 -129.5s27 -118.833 27 -193.5v-602h-269v534c0 88.667 -15.833 151.334 -47.5 188.001s-80.834 55 -147.501 55
c-73.333 0 -130.666 -22.833 -171.999 -68.5s-62 -112.5 -62 -200.5v-507h-268v1508h268v-629h4c40.667 45.333 88.834 79.666 144.501 102.999s115.834 35 180.501 35z" />
    <glyph glyph-name="Hbar" unicode="&#x126;" horiz-adv-x="1498" 
d="M1436 1228v-169h-100v-1059h-290v568h-595v-568h-289v1059h-99v169h99v227h289v-227h595v227h290v-227h100zM1046 825v234h-595v-234h595z" />
    <glyph glyph-name="hbar" unicode="&#x127;" horiz-adv-x="1222" 
d="M733 1017c56 0 105.831 -7.5 149.498 -22.5s82.167 -38.5 115.5 -70.5s59 -75.167 77 -129.5s27 -118.833 27 -193.5v-602h-269v534c0 88.667 -15.833 151.334 -47.5 188.001s-80.834 55 -147.501 55c-73.333 0 -130.666 -22.833 -171.999 -68.5s-62 -112.5 -62 -200.5
v-507h-268v1135h-124v171h124v202h268v-202h200v-171h-200v-256h4c40.667 45.333 88.834 79.666 144.501 102.999s115.834 35 180.501 35z" />
    <glyph glyph-name="Itilde" unicode="&#x128;" horiz-adv-x="628" 
d="M480 1596c-23.333 0 -46.667 3.33301 -70 10s-42.5 13.834 -57.5 21.501s-32.167 17.5 -51.5 29.5c-16.667 10 -29.5 17.333 -38.5 22s-20.5 9.33398 -34.5 14.001s-27 7 -39 7c-48 0 -86.333 -34 -115 -102l-160 69c14.667 46.667 33.167 87.5 55.5 122.5s50 63 83 84
s68.833 31.5 107.5 31.5c26 0 51 -3.33301 75 -10s41.5 -12.834 52.5 -18.501s27.167 -14.834 48.5 -27.501c1.33301 -0.666992 3.33301 -2 6 -4c15.333 -9.33301 27 -16.333 35 -21s18.667 -9.16699 32 -13.5s26 -6.5 38 -6.5c24 0 46 8.83301 66 26.5
s36.667 42.167 50 73.5l157 -52c-21.333 -78.667 -52.833 -141 -94.5 -187s-90.167 -69 -145.5 -69zM168.999 0v1455h290v-1455h-290z" />
    <glyph glyph-name="itilde" unicode="&#x129;" horiz-adv-x="564" 
d="M451 1131c-33.333 0 -63.833 5.33105 -91.5 15.998s-56.834 25.667 -87.501 45c-5.33301 3.33301 -13.666 8.66602 -24.999 15.999s-19.5 12.333 -24.5 15s-12 5.33398 -21 8.00098s-18.167 4 -27.5 4c-17.333 0 -34.5 -9 -51.5 -27s-32.167 -43 -45.5 -75l-160 69
c22 71.333 52.667 128.833 92 172.5s83.333 65.5 132 65.5c10.667 0 20.667 -0.5 30 -1.5s17.833 -2.16699 25.5 -3.5s15.334 -3.33301 23.001 -6s14.167 -5 19.5 -7s11.5 -5 18.5 -9s12.5 -7.16699 16.5 -9.5s9.66699 -5.66602 17 -9.99902s12.666 -7.5 15.999 -9.5
c16 -10 28.333 -17.5 37 -22.5s20 -10 34 -15s27.333 -7.5 40 -7.5c16 0 31.333 4.16699 46 12.5s27.667 19.833 39 34.5s21.333 32.334 30 53.001l158 -52c-21.333 -78 -52.833 -140.167 -94.5 -186.5s-90.167 -69.5 -145.5 -69.5zM148 -0.00195312v1000h268v-1000h-268z
" />
    <glyph glyph-name="Imacron" unicode="&#x12a;" horiz-adv-x="628" 
d="M1 1659v214h623v-214h-623zM169 0v1455h290v-1455h-290z" />
    <glyph glyph-name="imacron" unicode="&#x12b;" horiz-adv-x="564" 
d="M-29 1194v214h623v-214h-623zM148 0v1000h268v-1000h-268z" />
    <glyph glyph-name="Ibreve" unicode="&#x12c;" horiz-adv-x="628" 
d="M312 1593c-58 0 -110.997 11.6699 -158.997 35.0029s-88 58.666 -120 105.999s-50.333 103 -55 167h202c0.666992 -14.667 3.16699 -28.334 7.5 -41.001s10.333 -24.5 18 -35.5s16.667 -20.333 27 -28s22.166 -13.667 35.499 -18s28 -6.5 44 -6.5
c37.333 0 68 11.667 92 35s37 54.666 39 93.999h203c-4.66699 -58.667 -20.834 -111.167 -48.501 -157.5s-66.334 -83 -116.001 -110s-106.167 -40.5 -169.5 -40.5zM169.003 0.00292969v1455h290v-1455h-290z" />
    <glyph glyph-name="ibreve" unicode="&#x12d;" horiz-adv-x="564" 
d="M282 1128c-81.333 0 -149.5 27.168 -204.5 81.501s-86.167 129.833 -93.5 226.5h199c2.66699 -38.667 12.167 -69.834 28.5 -93.501s39.833 -35.5 70.5 -35.5c28 0 50.833 11.5 68.5 34.5s27.5 54.5 29.5 94.5h199c-6.66699 -91.333 -36 -165.5 -88 -222.5
s-121.667 -85.5 -209 -85.5zM148 0.000976562v1000h268v-1000h-268z" />
    <glyph glyph-name="Iogonek" unicode="&#x12e;" horiz-adv-x="628" 
d="M412 0c-50 -8.66699 -90.3301 -27.332 -120.997 -55.999s-46 -59.334 -46 -92.001c0 -26 7.33301 -46.333 22 -61s35.334 -22 62.001 -22c6 0 11.667 0.166992 17 0.5s10 0.5 14 0.5s7.83301 0.333008 11.5 1s6.66699 1.33398 9 2.00098s5.16602 1.5 8.49902 2.5
s5.66602 1.66699 6.99902 2s3.66602 1.16602 6.99902 2.49902s5.66602 2.33301 6.99902 3l13 -145c-37.333 -16.667 -87 -25 -149 -25c-71.333 0 -127.833 17.167 -169.5 51.5s-62.5 79.5 -62.5 135.5c0 34 11 69.5 33 106.5s53.333 69.167 94 96.5v1452h290v-1455h-47z" />
    <glyph glyph-name="iogonek" unicode="&#x12f;" horiz-adv-x="564" 
d="M282 1141c-30 0 -57.832 7.33301 -83.499 22s-45.834 34.5 -60.501 59.5s-22 52.5 -22 82.5c0 44.667 16.167 83 48.5 115s71.5 48 117.5 48c45.333 0 84.333 -16 117 -48s49 -70.333 49 -115c0 -45.333 -16.333 -84 -49 -116s-71.667 -48 -117 -48zM148.001 3
l0.00292969 997.002h268v-1000h-26c-50 -8.66699 -90.333 -27.334 -121 -56.001s-46 -59.334 -46 -92.001c0 -26 7.33301 -46.333 22 -61s35.334 -22 62.001 -22c6 0 11.667 0.166992 17 0.5s10 0.5 14 0.5s7.83301 0.333008 11.5 1s6.66699 1.33398 9 2.00098
s5.16602 1.5 8.49902 2.5s5.66602 1.66699 6.99902 2s3.66602 1.16602 6.99902 2.49902s5.66602 2.33301 6.99902 3l13 -145c-37.333 -16.667 -87 -25 -149 -25c-71.333 0 -127.833 17.167 -169.5 51.5s-62.5 79.5 -62.5 135.5c0 34 11 69.5 33 106.5s53.667 69.167 95 96.5
z" />
    <glyph glyph-name="Idotaccent" unicode="&#x130;" horiz-adv-x="628" 
d="M312 1606c-46 0 -85.167 16 -117.5 48s-48.5 70.667 -48.5 116c0 44.667 16.167 83 48.5 115s71.5 48 117.5 48c45.333 0 84.333 -16 117 -48s49 -70.333 49 -115c0 -45.333 -16.333 -84 -49 -116s-71.667 -48 -117 -48zM169 0v1455h290v-1455h-290z" />
    <glyph glyph-name="dotlessi" unicode="&#x131;" horiz-adv-x="564" 
d="M148 0v1000h268v-1000h-268z" />
    <glyph glyph-name="IJ" unicode="&#x132;" horiz-adv-x="1664" 
d="M169 0v1455h290v-1455h-290zM1076 -14c-75.333 0 -148.667 16.167 -220 48.5s-131 79.5 -179 141.5l164 203c27.333 -36 60.5 -65.833 99.5 -89.5s77.833 -35.5 116.5 -35.5c118 0 177 84.333 177 253v948h289v-943c0 -82.667 -8.16699 -155.5 -24.5 -218.5
s-41.833 -117.833 -76.5 -164.5s-81 -82.167 -139 -106.5s-127 -36.5 -207 -36.5z" />
    <glyph glyph-name="ij" unicode="&#x133;" horiz-adv-x="1091" 
d="M828 1147c-46 0 -85.167 16 -117.5 48s-48.5 70.667 -48.5 116c0 44.667 16.167 83 48.5 115s71.5 48 117.5 48c45.333 0 84.333 -16 117 -48s49 -70.333 49 -115c0 -45.333 -16.333 -84 -49 -116s-71.667 -48 -117 -48zM282 1141c-30 0 -57.832 7.33301 -83.499 22
s-45.834 34.5 -60.501 59.5s-22 52.5 -22 82.5c0 44.667 16.167 83 48.5 115s71.5 48 117.5 48c45.333 0 84.333 -16 117 -48s49 -70.333 49 -115c0 -45.333 -16.333 -84 -49 -116s-71.667 -48 -117 -48zM148.001 0v1000h268v-1000h-268zM670.001 -422
c-30 0 -56.501 1.16797 -79.501 3.50098s-44.667 6.16602 -65 11.499s-41.833 12.333 -64.5 21l45 223c29.333 -16.667 59 -25 89 -25c32.667 0 57.834 11.667 75.501 35s26.5 58 26.5 104v1049h268v-1060c0 -117.333 -26.5 -207 -79.5 -269s-124.833 -93 -215.5 -93z" />
    <glyph glyph-name="Jcircumflex" unicode="&#x134;" horiz-adv-x="1036" 
d="M747 1755l-102 -154h-245l227 306h237l239 -306h-247l-103 154h-6zM606 507l-0.000976562 947.999h289v-943c0 -46.667 -2.5 -90.167 -7.5 -130.5s-13 -78.5 -24 -114.5s-24.833 -68.5 -41.5 -97.5s-37 -55 -61 -78s-51.167 -42.167 -81.5 -57.5
s-65 -27.166 -104 -35.499s-81.5 -12.5 -127.5 -12.5c-75.333 0 -148.666 16.167 -219.999 48.5s-131 79.5 -179 141.5l164 203c27.333 -36 60.5 -65.833 99.5 -89.5s77.833 -35.5 116.5 -35.5c118 0 177 84.333 177 253z" />
    <glyph glyph-name="jcircumflex" unicode="&#x135;" horiz-adv-x="527" 
d="M259 1295l-102 -154h-245l227 306h237l239 -306h-247l-103 154h-6zM133 -49l-0.000976562 1049h268v-1060c0 -117.333 -26.5 -207 -79.5 -269s-124.833 -93 -215.5 -93c-44 0 -81.5 2.66699 -112.5 8s-63.167 14.666 -96.5 27.999l45 223c29.333 -16.667 59 -25 89 -25
c32.667 0 57.834 11.667 75.501 35s26.5 58 26.5 104z" />
    <glyph glyph-name="Kcommaaccent" unicode="&#x136;" horiz-adv-x="1364" 
d="M780 813l554 -813h-355l-388 583h-3l-141 -169v-414h-287v1455h287v-641h2l503 641h364zM578 -108h231c6 -26 9 -56.667 9 -92c0 -82.667 -26.167 -146 -78.5 -190s-120.833 -64.333 -205.5 -61l-56 151c40.667 12 69.5 26.5 86.5 43.5s25.5 40.5 25.5 70.5
c0 19.333 -4 45.333 -12 78z" />
    <glyph glyph-name="kcommaaccent" unicode="&#x137;" horiz-adv-x="1104" 
d="M725 602l359 -602h-299l-238 398h-3l-141 -159v-239h-268v1508h268v-911h4l357 403h314zM458 -108h231c6 -26 9 -56.667 9 -92c0 -82.667 -26.167 -146 -78.5 -190s-120.833 -64.333 -205.5 -61l-56 151c40.667 12 69.5 26.5 86.5 43.5s25.5 40.5 25.5 70.5
c0 18.667 -4 44.667 -12 78z" />
    <glyph glyph-name="kgreenlandic" unicode="&#x138;" horiz-adv-x="1106" 
d="M547 398h-3l-141 -159v-239h-268v1000h268v-406h2l359 406h315l-354 -398l361 -602h-300z" />
    <glyph glyph-name="Lacute" unicode="&#x139;" horiz-adv-x="1159" 
d="M380 1605l232 301l281 1l-254 -302h-259zM160 0v1455h288v-1198h647v-257h-935z" />
    <glyph glyph-name="lacute" unicode="&#x13a;" horiz-adv-x="563" 
d="M151 1633l232 301l281 1l-254 -302h-259zM148 0v1508h268v-1508h-268z" />
    <glyph glyph-name="Lcommaaccent" unicode="&#x13b;" horiz-adv-x="1159" 
d="M160 0v1455h288v-1198h647v-257h-935zM460 -451l-56 151c40.667 12 69.5 26.5 86.5 43.5s25.5 40.5 25.5 70.5c0 19.333 -4 45.333 -12 78h231c6 -26 9 -56.667 9 -92c0 -82.667 -26.167 -146 -78.5 -190s-120.833 -64.333 -205.5 -61z" />
    <glyph glyph-name="lcommaaccent" unicode="&#x13c;" horiz-adv-x="563" 
d="M148 0v1508h268v-1508h-268zM117 -451l-56 151c40.667 12 69.5 26.5 86.5 43.5s25.5 40.5 25.5 70.5c0 18.667 -4 44.667 -12 78h231c6 -26 9 -56.667 9 -92c0 -82.667 -26.167 -146 -78.5 -190s-120.833 -64.333 -205.5 -61z" />
    <glyph glyph-name="Lcaron" unicode="&#x13d;" horiz-adv-x="1159" 
d="M673 1188l64 423h256l-131 -423h-189zM160 0v1455h288v-1198h647v-257h-935z" />
    <glyph glyph-name="lcaron" unicode="&#x13e;" horiz-adv-x="656" 
d="M529 1188l64 423h255l-130 -423h-189zM148 0v1508h268v-1508h-268z" />
    <glyph glyph-name="Ldot" unicode="&#x13f;" horiz-adv-x="1159" 
d="M160 0v1455h288v-1198h647v-257h-935zM884 534c-22.667 0 -44.334 4.33496 -65.001 13.002s-38.5 20.167 -53.5 34.5s-26.833 31.666 -35.5 51.999s-13 41.5 -13 63.5c0 45.333 16.167 84 48.5 116s71.833 48 118.5 48c22 0 43.167 -4.33301 63.5 -13
s38 -20.334 53 -35.001s26.833 -32.167 35.5 -52.5s13 -41.5 13 -63.5c0 -44.667 -16.167 -83 -48.5 -115s-71.166 -48 -116.499 -48z" />
    <glyph glyph-name="ldot" unicode="&#x140;" horiz-adv-x="952" 
d="M148 0v1508h268v-1508h-268zM761 362c-46.667 0 -86.167 15.833 -118.5 47.5s-48.5 70.167 -48.5 115.5s16.167 84 48.5 116s71.833 48 118.5 48c45.333 0 84.166 -16.167 116.499 -48.5s48.5 -70.833 48.5 -115.5s-16.167 -83 -48.5 -115s-71.166 -48 -116.499 -48z" />
    <glyph glyph-name="Lslash" unicode="&#x141;" horiz-adv-x="1178" 
d="M467 257h647v-257h-935v546l-143 -68v234l143 68v675h288v-539l162 77v-235l-162 -76v-425z" />
    <glyph glyph-name="lslash" unicode="&#x142;" horiz-adv-x="619" 
d="M565 906v-242l-115 -55v-609h-268v482l-121 -57v241l121 58v784h268v-657z" />
    <glyph glyph-name="Nacute" unicode="&#x143;" horiz-adv-x="1546" 
d="M1072 1907l-254 -302h-259l232 301zM1098 1455h288v-1455h-295l-640 964h-4v-964h-287v1455h287l647 -983h4v983z" />
    <glyph glyph-name="nacute" unicode="&#x144;" horiz-adv-x="1212" 
d="M943 1441l-254 -302h-259l232 301zM728 1017c55.333 0 104.498 -7.83398 147.498 -23.501s81 -39.834 114 -72.501s58.167 -76.667 75.5 -132s26 -120.666 26 -195.999v-594h-268v527c0 92 -15.667 156.667 -47 194s-79.666 56 -144.999 56
c-69.333 0 -124.5 -23.667 -165.5 -71s-61.5 -114.666 -61.5 -201.999v-503h-268v1000h268v-129h3c40.667 47.333 88.834 83.5 144.501 108.5s114.5 37.5 176.5 37.5z" />
    <glyph glyph-name="Ncommaaccent" unicode="&#x145;" horiz-adv-x="1546" 
d="M1098 1455h288v-1455h-295l-640 964h-4v-964h-287v1455h287l647 -983h4v983zM651 -108h231c6 -26 9 -56.667 9 -92c0 -82.667 -26.167 -146 -78.5 -190s-120.833 -64.333 -205.5 -61l-56 151c40.667 12 69.5 26.5 86.5 43.5s25.5 40.5 25.5 70.5
c0 18.667 -4 44.667 -12 78z" />
    <glyph glyph-name="ncommaaccent" unicode="&#x146;" horiz-adv-x="1212" 
d="M728 1017c55.333 0 104.498 -7.83398 147.498 -23.501s81 -39.834 114 -72.501s58.167 -76.667 75.5 -132s26 -120.666 26 -195.999v-594h-268v527c0 92 -15.667 156.667 -47 194s-79.666 56 -144.999 56c-69.333 0 -124.5 -23.667 -165.5 -71
s-61.5 -114.666 -61.5 -201.999v-503h-268v1000h268v-129h3c40.667 47.333 88.834 83.5 144.501 108.5s114.5 37.5 176.5 37.5zM483.998 -108.001l230.999 -0.000976562c6 -26 9 -56.667 9 -92c0 -55.333 -12.333 -102.5 -37 -141.5s-58.167 -67.667 -100.5 -86
s-91.166 -26.166 -146.499 -23.499l-56 151c40.667 12 69.5 26.5 86.5 43.5s25.5 40.5 25.5 70.5c0 19.333 -4 45.333 -12 78z" />
    <glyph glyph-name="Ncaron" unicode="&#x147;" horiz-adv-x="1546" 
d="M893 1601h-237l-232 306h246l102 -154h6l103 154h246zM1098 1455h288v-1455h-295l-640 964h-4v-964h-287v1455h287l647 -983h4v983z" />
    <glyph glyph-name="ncaron" unicode="&#x148;" horiz-adv-x="1212" 
d="M732 1135h-237l-232 306h246l102 -154h6l103 154h246zM728 1017c55.333 0 104.498 -7.83398 147.498 -23.501s81 -39.834 114 -72.501s58.167 -76.667 75.5 -132s26 -120.666 26 -195.999v-594h-268v527c0 92 -15.667 156.667 -47 194s-79.666 56 -144.999 56
c-69.333 0 -124.5 -23.667 -165.5 -71s-61.5 -114.666 -61.5 -201.999v-503h-268v1000h268v-129h3c40.667 47.333 88.834 83.5 144.501 108.5s114.5 37.5 176.5 37.5z" />
    <glyph glyph-name="napostrophe" unicode="&#x149;" horiz-adv-x="1422" 
d="M-30 1012l64 443h255l-130 -443h-189zM938 1017c55.333 0 104.499 -7.83398 147.499 -23.501s81 -39.834 114 -72.501s58.167 -76.667 75.5 -132s26 -120.666 26 -195.999v-594h-268v527c0 62.667 -7.66699 112.667 -23 150s-36.5 63.333 -63.5 78s-62.167 22 -105.5 22
c-69.333 0 -124.5 -23.667 -165.5 -71s-61.5 -114.666 -61.5 -201.999v-503h-268v1000h268v-129h3c40.667 47.333 88.834 83.5 144.501 108.5s114.5 37.5 176.5 37.5z" />
    <glyph glyph-name="Eng" unicode="&#x14a;" horiz-adv-x="1546" 
d="M1099 1455h287.001v-1510c0 -118.667 -27.667 -209.5 -83 -272.5s-132 -94.5 -230 -94.5c-75.333 0 -145.333 12 -210 36l45 213c29.333 -16.667 59 -25 89 -25c31.333 0 56.166 12.667 74.499 38s27.5 59 27.5 101v47l-649 976h-4v-964h-286v1455h285l650 -984h4v984z
" />
    <glyph glyph-name="eng" unicode="&#x14b;" horiz-adv-x="1176" 
d="M715 1017c52 0 98.3301 -8.00098 138.997 -24.001s76.334 -40.5 107.001 -73.5s54.167 -77.167 70.5 -132.5s24.5 -120.333 24.5 -195v-647c0 -117.333 -26.667 -207.833 -80 -271.5s-124.666 -95.5 -213.999 -95.5c-44.667 0 -82.5 2.66699 -113.5 8
s-63.167 14.666 -96.5 27.999l45 213c29.333 -16.667 59 -25 89 -25c31.333 0 56.166 12.667 74.499 38s27.5 59 27.5 101v583c0 46.667 -3 85.834 -9 117.501s-15.833 57.667 -29.5 78s-31.167 34.833 -52.5 43.5s-48 13 -80 13c-59.333 0 -109.666 -24.5 -150.999 -73.5
s-62 -116.5 -62 -202.5v-500h-268v1000h268v-128h4c20 22.667 42.5 43.334 67.5 62.001s50.833 34 77.5 46s53.834 21.167 81.501 27.5s54.5 9.5 80.5 9.5z" />
    <glyph glyph-name="Omacron" unicode="&#x14c;" horiz-adv-x="1682" 
d="M533 1660v214h623v-214h-623zM842 -17c-108.667 0 -209.168 18.666 -301.501 55.999s-170.666 88.833 -234.999 154.5s-114.666 144.5 -150.999 236.5s-54.5 191.333 -54.5 298s18.167 206 54.5 298s86.666 170.667 150.999 236s142.833 116.666 235.5 153.999
s193 56 301 56c106 0 204.5 -18.167 295.5 -54.5s169.167 -86.666 234.5 -150.999s116.666 -142.833 153.999 -235.5s56 -193.667 56 -303s-18.667 -210.5 -56 -303.5s-88.666 -171.667 -153.999 -236s-143.5 -114.666 -234.5 -150.999s-189.5 -54.5 -295.5 -54.5z
M842.999 250.999c62 0 120.167 12.165 174.5 36.498s101 57.333 140 99s69.667 92.167 92 151.5s33.5 122.666 33.5 189.999c0 90 -19.167 171.333 -57.5 244s-91 129.334 -158 170.001s-141.833 61 -224.5 61c-85.333 0 -162 -21.167 -230 -63.5
s-120.5 -99.666 -157.5 -171.999s-55.5 -152.166 -55.5 -239.499c0 -88 18.5 -168.167 55.5 -240.5s89.5 -129.833 157.5 -172.5s144.667 -64 230 -64z" />
    <glyph glyph-name="omacron" unicode="&#x14d;" horiz-adv-x="1225" 
d="M303 1194v214h623v-214h-623zM613 -17c-62.667 0 -121.667 8.33301 -177 25s-104.5 40.334 -147.5 71.001s-80.167 67.167 -111.5 109.5s-55.166 89.833 -71.499 142.5s-24.5 108.667 -24.5 168c0 74 12.833 143 38.5 207s61.5 118.833 107.5 164.5
s102.333 81.5 169 107.5s139 39 217 39c76.667 0 148 -12.667 214 -38s122.333 -60.5 169 -105.5s83.167 -99.667 109.5 -164s39.5 -134.5 39.5 -210.5c0 -100.667 -22.667 -190.334 -68 -269.001s-108.333 -139.5 -189 -182.5s-172.334 -64.5 -275.001 -64.5zM613 223
c73.333 0 134.999 26 184.999 78s75 118 75 198c0 81.333 -24.667 147.833 -74 199.5s-111.333 77.5 -186 77.5c-77.333 0 -140.166 -26.167 -188.499 -78.5s-72.5 -118.5 -72.5 -198.5c0 -78 24.5 -143.5 73.5 -196.5s111.5 -79.5 187.5 -79.5z" />
    <glyph glyph-name="Obreve" unicode="&#x14e;" horiz-adv-x="1682" 
d="M844 1594c-58 0 -110.998 11.6709 -158.998 35.0039s-88 58.666 -120 105.999s-50.333 103 -55 167h202c1.33301 -18 5.16602 -34.833 11.499 -50.5s15 -29.334 26 -41.001s24.667 -20.834 41 -27.501s34.166 -10 53.499 -10c36.667 0 67.167 11.667 91.5 35
s37.5 54.666 39.5 93.999h203c-7.33301 -90 -41 -163.833 -101 -221.5s-137.667 -86.5 -233 -86.5zM842.002 -16.9961c-108.667 0 -209.167 18.668 -301.5 56.001s-170.666 88.666 -234.999 153.999s-114.666 144.166 -150.999 236.499s-54.5 191.833 -54.5 298.5
s18.167 206 54.5 298s86.666 170.667 150.999 236s142.666 116.666 234.999 153.999s192.833 56 301.5 56c106 0 204.5 -18.167 295.5 -54.5s169.167 -86.666 234.5 -150.999s116.666 -142.833 153.999 -235.5s56 -193.667 56 -303s-18.667 -210.5 -56 -303.5
s-88.666 -171.667 -153.999 -236s-143.5 -114.666 -234.5 -150.999s-189.5 -54.5 -295.5 -54.5zM843.002 251.005c62 0 120.167 11.998 174.5 35.998s101 57 140 99s69.667 92.667 92 152s33.5 122.666 33.5 189.999c0 90 -19.167 171.333 -57.5 244
s-91 129.334 -158 170.001s-141.833 61 -224.5 61c-85.333 0 -162 -21.167 -230 -63.5s-120.5 -99.666 -157.5 -171.999s-55.5 -152.166 -55.5 -239.499c0 -88 18.5 -168.167 55.5 -240.5s89.5 -129.833 157.5 -172.5s144.667 -64 230 -64z" />
    <glyph glyph-name="obreve" unicode="&#x14f;" horiz-adv-x="1225" 
d="M614 1128c-58 0 -111 11.668 -159 35.001s-88 58.666 -120 105.999s-50.333 103 -55 167h202c2.66699 -37.333 15.667 -68.166 39 -92.499s54.333 -36.5 93 -36.5c36.667 0 67.167 11.667 91.5 35s37.5 54.666 39.5 93.999h203c-7.33301 -90 -41 -163.833 -101 -221.5
s-137.667 -86.5 -233 -86.5zM613 -16.999c-62.667 0 -121.668 8.33301 -177.001 25s-104.5 40.334 -147.5 71.001s-80.167 67.167 -111.5 109.5s-55.166 89.833 -71.499 142.5s-24.5 108.667 -24.5 168c0 74 12.833 143 38.5 207s61.5 118.833 107.5 164.5
s102.333 81.5 169 107.5s139 39 217 39c102.667 0 194.334 -21.667 275.001 -65s143.667 -104.5 189 -183.5s68 -168.833 68 -269.5s-22.667 -190.334 -68 -269.001s-108.333 -139.5 -189 -182.5s-172.334 -64.5 -275.001 -64.5zM612.999 223.001
c73.333 0 135.001 26 185.001 78s75 118 75 198c0 81.333 -24.667 147.833 -74 199.5s-111.333 77.5 -186 77.5c-51.333 0 -96.833 -12 -136.5 -36s-70.334 -57 -92.001 -99s-32.5 -89.333 -32.5 -142c0 -78 24.5 -143.5 73.5 -196.5s111.5 -79.5 187.5 -79.5z" />
    <glyph glyph-name="Ohungarumlaut" unicode="&#x150;" horiz-adv-x="1682" 
d="M514 1605l231 301l269 1l-253 -302h-247zM932 1605l230 301l270 1l-254 -302h-246zM842 -17c-108.667 0 -209.168 18.666 -301.501 55.999s-170.666 88.833 -234.999 154.5s-114.666 144.5 -150.999 236.5s-54.5 191.333 -54.5 298s18.167 206 54.5 298
s86.666 170.667 150.999 236s142.833 116.666 235.5 153.999s193 56 301 56c106 0 204.5 -18.167 295.5 -54.5s169.167 -86.666 234.5 -150.999s116.666 -142.833 153.999 -235.5s56 -193.667 56 -303s-18.667 -210.5 -56 -303.5s-88.666 -171.667 -153.999 -236
s-143.5 -114.666 -234.5 -150.999s-189.5 -54.5 -295.5 -54.5zM842.999 250.999c62 0 120.167 12.165 174.5 36.498s101 57.333 140 99s69.667 92.167 92 151.5s33.5 122.666 33.5 189.999c0 90 -19.167 171.333 -57.5 244s-91 129.334 -158 170.001s-141.833 61 -224.5 61
c-85.333 0 -162 -21.167 -230 -63.5s-120.5 -99.666 -157.5 -171.999s-55.5 -152.166 -55.5 -239.499c0 -88 18.5 -168.167 55.5 -240.5s89.5 -129.833 157.5 -172.5s144.667 -64 230 -64z" />
    <glyph glyph-name="ohungarumlaut" unicode="&#x151;" horiz-adv-x="1225" 
d="M254 1139l231 301l269 1l-253 -302h-247zM672 1139l230 301l270 1l-254 -302h-246zM613 -17c-62.667 0 -121.668 8.33301 -177.001 25s-104.5 40.334 -147.5 71.001s-80.167 67.167 -111.5 109.5s-55.166 89.833 -71.499 142.5s-24.5 108.667 -24.5 168
c0 74 12.833 143 38.5 207s61.5 118.833 107.5 164.5s102.333 81.5 169 107.5s139 39 217 39c102.667 0 194.334 -21.667 275.001 -65s143.667 -104.5 189 -183.5s68 -168.833 68 -269.5s-22.667 -190.334 -68 -269.001s-108.333 -139.5 -189 -182.5
s-172.334 -64.5 -275.001 -64.5zM612.999 223c73.333 0 134.999 26 184.999 78s75 118 75 198c0 81.333 -24.667 147.833 -74 199.5s-111.333 77.5 -186 77.5c-77.333 0 -140.166 -26.167 -188.499 -78.5s-72.5 -118.5 -72.5 -198.5c0 -78 24.5 -143.5 73.5 -196.5
s111.5 -79.5 187.5 -79.5z" />
    <glyph glyph-name="OE" unicode="&#x152;" horiz-adv-x="1969" 
d="M1185 257l688 -0.000976562v-257h-1030c-108.667 0 -209.334 18.667 -302.001 56s-171.167 88.333 -235.5 153s-114.666 141.834 -150.999 231.501s-54.5 185.5 -54.5 287.5c0 102.667 18.167 198.667 54.5 288s86.666 166.333 150.999 231s142.833 115.5 235.5 152.5
s193.334 55.5 302.001 55.5h989v-257h-647v-352h525v-250h-525v-339zM843 267.999l66 0.999023v918h-66c-82.667 0 -158 -19.833 -226 -59.5s-121.333 -94.667 -160 -165s-58 -148.5 -58 -234.5c0 -85.333 19.333 -163.333 58 -234s92 -126.167 160 -166.5
s143.333 -60.166 226 -59.499z" />
    <glyph glyph-name="oe" unicode="&#x153;" horiz-adv-x="1658" 
d="M1603 509c0 -34 -2.33008 -66.668 -6.99707 -98.001h-601c12 -59.333 35.167 -105.833 69.5 -139.5s78.5 -50.5 132.5 -50.5c36.667 0 70.834 10 102.501 30s57.834 45.667 78.501 77l184 -156c-26.667 -36.667 -58.834 -69 -96.501 -97s-81.167 -50.333 -130.5 -67
s-101 -25 -155 -25c-68 0 -130.833 12.833 -188.5 38.5s-107.167 62.5 -148.5 110.5h-5c-40 -47.333 -87.5 -84 -142.5 -110s-114.5 -39 -178.5 -39c-66.667 0 -128.5 12.833 -185.5 38.5s-105.167 61.167 -144.5 106.5s-70 99.833 -92 163.5s-33 132.834 -33 207.501
c0 74 11.833 143.333 35.5 208s56.167 119.5 97.5 164.5s90.666 80.5 147.999 106.5s118.666 39 183.999 39c40.667 0 79.834 -5.83301 117.501 -17.5s72.667 -28.334 105 -50.001s61.5 -48.167 87.5 -79.5h6c41.333 46.667 90.166 82.834 146.499 108.501
s118.166 38.5 185.499 38.5c82 0 155.667 -21.833 221 -65.5s116.166 -104.167 152.499 -181.5s54.5 -164.333 54.5 -261zM1170 780.999c-45.333 0 -82.834 -14.833 -112.501 -44.5s-50.167 -72.167 -61.5 -127.5h345c-11.333 54 -31.666 96.167 -60.999 126.5
s-66 45.5 -110 45.5zM519.002 222.999c54.667 0 101.001 26 139.001 78s57 118 57 198c0 54 -8 102 -24 144s-38.5 74.667 -67.5 98s-61.5 35 -97.5 35c-52.667 0 -97.834 -26.5 -135.501 -79.5s-56.5 -118.833 -56.5 -197.5c0 -80 17.167 -146 51.5 -198
s78.833 -78 133.5 -78z" />
    <glyph glyph-name="Racute" unicode="&#x154;" horiz-adv-x="1346" 
d="M956 1907l-254 -302h-259l232 301zM1278 0l-340.998 0.000976562l-326 498h-167v-498h-284v1455h550c85.333 0 160.833 -12 226.5 -36s118.667 -58 159 -102s70.666 -95 90.999 -153s30.5 -122.667 30.5 -194c0 -76 -12.167 -143.5 -36.5 -202.5
s-58.333 -107.833 -102 -146.5s-96.834 -68.334 -159.501 -89.001v-4zM444.002 1199l0.00195312 -447h202c87.333 0 154.666 20.167 201.999 60.5s71 94.833 71 163.5s-22.833 123 -68.5 163s-109.834 60 -192.501 60h-214z" />
    <glyph glyph-name="racute" unicode="&#x155;" horiz-adv-x="768" 
d="M755 1441l-254 -302h-259l232 301zM407 853c38 52.667 83.001 93.168 135.001 121.501s107.667 42.5 167 42.5c10 0 17 -0.333008 21 -1v-294c-26.667 2 -50.334 3 -71.001 3c-80 0 -142.5 -24.333 -187.5 -73s-67.5 -111.334 -67.5 -188.001v-464h-268v1000h268v-147h3z
" />
    <glyph glyph-name="Rcommaaccent" unicode="&#x156;" horiz-adv-x="1346" 
d="M919 528l359.003 -527.999h-341l-326 498h-167v-498h-284v1455h550c86 0 161.667 -12 227 -36s118.166 -58 158.499 -102s70.666 -95 90.999 -153s30.5 -122.667 30.5 -194c0 -76 -12.167 -143.5 -36.5 -202.5s-58.333 -107.833 -102 -146.5
s-96.834 -68.334 -159.501 -89.001v-4zM444.003 1199l0.000976562 -446.999h202c58 0 107.667 9.33301 149 28s72.333 44.667 93 78s31 72.666 31 117.999c0 68.667 -22.833 123 -68.5 163s-109.834 60 -192.501 60h-214zM552.004 -107.998h231c6 -25.333 9 -56 9 -92
c0 -82.667 -26.167 -146 -78.5 -190s-120.833 -64.333 -205.5 -61l-56 151c40.667 12 69.5 26.5 86.5 43.5s25.5 40.5 25.5 70.5c0 18.667 -4 44.667 -12 78z" />
    <glyph glyph-name="rcommaaccent" unicode="&#x157;" horiz-adv-x="768" 
d="M709 1017c10 0 17.001 -0.332031 21.001 -0.999023v-294c-26.667 2 -50.334 3 -71.001 3c-80 0 -142.5 -24.333 -187.5 -73s-67.5 -111.334 -67.5 -188.001v-464h-268v1000h268v-147h3c38 52.667 83 93.167 135 121.5s107.667 42.5 167 42.5zM153.001 -107.999
l230.999 0.00195312c6 -26 9 -56.667 9 -92c0 -82.667 -26.167 -146 -78.5 -190s-120.833 -64.333 -205.5 -61l-56 151c14 4 26.167 8.16699 36.5 12.5s19.833 9.16602 28.5 14.499s15.834 10.833 21.501 16.5s10.5 12.167 14.5 19.5s6.83301 15.166 8.5 23.499
s2.5 17.5 2.5 27.5c0 19.333 -4 45.333 -12 78z" />
    <glyph glyph-name="Rcaron" unicode="&#x158;" horiz-adv-x="1346" 
d="M777 1601h-237l-232 306h246l102 -154h6l103 154h246zM1278 0l-340.997 0.000976562l-326 498h-167v-498h-284v1455h550c86 0 161.667 -12 227 -36s118.166 -58 158.499 -102s70.666 -95 90.999 -153s30.5 -122.667 30.5 -194c0 -76 -12.167 -143.5 -36.5 -202.5
s-58.333 -107.833 -102 -146.5s-96.834 -68.334 -159.501 -89.001v-4zM444.003 1199l0.00195312 -447h202c87.333 0 154.666 20.167 201.999 60.5s71 94.833 71 163.5s-22.833 123 -68.5 163s-109.834 60 -192.501 60h-214z" />
    <glyph glyph-name="rcaron" unicode="&#x159;" horiz-adv-x="768" 
d="M576 1135h-237l-232 306h246l102 -154h6l103 154h246zM407 853c38 52.667 83.001 93.168 135.001 121.501s107.667 42.5 167 42.5c10 0 17 -0.333008 21 -1v-294c-26.667 2 -50.334 3 -71.001 3c-80 0 -142.5 -24.333 -187.5 -73s-67.5 -111.334 -67.5 -188.001v-464
h-268v1000h268v-147h3z" />
    <glyph glyph-name="Sacute" unicode="&#x15a;" horiz-adv-x="1196" 
d="M449 1605l232 301l281 1l-254 -302h-259zM597 -17c-96.667 0 -190.497 18.9971 -281.497 56.9971s-173.833 95.333 -248.5 172l173 213c18 -20.667 37 -39.667 57 -57s40.167 -32.666 60.5 -45.999s41 -25 62 -35s41.833 -18.167 62.5 -24.5s41 -11.166 61 -14.499
s39.667 -5 59 -5c34 0 64.333 3.83301 91 11.5s48.5 18.334 65.5 32.001s30 29.834 39 48.501s13.5 39.334 13.5 62.001c0 21.333 -3.33301 40.333 -10 57s-15.834 31.334 -27.501 44.001s-28.667 25.167 -51 37.5s-45.5 23.333 -69.5 33s-55.667 21.167 -95 34.5
c-35.333 12.667 -66.666 24.334 -93.999 35.001s-57 24.167 -89 40.5s-59.667 32.666 -83 48.999s-46.5 36 -69.5 59s-41.667 47.333 -56 73s-26 55.334 -35 89.001s-13.5 69.5 -13.5 107.5c0 76.667 20.667 146.667 62 210s97.666 113.166 168.999 149.499
s150 55.166 236 56.499c176 2 339.333 -59 490 -183l-166 -217c-116.667 95.333 -222.334 143 -317.001 143c-51.333 0 -93.166 -13 -125.499 -39s-48.833 -61.667 -49.5 -107c0 -18 3.33301 -34.333 10 -49s15.667 -27.834 27 -39.501s28.166 -23.667 50.499 -36
s44.666 -23.333 66.999 -33s52.5 -21.834 90.5 -36.501c121.333 -47.333 201.666 -81.666 240.999 -102.999c90.667 -49.333 151 -110.333 181 -183c18.667 -45.333 28 -98 28 -158c0 -61.333 -10.333 -117.5 -31 -168.5s-48 -93.333 -82 -127s-73.5 -62.334 -118.5 -86.001
s-91.167 -40.667 -138.5 -51s-95.666 -15.5 -144.999 -15.5z" />
    <glyph glyph-name="sacute" unicode="&#x15b;" horiz-adv-x="917" 
d="M299 1139l232 301l281 1l-254 -302h-259zM459 -17c-158.667 0 -293.666 48.9951 -404.999 146.995l130 185c83.333 -78 175.666 -117 276.999 -117c38 0 68 7.66699 90 23s33 35.333 33 60c0 22 -13 40.333 -39 55s-73.667 33.334 -143 56.001
c-36.667 12 -68.834 24 -96.501 36s-55.334 27.333 -83.001 46s-50.5 39 -68.5 61s-32.5 48.5 -43.5 79.5s-16.5 65.167 -16.5 102.5c0 59.333 15.833 111.833 47.5 157.5s74.667 80.834 129 105.501s115.5 37 183.5 37c70 0 134.333 -10 193 -30s116.334 -52 173.001 -96
l-130 -196c-37.333 35.333 -76.833 61.833 -118.5 79.5s-81.834 26.5 -120.501 26.5c-25.333 0 -48 -6.5 -68 -19.5s-30 -31.5 -30 -55.5c0 -13.333 6 -26.166 18 -38.499s28.333 -23.666 49 -33.999s48.334 -22.166 83.001 -35.499c110.667 -40.667 184.667 -73 222 -97
c64.667 -40 103.334 -93.333 116.001 -160c4 -20 6 -42.333 6 -67c0 -92.667 -33.167 -167.667 -99.5 -225s-162.5 -86 -288.5 -86z" />
    <glyph glyph-name="Scircumflex" unicode="&#x15c;" horiz-adv-x="1196" 
d="M591 1755l-102 -154h-245l227 306h237l239 -306h-247l-103 154h-6zM662 875c121.333 -47.333 201.669 -81.667 241.002 -103c90.667 -49.333 151 -110.333 181 -183c18.667 -45.333 28 -98 28 -158c0 -61.333 -10.333 -117.5 -31 -168.5s-48 -93.333 -82 -127
s-73.5 -62.334 -118.5 -86.001s-91.167 -40.667 -138.5 -51s-95.666 -15.5 -144.999 -15.5c-96.667 0 -190.5 19 -281.5 57s-173.833 95.333 -248.5 172l173 213c26.667 -30.667 55.5 -57.667 86.5 -81s62 -42.333 93 -57s61.833 -25.667 92.5 -33s60.667 -11 90 -11
c34 0 64.333 3.83301 91 11.5s48.5 18.334 65.5 32.001s30 29.834 39 48.501s13.5 39.334 13.5 62.001c0 21.333 -3.33301 40.333 -10 57s-15.834 31.334 -27.501 44.001s-28.667 25.167 -51 37.5s-45.5 23.333 -69.5 33s-55.667 21.167 -95 34.5
c-35.333 12.667 -66.666 24.334 -93.999 35.001s-57 24.167 -89 40.5s-59.667 32.666 -83 48.999s-46.5 36 -69.5 59s-41.667 47.333 -56 73s-26 55.334 -35 89.001s-13.5 69.5 -13.5 107.5c0 76.667 20.667 146.667 62 210s97.666 113.166 168.999 149.499
s150 55.166 236 56.499c176 2 339.333 -59 490 -183l-166 -217c-116.667 95.333 -222.334 143 -317.001 143c-51.333 0 -93.166 -13 -125.499 -39s-48.833 -61.667 -49.5 -107c0 -18 3.33301 -34.333 10 -49s15.667 -27.834 27 -39.501s28.166 -23.667 50.499 -36
s44.666 -23.333 66.999 -33s52.5 -21.834 90.5 -36.501z" />
    <glyph glyph-name="scircumflex" unicode="&#x15d;" horiz-adv-x="917" 
d="M464 1289l-102 -154h-245l227 306h237l239 -306h-247l-103 154h-6zM503 618c110.667 -40.667 184.668 -73.001 222.001 -97.001c64.667 -40 103.334 -93.333 116.001 -160c4 -20 6 -42.333 6 -67c0 -92.667 -33.167 -167.667 -99.5 -225s-162.5 -86 -288.5 -86
c-158.667 0 -293.667 49 -405 147l130 185c83.333 -78 175.666 -117 276.999 -117c38 0 68 7.66699 90 23s33 35.333 33 60c0 9.33301 -2.33301 17.833 -7 25.5s-11.167 14.834 -19.5 21.501s-20.333 13.5 -36 20.5s-32.5 13.667 -50.5 20s-41 14.166 -69 23.499
c-36.667 12 -68.834 24 -96.501 36s-55.334 27.333 -83.001 46s-50.5 39 -68.5 61s-32.5 48.5 -43.5 79.5s-16.5 65.167 -16.5 102.5c0 59.333 15.833 111.833 47.5 157.5s74.667 80.834 129 105.501s115.5 37 183.5 37c70 0 134.333 -10 193 -30s116.334 -52 173.001 -96
l-130 -196c-37.333 35.333 -76.833 61.833 -118.5 79.5s-81.834 26.5 -120.501 26.5c-25.333 0 -48 -6.5 -68 -19.5s-30 -31.5 -30 -55.5c0 -20 11.833 -38 35.5 -54s61.834 -34 114.501 -54z" />
    <glyph glyph-name="Scedilla" unicode="&#x15e;" horiz-adv-x="1196" 
d="M627 -16l-22.9961 -45.002l2 -3c60.667 -2.66699 107.167 -18 139.5 -46s48.5 -67.667 48.5 -119c0 -49.333 -20.5 -88.666 -61.5 -117.999s-104.167 -44 -189.5 -44c-42 0 -83.667 4 -125 12v120c26.667 -9.33301 61.667 -14 105 -14c26.667 0 49.667 4.66699 69 14
s29 24 29 44c0 19.333 -14.833 35.166 -44.5 47.499s-70.834 18.5 -123.501 18.5v76l32 65c-160.667 24.667 -300 98 -418 220l173 213c26.667 -30.667 55.5 -57.667 86.5 -81s62 -42.333 93 -57s61.833 -25.667 92.5 -33s60.667 -11 90 -11c34 0 64.333 3.83301 91 11.5
s48.5 18.334 65.5 32.001s30 29.834 39 48.501s13.5 39.334 13.5 62.001c0 21.333 -3.33301 40.333 -10 57s-15.834 31.334 -27.501 44.001s-28.667 25.167 -51 37.5s-45.5 23.333 -69.5 33s-55.667 21.167 -95 34.5c-35.333 12.667 -66.666 24.334 -93.999 35.001
s-57 24.167 -89 40.5s-59.667 32.666 -83 48.999s-46.5 36 -69.5 59s-41.667 47.333 -56 73s-26 55.334 -35 89.001s-13.5 69.5 -13.5 107.5c0 76.667 20.667 146.667 62 210s97.666 113.166 168.999 149.499s150 55.166 236 56.499c176 2 339.333 -59 490 -183l-166 -217
c-116.667 95.333 -222.334 143 -317.001 143c-51.333 0 -93.166 -13 -125.499 -39s-48.833 -61.667 -49.5 -107c0 -18 3.33301 -34.333 10 -49s15.667 -27.834 27 -39.501s28.166 -23.667 50.499 -36s44.666 -23.333 66.999 -33s52.5 -21.834 90.5 -36.501
c121.333 -47.333 201.666 -81.666 240.999 -102.999c90.667 -49.333 151 -110.333 181 -183c18.667 -45.333 28 -98 28 -158c0 -58.667 -9.5 -112.667 -28.5 -162s-44.167 -90.833 -75.5 -124.5s-68.166 -62.5 -110.499 -86.5s-86 -41.833 -131 -53.5
s-91.5 -18.5 -139.5 -20.5z" />
    <glyph glyph-name="scedilla" unicode="&#x15f;" horiz-adv-x="917" 
d="M479 -17l-22.9932 -44l2 -3c60.667 -2.66699 107.167 -18 139.5 -46s48.5 -67.667 48.5 -119c0 -24 -4.83301 -45.667 -14.5 -65s-24.334 -36.333 -44.001 -51s-45.834 -26 -78.501 -34s-70.667 -12 -114 -12c-42 0 -83.667 4 -125 12v120
c26.667 -9.33301 61.667 -14 105 -14c16.667 0 32 1.83301 46 5.5s26.167 10 36.5 19s15.5 20.167 15.5 33.5c0 19.333 -14.833 35.166 -44.5 47.499s-70.834 18.5 -123.501 18.5v76l33 66c-108.667 20 -203.334 65.667 -284.001 137l130 185
c83.333 -78 175.666 -117 276.999 -117c38 0 68 7.66699 90 23s33 35.333 33 60c0 11.333 -3.16699 21.5 -9.5 30.5s-17.5 18 -33.5 27s-34.333 17.333 -55 25s-48.667 17.167 -84 28.5c-36.667 12 -68.834 24 -96.501 36s-55.334 27.333 -83.001 46s-50.5 39 -68.5 61
s-32.5 48.5 -43.5 79.5s-16.5 65.167 -16.5 102.5c0 59.333 15.833 111.833 47.5 157.5s74.667 80.834 129 105.501s115.5 37 183.5 37c70 0 134.333 -10 193 -30s116.334 -52 173.001 -96l-130 -196c-37.333 35.333 -76.833 61.833 -118.5 79.5s-81.834 26.5 -120.501 26.5
c-25.333 0 -48 -6.5 -68 -19.5s-30 -31.5 -30 -55.5c0 -14 6 -27 18 -39s28.333 -23.167 49 -33.5s48.334 -22.166 83.001 -35.499c110.667 -40.667 184.667 -73 222 -97c64.667 -40 103.334 -93.333 116.001 -160c4 -20 6 -42.333 6 -67s-2.5 -48.334 -7.5 -71.001
s-12.5 -44.167 -22.5 -64.5s-22.333 -39.333 -37 -57s-32.167 -33.5 -52.5 -47.5s-42.833 -26.167 -67.5 -36.5s-52.334 -18.5 -83.001 -24.5s-63.334 -9.33301 -98.001 -10z" />
    <glyph glyph-name="Scaron" unicode="&#x160;" horiz-adv-x="1196" 
d="M713 1601h-237l-232 306h246l102 -154h6l103 154h246zM662 875c121.333 -47.333 201.668 -81.668 241.001 -103.001c90.667 -49.333 151 -110.333 181 -183c18.667 -45.333 28 -98 28 -158c0 -61.333 -10.333 -117.5 -31 -168.5s-48 -93.333 -82 -127
s-73.5 -62.334 -118.5 -86.001s-91.167 -40.667 -138.5 -51s-95.666 -15.5 -144.999 -15.5c-96.667 0 -190.5 19 -281.5 57s-173.833 95.333 -248.5 172l173 213c26.667 -30.667 55.5 -57.667 86.5 -81s62 -42.333 93 -57s61.833 -25.667 92.5 -33s60.667 -11 90 -11
c34 0 64.333 3.83301 91 11.5s48.5 18.334 65.5 32.001s30 29.834 39 48.501s13.5 39.334 13.5 62.001c0 21.333 -3.33301 40.333 -10 57s-15.834 31.334 -27.501 44.001s-28.667 25.167 -51 37.5s-45.5 23.333 -69.5 33s-55.667 21.167 -95 34.5
c-35.333 12.667 -66.666 24.334 -93.999 35.001s-57 24.167 -89 40.5s-59.667 32.666 -83 48.999s-46.5 36 -69.5 59s-41.667 47.333 -56 73s-26 55.334 -35 89.001s-13.5 69.5 -13.5 107.5c0 76.667 20.667 146.667 62 210s97.666 113.166 168.999 149.499
s150 55.166 236 56.499c176 2 339.333 -59 490 -183l-166 -217c-116.667 95.333 -222.334 143 -317.001 143c-33.333 0 -63.166 -5.66699 -89.499 -17s-47.166 -28.166 -62.499 -50.499s-23 -48.5 -23 -78.5c0 -18 3.33301 -34.333 10 -49s15.667 -27.834 27 -39.501
s28.166 -23.667 50.499 -36s44.666 -23.333 66.999 -33s52.5 -21.834 90.5 -36.501z" />
    <glyph glyph-name="scaron" unicode="&#x161;" horiz-adv-x="917" 
d="M586 1135h-237l-232 306h246l102 -154h6l103 154h246zM503 618c110.667 -40.667 184.668 -73.002 222.001 -97.002c64.667 -40 103.334 -93.333 116.001 -160c4 -20 6 -42.333 6 -67c0 -92.667 -33.167 -167.667 -99.5 -225s-162.5 -86 -288.5 -86
c-158.667 0 -293.667 49 -405 147l130 185c83.333 -78 175.666 -117 276.999 -117c38 0 68 7.66699 90 23s33 35.333 33 60c0 15.333 -6.66699 28.833 -20 40.5s-31.833 22.5 -55.5 32.5s-59.167 22.667 -106.5 38c-36.667 12 -68.834 24 -96.501 36
s-55.334 27.333 -83.001 46s-50.5 39 -68.5 61s-32.5 48.5 -43.5 79.5s-16.5 65.167 -16.5 102.5c0 59.333 15.833 111.833 47.5 157.5s74.667 80.834 129 105.501s115.5 37 183.5 37c70 0 134.333 -10 193 -30s116.334 -52 173.001 -96l-130 -196
c-37.333 35.333 -76.833 61.833 -118.5 79.5s-81.834 26.5 -120.501 26.5c-25.333 0 -48 -6.5 -68 -19.5s-30 -31.5 -30 -55.5c0 -14 6 -27 18 -39s28.333 -23.167 49 -33.5s48.334 -22.166 83.001 -35.499z" />
    <glyph glyph-name="uni0162" unicode="&#x162;" horiz-adv-x="1210" 
d="M632 0l-31.999 -61l2 -3c40 -1.33301 74 -8.5 102 -21.5s49.333 -31.667 64 -56s22 -53.5 22 -87.5c0 -49.333 -20.5 -88.666 -61.5 -117.999s-104.167 -44 -189.5 -44c-42 0 -83.667 4 -125 12v120c26.667 -9.33301 61.667 -14 105 -14c26.667 0 49.667 4.66699 69 14
s29 24 29 44c0 19.333 -14.833 35.166 -44.5 47.499s-70.834 18.5 -123.501 18.5v76l36 73h-24v1197h-401v258h1091v-258h-403v-1197h-116z" />
    <glyph glyph-name="uni0163" unicode="&#x163;" horiz-adv-x="764" 
d="M432 -64c60.667 -2.66699 107.168 -18.001 139.501 -46.001s48.5 -67.667 48.5 -119c0 -49.333 -20.5 -88.666 -61.5 -117.999s-104.167 -44 -189.5 -44c-42 0 -83.667 4 -125 12v120c26.667 -9.33301 61.667 -14 105 -14c16.667 0 32 1.83301 46 5.5s26.167 10 36.5 19
s15.5 20.167 15.5 33.5c0 19.333 -14.833 35.166 -44.5 47.499s-70.834 18.5 -123.501 18.5v76l40 81c-50.667 22.667 -89.667 59.834 -117 111.501s-41 117.167 -41 196.5v462h-118v222h118v327l268 29v-356h272v-222h-272v-425c0 -44 6.83301 -76.333 20.5 -97
s36.167 -31 67.5 -31c38.667 0 80.667 11.667 126 35l69 -214c-38 -20.667 -75.833 -36.167 -113.5 -46.5s-86.167 -15.833 -145.5 -16.5l-23 -44z" />
    <glyph glyph-name="Tcaron" unicode="&#x164;" horiz-adv-x="1210" 
d="M720 1601h-237l-232 306h246l102 -154h6l103 154h246zM60 1455h1091v-258h-403v-1197h-287v1197h-401v258z" />
    <glyph glyph-name="tcaron" unicode="&#x165;" horiz-adv-x="764" 
d="M522 1188l64 423h256l-131 -423h-189zM447 -17c-88.667 0 -158.5 28.1689 -209.5 84.502s-76.5 139.166 -76.5 248.499v462h-118v222h118v327l268 29v-356h272v-222h-272v-425c0 -44 6.83301 -76.333 20.5 -97s36.167 -31 67.5 -31c38 0 80 11.667 126 35l69 -214
c-38 -20.667 -76.333 -36.334 -115 -47.001s-88.667 -16 -150 -16z" />
    <glyph glyph-name="Tbar" unicode="&#x166;" horiz-adv-x="1210" 
d="M1151 1197h-403v-356h240v-227h-240v-614h-287v614h-230v227h230v356h-401v258h1091v-258z" />
    <glyph glyph-name="tbar" unicode="&#x167;" horiz-adv-x="764" 
d="M643 260l69 -213.998c-38 -20.667 -76.333 -36.334 -115 -47.001s-88.667 -16 -150 -16c-88.667 0 -158.5 28.167 -209.5 84.5s-76.5 139.166 -76.5 248.499v136h-102v170h102v156h-118v222h118v327l268 29v-356h272v-222h-272v-156h222v-170h-222v-99
c0 -44 6.83301 -76.333 20.5 -97s36.167 -31 67.5 -31c38.667 0 80.667 11.667 126 35z" />
    <glyph glyph-name="Utilde" unicode="&#x168;" horiz-adv-x="1461" 
d="M898 1597c-33.333 0 -63.8301 5.33496 -91.4971 16.002s-56.834 25.667 -87.501 45c-12.667 7.33301 -22.5 12.833 -29.5 16.5s-15.667 8 -26 13s-20 8.5 -29 10.5s-18.167 3 -27.5 3c-48 0 -86.333 -34 -115 -102l-160 69c22 72 54.167 129.667 96.5 173
s92.166 65 149.499 65c26 0 51 -3.33301 75 -10s41.5 -12.834 52.5 -18.501s27.167 -14.834 48.5 -27.501c18 -11.333 30.667 -19 38 -23s18.166 -8.66699 32.499 -14s27.833 -8 40.5 -8c24 0 46 8.83301 66 26.5s36.667 42.167 50 73.5l157 -52
c-21.333 -78.667 -52.833 -141 -94.5 -187s-90.167 -69 -145.5 -69zM728.003 -16.998c-87.333 0 -167.17 13.833 -239.503 41.5s-134.166 67.334 -185.499 119.001s-91.166 116.5 -119.499 194.5s-42.5 166 -42.5 264v853h289v-834c0 -70.667 11.333 -133.5 34 -188.5
s56.834 -98.667 102.501 -131s99.5 -48.5 161.5 -48.5c90 0 163 32.833 219 98.5s84 155.5 84 269.5v834h288v-853c0 -126 -23.167 -235.333 -69.5 -328s-114 -164.334 -203 -215.001s-195.167 -76 -318.5 -76z" />
    <glyph glyph-name="utilde" unicode="&#x169;" horiz-adv-x="1182" 
d="M467 1235c-48 0 -86.332 -34 -114.999 -102l-160 69c22 72 54.167 129.667 96.5 173s92.166 65 149.499 65c26 0 51 -3.33301 75 -10s41.5 -12.834 52.5 -18.501s27.167 -14.834 48.5 -27.501c18 -11.333 30.667 -19 38 -23s18.166 -8.66699 32.499 -14
s27.833 -8 40.5 -8c16 0 31.333 4.16699 46 12.5s27.834 19.833 39.501 34.5s21.834 32.334 30.501 53.001l157 -52c-21.333 -78.667 -52.833 -141 -94.5 -187s-90.167 -69 -145.5 -69c-33.333 0 -63.833 5.33301 -91.5 16s-56.834 25.667 -87.501 45
c-16.667 10 -29.5 17.333 -38.5 22s-20.5 9.33398 -34.5 14.001s-27 7 -39 7zM787.001 1000l268 -0.000976562v-1000h-268v122h-4c-38.667 -45.333 -83.5 -79.833 -134.5 -103.5s-105.167 -35.5 -162.5 -35.5c-56 0 -105.667 7.5 -149 22.5s-81.833 38.5 -115.5 70.5
s-59.334 75 -77.001 129s-26.5 118.333 -26.5 193v602h268v-532c0 -90 13.833 -153.167 41.5 -189.5s73.5 -54.5 137.5 -54.5c62.667 0 115.334 25.333 158.001 76s64 122.334 64 215.001v485z" />
    <glyph glyph-name="Umacron" unicode="&#x16a;" horiz-adv-x="1461" 
d="M419 1660v214h623v-214h-623zM728 -17c-87.333 0 -167.17 13.833 -239.503 41.5s-134.166 67.334 -185.499 119.001s-91.166 116.5 -119.499 194.5s-42.5 166 -42.5 264v853h289v-834c0 -70.667 11.333 -133.5 34 -188.5s56.834 -98.667 102.501 -131
s99.5 -48.5 161.5 -48.5c90 0 163 32.833 219 98.5s84 155.5 84 269.5v834h288v-853c0 -126 -23.167 -235.333 -69.5 -328s-114 -164.334 -203 -215.001s-195.167 -76 -318.5 -76z" />
    <glyph glyph-name="umacron" unicode="&#x16b;" horiz-adv-x="1182" 
d="M902 1408v-214h-623v214h623zM787 1000l268 -0.000976562v-1000h-268v122h-4c-38.667 -45.333 -83.5 -79.833 -134.5 -103.5s-105.167 -35.5 -162.5 -35.5c-56 0 -105.667 7.5 -149 22.5s-81.833 38.5 -115.5 70.5s-59.334 75 -77.001 129s-26.5 118.333 -26.5 193v602
h268v-532c0 -90 13.833 -153.167 41.5 -189.5s73.5 -54.5 137.5 -54.5c62.667 0 115.334 25.333 158.001 76s64 122.334 64 215.001v485z" />
    <glyph glyph-name="Ubreve" unicode="&#x16c;" horiz-adv-x="1461" 
d="M730 1594c-58 0 -110.999 11.6689 -158.999 35.002s-88 58.666 -120 105.999s-50.333 103 -55 167h202c0.666992 -14.667 3.16699 -28.334 7.5 -41.001s10.333 -24.5 18 -35.5s16.667 -20.333 27 -28s22.166 -13.667 35.499 -18s28 -6.5 44 -6.5
c24 0 45.667 5.16699 65 15.5s34.833 25.333 46.5 45s18.167 42.5 19.5 68.5h203c-7.33301 -90 -41 -163.833 -101 -221.5s-137.667 -86.5 -233 -86.5zM728.001 -16.998c-87.333 0 -167.17 13.833 -239.503 41.5s-134.166 67.334 -185.499 119.001
s-91.166 116.5 -119.499 194.5s-42.5 166 -42.5 264v853h289v-834c0 -70.667 11.333 -133.5 34 -188.5s56.834 -98.667 102.501 -131s99.5 -48.5 161.5 -48.5c90 0 163 32.833 219 98.5s84 155.5 84 269.5v834h288v-853c0 -126 -23.167 -235.333 -69.5 -328
s-114 -164.334 -203 -215.001s-195.167 -76 -318.5 -76z" />
    <glyph glyph-name="ubreve" unicode="&#x16d;" horiz-adv-x="1182" 
d="M590 1128c-58 0 -111 11.668 -159 35.001s-88 58.666 -120 105.999s-50.333 103 -55 167h202c2.66699 -37.333 15.667 -68.166 39 -92.499s54.333 -36.5 93 -36.5c36.667 0 67.167 11.667 91.5 35s37.5 54.666 39.5 93.999h203c-7.33301 -90 -41 -163.833 -101 -221.5
s-137.667 -86.5 -233 -86.5zM787 1000l267.999 -0.000976562v-1000h-268v122h-4c-38.667 -45.333 -83.5 -79.833 -134.5 -103.5s-105.167 -35.5 -162.5 -35.5c-56 0 -105.833 7.5 -149.5 22.5s-82.167 38.5 -115.5 70.5s-58.833 75 -76.5 129s-26.5 118.333 -26.5 193v602
h268v-532c0 -90 13.833 -153.167 41.5 -189.5s73.5 -54.5 137.5 -54.5c62.667 0 115.334 25.333 158.001 76s64 122.334 64 215.001v485z" />
    <glyph glyph-name="Uring" unicode="&#x16e;" horiz-adv-x="1461" 
d="M729 1558c-60.667 0 -112.499 20.333 -155.499 61s-64.5 91.667 -64.5 153c0 59.333 20.833 109.833 62.5 151.5s94.167 62.5 157.5 62.5c62 0 114.5 -20.333 157.5 -61s64.5 -91.667 64.5 -153c0 -60 -20.833 -110.667 -62.5 -152s-94.834 -62 -159.501 -62z
M729.001 1698c21.333 0 39.5 7.5 54.5 22.5s22.5 33.167 22.5 54.5c0 20.667 -7.5 38.5 -22.5 53.5s-33.167 22.5 -54.5 22.5s-39.5 -7.66699 -54.5 -23s-22.5 -33.333 -22.5 -54c0 -21.333 7.5 -39.333 22.5 -54s33.167 -22 54.5 -22zM728.001 -17
c-87.333 0 -167.17 13.833 -239.503 41.5s-134.166 67.334 -185.499 119.001s-91.166 116.5 -119.499 194.5s-42.5 166 -42.5 264v853h289v-834c0 -70.667 11.333 -133.5 34 -188.5s56.834 -98.667 102.501 -131s99.5 -48.5 161.5 -48.5c90 0 163 32.833 219 98.5
s84 155.5 84 269.5v834h288v-853c0 -126 -23.167 -235.333 -69.5 -328s-114 -164.334 -203 -215.001s-195.167 -76 -318.5 -76z" />
    <glyph glyph-name="uring" unicode="&#x16f;" horiz-adv-x="1182" 
d="M589 1092c-60.667 0 -112.499 20.333 -155.499 61s-64.5 91.667 -64.5 153c0 59.333 20.833 109.833 62.5 151.5s94.167 62.5 157.5 62.5c62 0 114.5 -20.333 157.5 -61s64.5 -91.667 64.5 -153c0 -60 -20.833 -110.667 -62.5 -152s-94.834 -62 -159.501 -62z
M589.001 1385c-21.333 0 -39.502 -7.66895 -54.502 -23.002s-22.5 -33.333 -22.5 -54c0 -21.333 7.5 -39.333 22.5 -54s33.167 -22 54.5 -22s39.5 7.5 54.5 22.5s22.5 33.167 22.5 54.5c0 6 -0.666992 11.833 -2 17.5s-3.33301 10.834 -6 15.501s-5.66699 9.33398 -9 14.001
s-7.16602 8.66699 -11.499 12s-9.16602 6.33301 -14.499 9s-10.833 4.66699 -16.5 6s-11.5 2 -17.5 2zM786.999 999.998l268 -0.000976562v-1000h-268v122h-4c-38.667 -45.333 -83.5 -79.833 -134.5 -103.5s-105.167 -35.5 -162.5 -35.5c-56 0 -105.667 7.5 -149 22.5
s-81.833 38.5 -115.5 70.5s-59.334 75 -77.001 129s-26.5 118.333 -26.5 193v602h268v-532c0 -90 13.833 -153.167 41.5 -189.5s73.5 -54.5 137.5 -54.5c62.667 0 115.334 25.333 158.001 76s64 122.334 64 215.001v485z" />
    <glyph glyph-name="Uhungarumlaut" unicode="&#x170;" horiz-adv-x="1461" 
d="M377 1605l231 301l269 1l-253 -302h-247zM795 1605l230 301l270 1l-254 -302h-246zM728 -17c-87.333 0 -167.17 13.833 -239.503 41.5s-134.166 67.334 -185.499 119.001s-91.166 116.5 -119.499 194.5s-42.5 166 -42.5 264v853h289v-834
c0 -70.667 11.333 -133.5 34 -188.5s56.834 -98.667 102.501 -131s99.5 -48.5 161.5 -48.5c90 0 163 32.833 219 98.5s84 155.5 84 269.5v834h288v-853c0 -126 -23.167 -235.333 -69.5 -328s-114 -164.334 -203 -215.001s-195.167 -76 -318.5 -76z" />
    <glyph glyph-name="uhungarumlaut" unicode="&#x171;" horiz-adv-x="1183" 
d="M741 1441l-253 -302h-247l231 301zM905 1139h-246l230 301l270 1zM787 515v484.999h268v-1000h-268v122h-4c-38.667 -45.333 -83.5 -79.833 -134.5 -103.5s-105.167 -35.5 -162.5 -35.5c-56 0 -105.667 7.5 -149 22.5s-81.833 38.5 -115.5 70.5s-59.334 75 -77.001 129
s-26.5 118.333 -26.5 193v602h268v-532c0 -90 13.833 -153.167 41.5 -189.5s73.5 -54.5 137.5 -54.5c62.667 0 115.334 25.333 158.001 76s64 122.334 64 215.001z" />
    <glyph glyph-name="Uogonek" unicode="&#x172;" horiz-adv-x="1461" 
d="M1031 1455l287.999 -0.000976562v-853c0 -157.333 -36 -288.166 -108 -392.499s-174 -172.833 -306 -205.5c-51.333 -16.667 -91.333 -38 -120 -64s-43 -54.333 -43 -85c0 -25.333 7.33301 -45.166 22 -59.499s35.334 -21.5 62.001 -21.5
c7.33301 0 13.833 0.166992 19.5 0.5s10.834 0.666016 15.501 0.999023s8.5 0.666016 11.5 0.999023s6.5 1.16602 10.5 2.49902l7.5 2.5c1 0.333008 3.66699 1.33301 8 3s7.16602 2.83398 8.49902 3.50098l13 -145c-37.333 -16.667 -87 -25 -149 -25
c-71.333 0 -127.833 17.167 -169.5 51.5s-62.5 79.5 -62.5 135.5c0 29.333 8.33301 60 25 92s40.667 61.333 72 88v3c-152.667 18.667 -273.334 81.334 -362.001 188.001s-133 248.667 -133 426v853h289v-834c0 -70.667 11.333 -133.5 34 -188.5
s56.834 -98.667 102.501 -131s99.5 -48.5 161.5 -48.5c90 0 163 32.833 219 98.5s84 155.5 84 269.5v834z" />
    <glyph glyph-name="uogonek" unicode="&#x173;" horiz-adv-x="1182" 
d="M1029 0c-50 -8.66699 -90.334 -27.3311 -121.001 -55.998s-46 -59.334 -46 -92.001c0 -26 7.33301 -46.333 22 -61s35.334 -22 62.001 -22c7.33301 0 13.833 0.166992 19.5 0.5s10.834 0.666016 15.501 0.999023s8.5 0.666016 11.5 0.999023s6.5 1.16602 10.5 2.49902
l7.5 2.5c1 0.333008 3.66699 1.33301 8 3s7.16602 2.83398 8.49902 3.50098l13 -145c-37.333 -16.667 -87 -25 -149 -25c-71.333 0 -127.833 17.167 -169.5 51.5s-62.5 79.5 -62.5 135.5c0 34 11 69.5 33 106.5s53.667 69.167 95 96.5v119h-4
c-38.667 -45.333 -83.5 -79.833 -134.5 -103.5s-105.167 -35.5 -162.5 -35.5c-56 0 -105.667 7.5 -149 22.5s-81.833 38.5 -115.5 70.5s-59.334 75 -77.001 129s-26.5 118.333 -26.5 193v602h268v-532c0 -90 13.833 -153.167 41.5 -189.5s73.5 -54.5 137.5 -54.5
c62.667 0 115.334 25.333 158.001 76s64 122.334 64 215.001v485h268v-1000h-26z" />
    <glyph glyph-name="Wcircumflex" unicode="&#x174;" horiz-adv-x="2116" 
d="M1055 1755l-102 -154h-245l227 306h237l239 -306h-247l-103 154h-6zM1755 1455h307l-458 -1455h-267l-274 1035h-3l-283 -1035h-266l-458 1455h307l283 -984h4l259 984h305l257 -984h4z" />
    <glyph glyph-name="wcircumflex" unicode="&#x175;" horiz-adv-x="1581" 
d="M785 1289l-102 -154h-245l227 306h237l239 -306h-247l-103 154h-6zM1272 1000h269l-341 -1000h-231l-178 617h-3l-176 -617h-230l-341 1000h269l194 -608h3l175 608h216l177 -608h3z" />
    <glyph glyph-name="Ycircumflex" unicode="&#x176;" horiz-adv-x="1295" 
d="M645 1755l-102 -154h-245l227 306h237l239 -306h-247l-103 154h-6zM942 1455h333l-484 -816v-639h-291v639l-481 816h330l296 -531h4z" />
    <glyph glyph-name="ycircumflex" unicode="&#x177;" horiz-adv-x="1104" 
d="M550 1289l-102 -154h-245l227 306h237l239 -306h-247l-103 154h-6zM791 1000h278l-539 -1405h-274l178 467l-400 938h280l245 -619h3z" />
    <glyph glyph-name="Ydieresis" unicode="&#x178;" horiz-adv-x="1295" 
d="M434 1607c-46.667 0 -86.167 16 -118.5 48s-48.5 70.667 -48.5 116c0 44.667 16.333 83 49 115s72 48 118 48c45.333 0 84.333 -16 117 -48s49 -70.333 49 -115c0 -30 -7.5 -57.5 -22.5 -82.5s-35.333 -44.833 -61 -59.5s-53.167 -22 -82.5 -22zM863 1609
c-30 0 -57.667 7.33301 -83 22s-45.333 34.334 -60 59.001s-22 51.667 -22 81c0 28.667 7.33301 55.5 22 80.5s34.667 44.833 60 59.5s53 22 83 22c29.333 0 56.5 -7.33301 81.5 -22s45 -34.5 60 -59.5s22.5 -51.833 22.5 -80.5c0 -44.667 -16.167 -82.834 -48.5 -114.501
s-70.833 -47.5 -115.5 -47.5zM942 1455h333l-484 -816v-639h-291v639l-481 816h330l296 -531h4z" />
    <glyph glyph-name="Zacute" unicode="&#x179;" horiz-adv-x="1277" 
d="M931 1907l-254 -302h-259l232 301zM473 257h694v-257h-1062v225l678 965v7h-650v258h1032v-220l-692 -971v-7z" />
    <glyph glyph-name="zacute" unicode="&#x17a;" horiz-adv-x="996" 
d="M798 1441l-254 -302h-259l232 301zM918 820l-488 -594v-6h477v-220h-832v183l482 595v3h-446v219h807v-180z" />
    <glyph glyph-name="Zdotaccent" unicode="&#x17b;" horiz-adv-x="1277" 
d="M635 1607c-30 0 -57.832 7.33301 -83.499 22s-45.834 34.5 -60.501 59.5s-22 52.5 -22 82.5c0 44.667 16.167 83 48.5 115s71.5 48 117.5 48c30 0 57.667 -7.33301 83 -22s45.5 -34.5 60.5 -59.5s22.5 -52.167 22.5 -81.5c0 -45.333 -16.333 -84 -49 -116
s-71.667 -48 -117 -48zM473.001 257h694v-257h-1062v225l678 965v7h-650v258h1032v-220l-692 -971v-7z" />
    <glyph glyph-name="zdotaccent" unicode="&#x17c;" horiz-adv-x="996" 
d="M502 1141c-30 0 -57.832 7.33301 -83.499 22s-45.834 34.5 -60.501 59.5s-22 52.5 -22 82.5c0 44.667 16.167 83 48.5 115s71.5 48 117.5 48c45.333 0 84.333 -16 117 -48s49 -70.333 49 -115c0 -45.333 -16.333 -84 -49 -116s-71.667 -48 -117 -48zM918.001 820
l-488 -594v-6h477v-220h-832v183l482 595v3h-446v219h807v-180z" />
    <glyph glyph-name="Zcaron" unicode="&#x17d;" horiz-adv-x="1277" 
d="M752 1601h-237l-232 306h246l102 -154h6l103 154h246zM473 257h694v-257h-1062v225l678 965v7h-650v258h1032v-220l-692 -971v-7z" />
    <glyph glyph-name="zcaron" unicode="&#x17e;" horiz-adv-x="996" 
d="M619 1135h-237l-232 306h246l102 -154h6l103 154h246zM918 820l-488 -594v-6h477v-220h-832v183l482 595v3h-446v219h807v-180z" />
    <glyph glyph-name="longs" unicode="&#x17f;" horiz-adv-x="705" 
d="M173 0l0.000976562 778h-106v222h106v172c0 76.667 12.5 141.5 37.5 194.5s60.833 92.667 107.5 119s103 39.5 169 39.5c37.333 0 74.166 -4.16699 110.499 -12.5s65.833 -17.5 88.5 -27.5s42.667 -20.667 60 -32l-54 -210c-60 29.333 -110 44 -150 44
c-67.333 0 -101 -45 -101 -135v-1152h-268z" />
    <glyph glyph-name="uni018F" unicode="&#x18f;" horiz-adv-x="1485" 
d="M703 1472c99.333 0 191.003 -18.0029 275.003 -54.0029s155.833 -86.5 215.5 -151.5s106.334 -144.167 140.001 -237.5s50.5 -195.666 50.5 -306.999c0 -107.333 -16.333 -206.833 -49 -298.5s-77.5 -169.834 -134.5 -234.501s-125.833 -115.167 -206.5 -151.5
s-167.667 -54.5 -261 -54.5c-90.667 0 -175 16.333 -253 49s-145.5 79 -202.5 139s-101.667 135.333 -134 226s-48.5 191.334 -48.5 302.001c0 42.667 2.33301 76.334 7 101.001h984c-12.667 124.667 -52.834 223.334 -120.501 296.001s-153.834 109 -258.501 109
c-108.667 0 -211.334 -27 -308.001 -81l-135 238c133.333 73.333 279.666 110 438.999 110zM722.003 252.997c86 0 159.833 26.8311 221.5 80.498s104.167 127.834 127.5 222.501h-688c14.667 -91.333 53.167 -164.666 115.5 -219.999s136.833 -83 223.5 -83z" />
    <glyph glyph-name="florin" unicode="&#x192;" horiz-adv-x="1124" 
d="M218 -315c-74.667 0 -137.668 9 -189.001 27s-88 38 -110 60l94 182c51.333 -22 102.666 -33 153.999 -33c44.667 0 80 13.667 106 41s43.333 73 52 137l82 639h-154l32 223h154l28 214c30 233.333 155 350 375 350c72.667 0 134.834 -9.33301 186.501 -28
s89.167 -38.667 112.5 -60l-95 -182c-56 22 -107.667 33 -155 33c-44.667 0 -80 -13.667 -106 -41s-43 -73.333 -51 -138l-18 -148h272l-31 -223h-273l-91 -703c-16 -117.333 -54.667 -205 -116 -263s-147.666 -87 -258.999 -87z" />
    <glyph glyph-name="uni019D" unicode="&#x19d;" horiz-adv-x="1546" 
d="M1098 1455h288.001v-1455h-295l-640 964h-4v-1019c0 -118.667 -27.667 -209.5 -83 -272.5s-132 -94.5 -230 -94.5c-75.333 0 -145.333 12 -210 36l45 213c29.333 -16.667 59 -25 89 -25c31.333 0 56.166 12.667 74.499 38s27.5 59 27.5 101v1514h287l647 -983h4v983z" />
    <glyph glyph-name="Ohorn" unicode="&#x1a0;" horiz-adv-x="1766" 
d="M1489 1587l250.998 -0.000976562v-151c0 -93.333 -19.667 -170.833 -59 -232.5s-96 -104.5 -170 -128.5l-2 -4c48.667 -103.333 73 -217.666 73 -342.999c0 -109.333 -18.667 -210.5 -56 -303.5s-88.666 -171.667 -153.999 -236s-143.5 -114.666 -234.5 -150.999
s-189.5 -54.5 -295.5 -54.5c-108 0 -208.333 18.667 -301 56s-171.167 88.833 -235.5 154.5s-114.666 144.5 -150.999 236.5s-54.5 191.333 -54.5 298s18.167 206 54.5 298s86.666 170.667 150.999 236s142.833 116.666 235.5 153.999s193 56 301 56
c118 0 226.333 -22 325 -66s181.334 -106.333 248.001 -187c14 7.33301 25.833 16.833 35.5 28.5s17 23.5 22 35.5s8.83301 27.833 11.5 47.5s4.16699 36.667 4.5 51s0.5 34.5 0.5 60.5v145zM842.998 250.999c62 0 120.167 12.165 174.5 36.498s101 57.333 140 99
s69.667 92.167 92 151.5s33.5 122.666 33.5 189.999c0 90 -19.167 171.333 -57.5 244s-91 129.334 -158 170.001s-141.833 61 -224.5 61c-85.333 0 -162 -21.167 -230 -63.5s-120.5 -99.666 -157.5 -171.999s-55.5 -152.166 -55.5 -239.499c0 -88 18.5 -168.167 55.5 -240.5
s89.5 -129.833 157.5 -172.5s144.667 -64 230 -64z" />
    <glyph glyph-name="ohorn" unicode="&#x1a1;" horiz-adv-x="1399" 
d="M1128 1159l250.998 0.000976562v-151c0 -97.333 -21.333 -177.333 -64 -240s-104.334 -104.667 -185.001 -126l-1 -3c10.667 -46.667 16 -93.334 16 -140.001c0 -100.667 -22.667 -190.334 -68 -269.001s-108.333 -139.5 -189 -182.5s-172.334 -64.5 -275.001 -64.5
c-62.667 0 -121.667 8.33301 -177 25s-104.5 40.334 -147.5 71.001s-80.167 67.167 -111.5 109.5s-55.166 89.833 -71.499 142.5s-24.5 108.667 -24.5 168c0 74 12.833 143 38.5 207s61.5 118.833 107.5 164.5s102.333 81.5 169 107.5s139 39 217 39
c96.667 0 183.834 -19.5 261.501 -58.5s139.834 -93.5 186.501 -163.5c12.667 7.33301 23.334 17 32.001 29s15.334 23.833 20.001 35.5s8.16699 27 10.5 46s3.66602 35.667 3.99902 50s0.5 33.833 0.5 58.5v145zM612.998 223.001c73.333 0 134.999 26 184.999 78
s75 118 75 198c0 81.333 -24.667 147.833 -74 199.5s-111.333 77.5 -186 77.5c-77.333 0 -140.166 -26.167 -188.499 -78.5s-72.5 -118.5 -72.5 -198.5c0 -78 24.5 -143.5 73.5 -196.5s111.5 -79.5 187.5 -79.5z" />
    <glyph glyph-name="Uhorn" unicode="&#x1af;" horiz-adv-x="1672" 
d="M1448 1587l250.997 0.000976562v-151c0 -122 -33.167 -216.167 -99.5 -282.5s-159.833 -99.833 -280.5 -100.5v-451c0 -126 -23.167 -235.333 -69.5 -328s-114 -164.334 -203 -215.001s-195.167 -76 -318.5 -76c-87.333 0 -167.166 13.833 -239.499 41.5
s-134.166 67.334 -185.499 119.001s-91.166 116.5 -119.499 194.5s-42.5 166 -42.5 264v853h289v-834c0 -70.667 11.333 -133.5 34 -188.5s56.834 -98.667 102.501 -131s99.5 -48.5 161.5 -48.5c90 0 163 32.833 219 98.5s84 155.5 84 269.5v834h288v-254
c18 3.33301 33.667 8.16602 47 14.499s24.5 13.166 33.5 20.499s16.667 17.333 23 30s11.166 24.334 14.499 35.001s5.83301 25 7.5 43s2.66699 33.333 3 46s0.5 30 0.5 52v145z" />
    <glyph glyph-name="uhorn" unicode="&#x1b0;" horiz-adv-x="1438" 
d="M1168 1159l251 0.00195312v-151c0 -119.333 -31.667 -212.166 -95 -278.499s-153 -100.833 -269 -103.5v-626h-268v122h-4c-26 -30.667 -54.833 -56.334 -86.5 -77.001s-65.167 -36.167 -100.5 -46.5s-72 -15.5 -110 -15.5c-56 0 -105.667 7.5 -149 22.5
s-81.833 38.333 -115.5 70s-59.334 74.667 -77.001 129s-26.5 118.833 -26.5 193.5v602h268v-532c0 -90 13.833 -153.167 41.5 -189.5s73.5 -54.5 137.5 -54.5c62.667 0 115.334 25.333 158.001 76s64 122.334 64 215.001v485h268v-223c18 4.66699 33.5 10.667 46.5 18
s23.5 17.166 31.5 29.499s14.5 24.166 19.5 35.499s8.5 26.666 10.5 45.999s3.33301 36 4 50s1 33.333 1 58v145z" />
    <glyph glyph-name="Gcaron" unicode="&#x1e6;" horiz-adv-x="1542" 
d="M936 1600h-237l-232 306h246l102 -154h6l103 154h246zM811 793l604.998 0.000976562v-627c-67.333 -54.667 -152.166 -98.334 -254.499 -131.001s-208.5 -49 -318.5 -49c-104.667 0 -202.167 16.833 -292.5 50.5s-168.833 81.5 -235.5 143.5s-119 139.833 -157 233.5
s-57 197.5 -57 311.5c0 106 17 204.667 51 296s81.833 170.333 143.5 237s138.5 119 230.5 157s193.667 57 305 57c107.333 0 212.333 -21.167 315 -63.5s190.334 -104.166 263.001 -185.499l-204 -173c-104 100.667 -228.667 151 -374 151c-60 0 -116 -11 -168 -33
s-97.5 -53 -136.5 -93s-69.667 -90.167 -92 -150.5s-33.5 -126.833 -33.5 -199.5c0 -66.667 10.333 -129 31 -187s49.667 -108.333 87 -151s84 -76.334 140 -101.001s117.333 -37 184 -37c108 0 206.333 27.667 295 83v214h-327v247z" />
    <glyph glyph-name="gcaron" unicode="&#x1e7;" horiz-adv-x="1239" 
d="M726 1135h-237l-232 306h246l102 -154h6l103 154h246zM845 1000l267.997 -0.000976562v-885c0 -64 -5.66699 -122.667 -17 -176s-30 -102.5 -56 -147.5s-59 -83.167 -99 -114.5s-89.5 -55.666 -148.5 -72.999s-126.167 -26 -201.5 -26c-156 0 -292.667 33.667 -410 101
l62 226c36 -19.333 69.333 -35.5 100 -48.5s65.667 -23.667 105 -32s79.333 -12.5 120 -12.5c90 0 159.667 21 209 63s74 95 74 159v101h-5c-74 -78 -171 -117 -291 -117c-91.333 0 -173.166 20.667 -245.499 62s-129 99.5 -170 174.5s-61.5 160.167 -61.5 255.5
c0 96.667 19.833 183.667 59.5 261s94.834 137.666 165.501 180.999s150 65 238 65c57.333 0 111.833 -10.167 163.5 -30.5s96.834 -50.166 135.501 -89.499h5v103zM603.997 260.999c74 0 134.667 24.334 182 73.001s71 110.667 71 186s-24.167 136.333 -72.5 183
s-108.5 70 -180.5 70c-74.667 0 -135.667 -23.667 -183 -71s-71 -108.666 -71 -183.999c0 -31.333 4.16699 -60.5 12.5 -87.5s20.166 -50.833 35.499 -71.5s33.5 -38.334 54.5 -53.001s44.333 -25.834 70 -33.501s52.834 -11.5 81.501 -11.5z" />
    <glyph glyph-name="uni01EA" unicode="&#x1ea;" horiz-adv-x="1682" 
d="M967 -8c-40.667 -12 -72.9971 -31.1641 -96.9971 -57.4971s-36 -53.833 -36 -82.5c0 -16.667 3.16699 -31.334 9.5 -44.001s15.833 -22.334 28.5 -29.001s28 -10 46 -10c7.33301 0 13.833 0.166992 19.5 0.5s10.834 0.666016 15.501 0.999023s8.5 0.666016 11.5 0.999023
s6.5 1.16602 10.5 2.49902l7.5 2.5c1 0.333008 3.66699 1.33301 8 3s7.16602 2.83398 8.49902 3.50098l13 -145c-37.333 -16.667 -87 -25 -149 -25c-71.333 0 -127.833 17.167 -169.5 51.5s-62.5 79.5 -62.5 135.5c0 30.667 9 62.667 27 96s44 63.666 78 90.999v2
c-126 15.333 -237.167 56.333 -333.5 123s-170.833 153.334 -223.5 260.001s-79 225.334 -79 356.001c0 106.667 18.167 206 54.5 298s86.666 170.667 150.999 236s142.666 116.666 234.999 153.999s192.833 56 301.5 56c106 0 204.5 -18.167 295.5 -54.5
s169.167 -86.666 234.5 -150.999s116.666 -142.833 153.999 -235.5s56 -193.667 56 -303c0 -98.667 -15.167 -190.667 -45.5 -276s-72.5 -159.5 -126.5 -222.5s-118.833 -115 -194.5 -156s-158.5 -68.167 -248.5 -81.5zM400.003 728.003c0 -88 18.5 -168.17 55.5 -240.503
s89.5 -129.833 157.5 -172.5s144.667 -64 230 -64c82.667 0 157.5 20.5 224.5 61.5s119.667 98 158 171s57.5 154.5 57.5 244.5s-19.167 171.333 -57.5 244s-91 129.334 -158 170.001s-141.833 61 -224.5 61c-85.333 0 -162 -21.167 -230 -63.5
s-120.5 -99.666 -157.5 -171.999s-55.5 -152.166 -55.5 -239.499z" />
    <glyph glyph-name="uni01EB" unicode="&#x1eb;" horiz-adv-x="1225" 
d="M690 -12c-36.667 -14 -65.668 -33.498 -87.001 -58.498s-32 -50.833 -32 -77.5c0 -26 7.33301 -46.333 22 -61s35.334 -22 62.001 -22c7.33301 0 13.833 0.166992 19.5 0.5s10.834 0.666016 15.501 0.999023s8.5 0.666016 11.5 0.999023s6.5 1.16602 10.5 2.49902
l7.5 2.5c1 0.333008 3.66699 1.33301 8 3s7.16602 2.83398 8.49902 3.50098l13 -145c-37.333 -16.667 -87 -25 -149 -25c-71.333 0 -127.833 17.167 -169.5 51.5s-62.5 79.5 -62.5 135.5c0 32 9.66699 65.333 29 100s47.333 65.667 84 93v3
c-80.667 17.333 -151.167 49.333 -211.5 96s-106.833 105.167 -139.5 175.5s-49 147.5 -49 231.5c0 74 12.833 143 38.5 207s61.5 118.833 107.5 164.5s102.333 81.5 169 107.5s139 39 217 39c76.667 0 148 -12.667 214 -38s122.333 -60.5 169 -105.5
s83.167 -99.833 109.5 -164.5s39.5 -134.667 39.5 -210c0 -139.333 -41.833 -255.5 -125.5 -348.5s-193.5 -147.167 -329.5 -162.5zM351.999 499.002c0 -78 24.501 -143.5 73.501 -196.5s111.5 -79.5 187.5 -79.5c73.333 0 135 26 185 78s75 118 75 198
c0 81.333 -24.667 147.833 -74 199.5s-111.333 77.5 -186 77.5c-51.333 0 -96.833 -12 -136.5 -36s-70.334 -57 -92.001 -99s-32.5 -89.333 -32.5 -142z" />
    <glyph glyph-name="Aringacute" unicode="&#x1fa;" horiz-adv-x="1430" 
d="M716 1558c-40 0 -76.667 9.16797 -110 27.501s-60 43.833 -80 76.5s-30 69.334 -30 110.001c0 59.333 20.833 109.833 62.5 151.5s94.167 62.5 157.5 62.5c59.333 0 110.333 -18.667 153 -56l122 93l286 2l-340 -270c-2.66699 -36.667 -13.5 -69.834 -32.5 -99.501
s-45 -53.334 -78 -71.001s-69.833 -26.5 -110.5 -26.5zM716 1851c-21.333 0 -39.5 -7.66699 -54.5 -23s-22.5 -33.333 -22.5 -54c0 -21.333 7.5 -39.333 22.5 -54s33.167 -22 54.5 -22s39.5 7.5 54.5 22.5s22.5 33.167 22.5 54.5c0 20.667 -7.5 38.5 -22.5 53.5
s-33.167 22.5 -54.5 22.5zM1095 0.000976562l-99 291h-558l-99 -291h-301l539 1455h278l541 -1455h-301zM521 537.001h391l-195 571h-2z" />
    <glyph glyph-name="aringacute" unicode="&#x1fb;" horiz-adv-x="1244" 
d="M617 1092c-60.667 0 -112.5 20.332 -155.5 60.999s-64.5 91.667 -64.5 153c0 38.667 9.16699 74.334 27.5 107.001s44.5 58.667 78.5 78s72 29 114 29c57.333 0 106.333 -17.333 147 -52l132 99l286 1l-343 -271c-2 -38 -12.333 -72.5 -31 -103.5
s-44.667 -55.667 -78 -74s-71 -27.5 -113 -27.5zM617 1385c-21.333 0 -39.502 -7.66895 -54.502 -23.002s-22.5 -33.333 -22.5 -54c0 -21.333 7.5 -39.333 22.5 -54s33.167 -22 54.5 -22s39.5 7.5 54.5 22.5s22.5 33.167 22.5 54.5c0 6 -0.666992 11.833 -2 17.5
s-3.33301 10.834 -6 15.501s-5.66699 9.33398 -9 14.001s-7.16602 8.66699 -11.499 12s-9.16602 6.33301 -14.499 9s-10.833 4.66699 -16.5 6s-11.5 2 -17.5 2zM848.998 886.997v113h268v-1000h-255v121h-5c-71.333 -92 -171 -138 -299 -138
c-68.667 0 -132.5 12.333 -191.5 37s-109.667 59.167 -152 103.5s-75.5 98.666 -99.5 162.999s-36 134.5 -36 210.5c0 74.667 12 144.334 36 209.001s56.833 119.667 98.5 165s91.667 81 150 107s120.5 39 186.5 39c122 0 220.333 -43.333 295 -130h4zM606.998 222.997
c71.333 0 131.333 25.332 180 75.999s73 116.334 73 197.001c0 39.333 -6.33301 76.333 -19 111s-30.167 64.334 -52.5 89.001s-49 44.167 -80 58.5s-64.5 21.5 -100.5 21.5c-73.333 0 -134.5 -25.667 -183.5 -77s-73.5 -119 -73.5 -203
c0 -80.667 23.833 -146.334 71.5 -197.001s109.167 -76 184.5 -76z" />
    <glyph glyph-name="AEacute" unicode="&#x1fc;" horiz-adv-x="1957" 
d="M1331 1907l-254 -302h-259l232 301zM1172 257h689v-257h-973v291h-428l-144 -291h-303l728 1455h1079v-258h-648v-348h527v-253h-527v-339zM581 537h307v614h-4z" />
    <glyph glyph-name="aeacute" unicode="&#x1fd;" horiz-adv-x="1624" 
d="M1194 1423l-254 -302h-259l232 301zM1569 509c0 -15.333 -1.00098 -33.998 -3.00098 -55.998s-3.66699 -35.333 -5 -40l-655 -2c14.667 -58.667 42.834 -105 84.501 -139s92.834 -51 153.501 -51c26.667 0 53 5.16699 79 15.5s48.5 23.166 67.5 38.499s36.833 33 53.5 53
l185 -156c-45.333 -56.667 -102.666 -102.334 -171.999 -137.001s-145.666 -52 -228.999 -52c-68.667 0 -131.834 12.833 -189.501 38.5s-106.5 61.5 -146.5 107.5h-5c-37.333 -42.667 -86.666 -77.667 -147.999 -105s-130.333 -41 -207 -41
c-62.667 0 -117.834 7.83301 -165.501 23.5s-86.334 37.5 -116.001 65.5s-51.834 60.333 -66.501 97s-22 77.334 -22 122.001c0 98.667 33.5 175.667 100.5 231s167.167 83.333 300.5 84h179v15c0 62.667 -12 106.5 -36 131.5s-60.667 37.5 -110 37.5
c-86.667 0 -172.334 -22 -257.001 -66l-107 199c38 21.333 91.833 42.333 161.5 63s142.834 31 219.501 31c45.333 0 85.5 -4.16699 120.5 -12.5s67.333 -22.833 97 -43.5s54.5 -47.334 74.5 -80.001h5c81.333 90.667 187 136 317 136c84.667 0 160.667 -21.833 228 -65.5
s119.833 -104.167 157.5 -181.5s56.5 -164.333 56.5 -261zM1115 781.002c-50.667 0 -94.332 -15.333 -130.999 -46s-62.334 -73.667 -77.001 -129h397c-14 54 -37.5 96.667 -70.5 128s-72.5 47 -118.5 47zM461.001 195.002c50 0 92.667 16.168 128 48.501
s53 65.166 53 98.499v77l-151 -1c-54 -0.666992 -95.5 -10.167 -124.5 -28.5s-43.5 -45.833 -43.5 -82.5c0 -33.333 12 -60.333 36 -81s58 -31 102 -31z" />
    <glyph glyph-name="Oslashacute" unicode="&#x1fe;" horiz-adv-x="1682" 
d="M1217 1906l-254 -302h-259l232 301zM1593 1387l-165.999 -182c103.333 -130.667 155 -289.667 155 -477c0 -109.333 -18.667 -210.5 -56 -303.5s-88.666 -171.667 -153.999 -236s-143.5 -114.666 -234.5 -150.999s-189.5 -54.5 -295.5 -54.5
c-161.333 0 -303.333 40 -426 120l-160 -175l-138 129l157 170c-56 66 -99.167 141.5 -129.5 226.5s-45.5 176.5 -45.5 274.5c0 106.667 18.167 206 54.5 298s86.666 170.667 150.999 236s142.666 116.666 234.999 153.999s192.833 56 301.5 56c174 0 324 -46 450 -138
l164 178zM400.001 728c0 -104.667 26 -197.669 78 -279.002l619 673c-75.333 54 -160 81 -254 81c-85.333 0 -162 -21.167 -230 -63.5s-120.5 -99.666 -157.5 -171.999s-55.5 -152.166 -55.5 -239.499zM1283 727.998c0 92.667 -20.667 177 -62 253l-610 -665
c70 -43.333 147.333 -65 232 -65c82.667 0 157.5 20.5 224.5 61.5s119.667 98 158 171s57.5 154.5 57.5 244.5z" />
    <glyph glyph-name="oslashacute" unicode="&#x1ff;" horiz-adv-x="1225" 
d="M988 1441l-254 -302h-259l232 301zM1147 944l-108.999 -117.999c71.333 -90 107 -199 107 -327c0 -100.667 -22.667 -190.334 -68 -269.001s-108.333 -139.5 -189 -182.5s-172.334 -64.5 -275.001 -64.5c-109.333 0 -206 24.333 -290 73l-105 -113l-118 110l99 107
c-78.667 93.333 -118 206.333 -118 339c0 74 12.833 143 38.5 207s61.5 118.833 107.5 164.5s102.333 81.5 169 107.5s139 39 217 39c116 0 218 -28 306 -84l111 120zM352.001 499.001c0 -50.667 10.999 -97 32.999 -139l357 383c-40 22 -83 33 -129 33
c-77.333 0 -140.166 -26.167 -188.499 -78.5s-72.5 -118.5 -72.5 -198.5zM873 499.001c0 43.333 -8 84.667 -24 124l-348 -375c34.667 -16.667 72 -25 112 -25c73.333 0 135 26 185 78s75 118 75 198z" />
    <glyph glyph-name="Scommaaccent" unicode="&#x218;" horiz-adv-x="1196" 
d="M597 -17c-96.667 0 -190.497 19.001 -281.497 57.001s-173.833 95.333 -248.5 172l173 213c26.667 -30.667 55.5 -57.667 86.5 -81s62 -42.333 93 -57s61.833 -25.667 92.5 -33s60.667 -11 90 -11c45.333 0 83.833 6.66699 115.5 20s55.167 31.333 70.5 54
s23 49.334 23 80.001c0 21.333 -3.33301 40.333 -10 57s-15.834 31.334 -27.501 44.001s-28.667 25.167 -51 37.5s-45.5 23.333 -69.5 33s-55.667 21.167 -95 34.5c-35.333 12.667 -66.666 24.334 -93.999 35.001s-57 24.167 -89 40.5s-59.667 32.666 -83 48.999
s-46.5 36 -69.5 59s-41.667 47.333 -56 73s-26 55.334 -35 89.001s-13.5 69.5 -13.5 107.5c0 76.667 20.667 146.667 62 210s97.666 113.166 168.999 149.499s150 55.166 236 56.499c176 2 339.333 -59 490 -183l-166 -217c-116.667 95.333 -222.334 143 -317.001 143
c-51.333 0 -93.166 -13 -125.499 -39s-48.833 -61.667 -49.5 -107c0 -18 3.33301 -34.333 10 -49s15.667 -27.834 27 -39.501s28.166 -23.667 50.499 -36s44.666 -23.333 66.999 -33s52.5 -21.834 90.5 -36.501c121.333 -47.333 201.666 -81.666 240.999 -102.999
c90.667 -49.333 151 -110.333 181 -183c18.667 -45.333 28 -98 28 -158c0 -61.333 -10.333 -117.5 -31 -168.5s-48 -93.333 -82 -127s-73.5 -62.334 -118.5 -86.001s-91.167 -40.667 -138.5 -51s-95.666 -15.5 -144.999 -15.5zM446.003 -450.999l-56 151
c40.667 12 69.5 26.5 86.5 43.5s25.5 40.5 25.5 70.5c0 19.333 -4 45.333 -12 78h231c6 -26 9 -56.667 9 -92c0 -82.667 -26.167 -146 -78.5 -190s-120.833 -64.333 -205.5 -61z" />
    <glyph glyph-name="scommaaccent" unicode="&#x219;" horiz-adv-x="917" 
d="M459 -17c-158.667 0 -293.667 48.9961 -405 146.996l130 185c83.333 -78 175.666 -117 276.999 -117c38 0 68 7.66699 90 23s33 35.333 33 60c0 15.333 -6.66699 28.833 -20 40.5s-31.833 22.5 -55.5 32.5s-59.167 22.667 -106.5 38c-30 10 -56.833 20 -80.5 30
s-47.834 21.833 -72.501 35.5s-45.834 28.834 -63.501 45.501s-33.667 35.334 -48 56.001s-25.166 44.334 -32.499 71.001s-11 55.667 -11 87c0 59.333 15.833 111.833 47.5 157.5s74.667 80.834 129 105.501s115.5 37 183.5 37c70 0 134.333 -10 193 -30
s116.334 -52 173.001 -96l-130 -196c-37.333 35.333 -76.833 61.833 -118.5 79.5s-81.834 26.5 -120.501 26.5c-25.333 0 -48 -6.5 -68 -19.5s-30 -31.5 -30 -55.5c0 -20 11.833 -38 35.5 -54s61.834 -34 114.501 -54c110.667 -40.667 184.667 -73 222 -97
c64.667 -40 103.334 -93.333 116.001 -160c4 -20 6 -42.333 6 -67c0 -92.667 -33.167 -167.667 -99.5 -225s-162.5 -86 -288.5 -86zM298 -451.004l-56 151c40.667 12 69.5 26.5 86.5 43.5s25.5 40.5 25.5 70.5c0 18.667 -4 44.667 -12 78h231c6 -26 9 -56.667 9 -92
c0 -82.667 -26.167 -146 -78.5 -190s-120.833 -64.333 -205.5 -61z" />
    <glyph glyph-name="uni021A" unicode="&#x21a;" horiz-adv-x="1210" 
d="M461 0v1197h-401v258h1091v-258h-403v-1197h-287zM442 -451l-56 151c40.667 12 69.5 26.5 86.5 43.5s25.5 40.5 25.5 70.5c0 19.333 -4 45.333 -12 78h231c6 -26 9 -56.667 9 -92c0 -82.667 -26.167 -146 -78.5 -190s-120.833 -64.333 -205.5 -61z" />
    <glyph glyph-name="uni021B" unicode="&#x21b;" horiz-adv-x="764" 
d="M447 -17c-88.667 0 -158.5 28.1689 -209.5 84.502s-76.5 139.166 -76.5 248.499v462h-118v222h118v327l268 29v-356h272v-222h-272v-425c0 -44 6.83301 -76.333 20.5 -97s36.167 -31 67.5 -31c38.667 0 80.667 11.667 126 35l69 -214
c-38 -20.667 -76.333 -36.334 -115 -47.001s-88.667 -16 -150 -16zM272 -450.998l-56 151c40.667 12 69.5 26.5 86.5 43.5s25.5 40.5 25.5 70.5c0 19.333 -4 45.333 -12 78h231c6 -26 9 -56.667 9 -92c0 -82.667 -26.167 -146 -78.5 -190s-120.833 -64.333 -205.5 -61z" />
    <glyph glyph-name="uni0232" unicode="&#x232;" horiz-adv-x="1295" 
d="M963 1874v-214h-623v214h623zM942 1455h333l-484 -816v-639h-291v639l-481 816h330l296 -531h4z" />
    <glyph glyph-name="uni0233" unicode="&#x233;" horiz-adv-x="1104" 
d="M868 1408v-214h-623v214h623zM791 1000h278l-539 -1405h-274l178 467l-400 938h280l245 -619h3z" />
    <glyph glyph-name="uni0237" unicode="&#x237;" horiz-adv-x="527" 
d="M106 -422c-44 0 -81.501 2.66797 -112.501 8.00098s-63.167 14.666 -96.5 27.999l45 223c29.333 -16.667 59 -25 89 -25c32.667 0 57.834 11.667 75.501 35s26.5 58 26.5 104v1049h268v-1060c0 -117.333 -26.5 -207 -79.5 -269s-124.833 -93 -215.5 -93z" />
    </font>
</defs>
</svg>
